<?xml version="1.0" encoding="utf-8"?>
<!-- Generator: Adobe Illustrator 24.0.0, SVG Export Plug-In . SVG Version: 6.00 Build 0)  -->
<svg version="1.1" id="Слой_1" xmlns="http://www.w3.org/2000/svg" xmlns:xlink="http://www.w3.org/1999/xlink" x="0px" y="0px"
	 width="90px" height="90px" viewBox="0 0 90 90" style="enable-background:new 0 0 90 90;" xml:space="preserve">
<style type="text/css">
	.st0{fill:none;stroke:#2B2C2E;stroke-width:2;stroke-miterlimit:10;}
	.st1{fill:#AC956B;}
</style>
<g>
	<circle class="st0" cx="45" cy="45" r="43"/>
	<g>
		<path class="st1" d="M56.3,31.6c-2.7,0-4.9,2.2-4.9,4.9c0,2.7,2.2,4.9,4.9,4.9c2.7,0,4.9-2.2,4.9-4.9C61.2,33.8,59,31.6,56.3,31.6
			z M56.3,38.6c-1.1,0-2.1-0.9-2.1-2.1s0.9-2.1,2.1-2.1s2.1,0.9,2.1,2.1S57.5,38.6,56.3,38.6z"/>
		<path class="st1" d="M68,51.8L64.1,43c0.4-0.6,0.5-1.3,0.7-1.9c0.1-0.4,0.2-0.7,0.3-1c0.1-0.2,0.3-0.5,0.5-0.8
			c0.5-0.7,1-1.7,1-2.8s-0.6-2.1-1-2.8c-0.2-0.3-0.4-0.6-0.5-0.8c-0.1-0.3-0.2-0.6-0.3-1c-0.2-0.8-0.5-1.9-1.2-2.6
			c-0.4-0.4-0.8-0.6-1.3-0.8v-6.2c0-0.8-0.6-1.4-1.4-1.4h-34c-0.8,0-1.4,0.6-1.4,1.4v45.7c0,0.8,0.6,1.4,1.4,1.4h34
			c0.8,0,1.4-0.6,1.4-1.4V55.3l1.3-1.9l2.9,0.4c0.5,0.1,1-0.1,1.3-0.5C68.1,52.8,68.2,52.2,68,51.8L68,51.8z M63.1,35.2
			c0.3,0.5,0.6,1,0.6,1.3s-0.3,0.8-0.6,1.3c-0.2,0.4-0.5,0.8-0.7,1.2c-0.2,0.5-0.3,0.9-0.4,1.4c-0.1,0.5-0.3,1.1-0.5,1.3
			c-0.2,0.2-0.8,0.4-1.3,0.5c-0.4,0.1-0.9,0.2-1.4,0.4c-0.4,0.2-0.8,0.4-1.2,0.7c-0.5,0.3-1,0.6-1.3,0.6c-0.3,0-0.8-0.3-1.3-0.6
			c-0.4-0.2-0.8-0.5-1.2-0.7c-0.5-0.2-0.9-0.3-1.4-0.4c-0.5-0.1-1.1-0.3-1.3-0.5c-0.2-0.2-0.4-0.8-0.5-1.3c-0.1-0.4-0.2-0.9-0.4-1.4
			c-0.2-0.4-0.4-0.8-0.7-1.2c-0.3-0.5-0.6-1-0.6-1.3c0-0.3,0.3-0.8,0.6-1.3c0.2-0.4,0.5-0.8,0.7-1.2c0.2-0.5,0.3-0.9,0.4-1.4
			c0.1-0.5,0.3-1.1,0.5-1.3c0.2-0.2,0.8-0.4,1.3-0.5c0.4-0.1,0.9-0.2,1.4-0.4c0.4-0.2,0.8-0.4,1.2-0.7c0.5-0.3,1-0.6,1.3-0.6
			s0.8,0.3,1.3,0.6c0.4,0.2,0.8,0.5,1.2,0.7c0.5,0.2,0.9,0.3,1.4,0.4c0.5,0.1,1.1,0.3,1.3,0.5c0.2,0.2,0.4,0.8,0.5,1.3
			c0.1,0.4,0.2,0.9,0.4,1.4C62.7,34.4,62.9,34.8,63.1,35.2L63.1,35.2z M50.9,44.8c0.3,0.1,0.6,0.2,0.9,0.2c0.4,0.1,0.7,0.2,1,0.3
			c0.2,0.1,0.5,0.3,0.8,0.5c0.2,0.1,0.4,0.3,0.7,0.4L51.6,52l-0.7-1c-0.3-0.4-0.8-0.7-1.4-0.6l-1.2,0.2L50.9,44.8z M28.3,66.5V23.7
			h31.2v3.8c-0.1-0.1-0.2-0.1-0.3-0.2c-0.7-0.5-1.7-1-2.8-1c-1.1,0-2.1,0.6-2.8,1c-0.3,0.2-0.6,0.4-0.8,0.5c-0.3,0.1-0.6,0.2-1,0.3
			c-0.8,0.2-1.9,0.5-2.6,1.2c-0.8,0.8-1,1.8-1.2,2.6c-0.1,0.3-0.2,0.6-0.3,0.9H33.3c-0.8,0-1.4,0.6-1.4,1.4c0,0.8,0.6,1.4,1.4,1.4
			h12.9c-0.1,0.3-0.1,0.6-0.1,0.9c0,0.8,0.2,1.4,0.5,2H33.3c-0.8,0-1.4,0.6-1.4,1.4s0.6,1.4,1.4,1.4h14.5c0,0,0.1,0,0.1,0
			c0.1,0.5,0.3,1.1,0.6,1.7L48,44.2c-0.1,0-0.2,0-0.3,0H33.3c-0.8,0-1.4,0.6-1.4,1.4c0,0.8,0.6,1.4,1.4,1.4h13.5l-1.3,2.9H33.3
			c-0.8,0-1.4,0.6-1.4,1.4c0,0.8,0.6,1.4,1.4,1.4h11.3c0,0.2,0.1,0.3,0.2,0.5c0.3,0.4,0.8,0.6,1.3,0.5l2.9-0.4l1.6,2.4
			c0.3,0.4,0.7,0.6,1.2,0.6c0,0,0.1,0,0.1,0c0.5,0,1-0.4,1.2-0.8l3.2-7.2l3.1,7.1v11H28.3z M63.1,50.4c-0.5-0.1-1.1,0.2-1.4,0.6
			l-0.7,1l-2.6-5.9c0.2-0.1,0.5-0.3,0.7-0.4c0.3-0.2,0.6-0.4,0.8-0.5c0.3-0.1,0.6-0.2,1-0.3c0.3-0.1,0.6-0.1,0.9-0.2l2.6,5.8
			L63.1,50.4z"/>
		<path class="st1" d="M33.3,29.9h8.8c0.8,0,1.4-0.6,1.4-1.4c0-0.8-0.6-1.4-1.4-1.4h-8.8c-0.8,0-1.4,0.6-1.4,1.4
			C31.8,29.3,32.5,29.9,33.3,29.9z"/>
		<path class="st1" d="M42.1,55.6h-8.8c-0.8,0-1.4,0.6-1.4,1.4c0,0.8,0.6,1.4,1.4,1.4h8.8c0.8,0,1.4-0.6,1.4-1.4
			C43.5,56.2,42.8,55.6,42.1,55.6z"/>
		<path class="st1" d="M54.5,60.7h-5.3c-0.8,0-1.4,0.6-1.4,1.4s0.6,1.4,1.4,1.4h5.3c0.8,0,1.4-0.6,1.4-1.4S55.3,60.7,54.5,60.7z"/>
	</g>
</g>
</svg>
