<?xml version="1.0" encoding="utf-8"?>
<!-- Generator: Adobe Illustrator 24.0.0, SVG Export Plug-In . SVG Version: 6.00 Build 0)  -->
<svg version="1.1" id="Слой_1" xmlns="http://www.w3.org/2000/svg" xmlns:xlink="http://www.w3.org/1999/xlink" x="0px" y="0px"
	 width="90px" height="90px" viewBox="0 0 90 90" style="enable-background:new 0 0 90 90;" xml:space="preserve">
<style type="text/css">
	.st0{fill:none;stroke:#2B2C2E;stroke-width:2;stroke-miterlimit:10;}
	.st1{fill:#AC956B;stroke:#AC956B;stroke-miterlimit:10;}
</style>
<g>
	<circle class="st0" cx="45.1" cy="44.7" r="43"/>
	<circle class="st0" cx="45.1" cy="44.7" r="43"/>
	<g>
		<g>
			<g>
				<path class="st1" d="M51.9,50.4l-9.2-2.2v-6.3c0.1-0.1,0.2-0.1,0.2-0.2c3.1-2.6,4.9-6.3,5.1-10.2h0c0.5,0,0.9-0.4,0.9-0.9v-0.9
					c0-7-5.6-12.6-12.6-12.6s-12.6,5.6-12.6,12.6v1.8c0,0.5,0.4,0.9,0.9,0.9c0,0,0.1,0,0.1,0c0.4,3.7,2.2,7,5.1,9.4
					c0.1,0.1,0.2,0.1,0.2,0.2v6.3l-9.2,2.2c-0.4,0.1-0.7,0.5-0.7,0.9v18.9c0,0.5,0.4,0.9,0.9,0.9h30.6c0.5,0,0.9-0.4,0.9-0.9V51.2
					C52.6,50.8,52.3,50.5,51.9,50.4z M30.1,69.3H22V52l8.1-1.9V69.3z M25.6,29.6c0-6,4.8-10.8,10.8-10.8s10.8,4.8,10.8,10.8h-2.7
					c-2.5,0-4.5-2-4.5-4.5c0-0.5-0.4-0.9-0.9-0.9c-0.1,0-0.1,0-0.2,0l-0.5,0.1C33.8,25.4,29.5,27.2,25.6,29.6L25.6,29.6z M40.9,69.3
					h-9V52.8l3.2-1.1L32.8,60c-0.1,0.2,0,0.4,0.1,0.6l2.7,5.4c0.2,0.4,0.8,0.6,1.2,0.4c0.2-0.1,0.3-0.2,0.4-0.4l2.7-5.4
					C40,60.5,40,60.2,40,60l-2.3-8.3l3.2,1.1V69.3z M31.9,50.9v-1.8l2.2,1.1L31.9,50.9z M36.4,53.8l1.7,6.4l-1.7,3.5l-1.7-3.5
					L36.4,53.8z M40.9,50.9l-2.2-0.7l2.2-1.1V50.9z M40.9,47.1l-4.5,2.3l-4.5-2.3V43c1.4,0.7,2.9,1.1,4.5,1.1c1.6,0,3.1-0.4,4.5-1.1
					V47.1z M31,40.3c-2.7-2.2-4.3-5.5-4.5-9c3.6-2.4,7.6-4.1,11.8-5c0.5,3,3.2,5.2,6.2,5.2h1.8c-0.2,3.4-1.8,6.6-4.5,8.9
					C38.7,42.9,34.1,42.9,31,40.3z M50.8,69.3h-8.1V50l8.1,1.9V69.3z"/>
			</g>
		</g>
		<g>
			<g>
				<path class="st1" d="M43.6,31.4h-5.4c-0.5,0-0.9,0.4-0.9,0.9v0.9h-1.8v-0.9c0-0.5-0.4-0.9-0.9-0.9h-5.4c-0.5,0-0.9,0.4-0.9,0.9
					v3.6c0,0.5,0.4,0.9,0.9,0.9h5.4c0.5,0,0.9-0.4,0.9-0.9V35h1.8v0.9c0,0.5,0.4,0.9,0.9,0.9h5.4c0.5,0,0.9-0.4,0.9-0.9v-3.6
					C44.5,31.8,44.1,31.4,43.6,31.4z M33.7,35h-3.6v-1.8h3.6V35z M42.7,35h-3.6v-1.8h3.6V35z"/>
			</g>
		</g>
		<g>
			<g>
				<path class="st1" d="M73,39.5c-0.1-0.2-0.2-0.3-0.4-0.4v0l-1.9-1.3l1-2.1c0.4-0.8,0-1.8-0.8-2.2c-0.2-0.1-0.4-0.1-0.6-0.1
					L68,33.1l-0.2-2.3c-0.1-0.9-0.9-1.6-1.8-1.5c-0.2,0-0.4,0.1-0.5,0.1l-2.1,1l-1.3-1.9c-0.5-0.8-1.6-0.9-2.3-0.4
					c-0.2,0.1-0.3,0.2-0.4,0.4L58,30.4l-2.1-1c-0.8-0.4-1.8,0-2.2,0.8c-0.1,0.2-0.1,0.4-0.1,0.6l-0.2,2.3l-2.3,0.2
					c-0.9,0.1-1.6,0.9-1.5,1.8c0,0.2,0.1,0.4,0.1,0.5l1,2.1l-1.9,1.3c-0.8,0.5-0.9,1.6-0.4,2.3c0.1,0.2,0.2,0.3,0.4,0.4l1.9,1.3
					l-1,2.1c-0.4,0.8,0,1.8,0.8,2.2c0.2,0.1,0.4,0.1,0.6,0.1l2.3,0.2l0.2,2.3c0,0.5,0.4,1,0.8,1.3V62c0,0.5,0.4,0.9,0.9,0.9
					c0.2,0,0.5-0.1,0.6-0.3l4.8-4.8l4.8,4.8c0.4,0.4,0.9,0.4,1.3,0c0.2-0.2,0.3-0.4,0.3-0.6V51.4c0.5-0.3,0.8-0.8,0.8-1.3l0.2-2.3
					l2.3-0.2c0.9-0.1,1.6-0.9,1.5-1.8c0-0.2-0.1-0.4-0.1-0.5l-1-2.1l1.9-1.3C73.4,41.3,73.5,40.2,73,39.5z M65.2,59.9L61.3,56
					c-0.4-0.4-0.9-0.4-1.3,0l-3.9,3.9v-8.6l1.8-0.8l1.3,1.9c0.5,0.8,1.6,0.9,2.3,0.4c0.2-0.1,0.3-0.2,0.4-0.4l1.3-1.9l1.8,0.8V59.9
					L65.2,59.9z M69.6,41.7c-0.7,0.5-0.9,1.3-0.6,2.1l0.9,2L67.8,46c-0.8,0.1-1.4,0.7-1.5,1.5l-0.2,2.2l-2-0.9
					c-0.7-0.3-1.6-0.1-2.1,0.6l-1.3,1.8l-1.3-1.8c-0.5-0.7-1.3-0.9-2.1-0.6l-2,0.9l-0.2-2.2c-0.1-0.8-0.7-1.4-1.5-1.5l-2.2-0.2
					l0.9-2c0.3-0.7,0.1-1.6-0.6-2.1L50,40.4l1.8-1.3c0.7-0.5,0.9-1.3,0.6-2.1l-0.9-2l2.2-0.2c0.8-0.1,1.4-0.7,1.5-1.5l0.2-2.2l2,0.9
					c0.7,0.3,1.6,0.1,2.1-0.6l1.3-1.8l1.3,1.8c0.5,0.7,1.3,0.9,2.1,0.6l2-0.9l0.2,2.2c0.1,0.8,0.7,1.4,1.5,1.5l2.2,0.2l-0.9,2
					c-0.3,0.7-0.1,1.6,0.6,2.1l1.8,1.3L69.6,41.7z"/>
			</g>
		</g>
		<g>
			<g>
				<path class="st1" d="M60.7,32.3c-4.5,0-8.1,3.6-8.1,8.1c0,4.5,3.6,8.1,8.1,8.1c4.5,0,8.1-3.6,8.1-8.1
					C68.8,36,65.2,32.3,60.7,32.3z M60.7,46.7c-3.5,0-6.3-2.8-6.3-6.3c0-3.5,2.8-6.3,6.3-6.3S67,37,67,40.4
					C67,43.9,64.2,46.7,60.7,46.7z"/>
			</g>
		</g>
		<g>
			<g>
				<rect x="66.1" y="23.3" class="st1" width="1.8" height="1.8"/>
			</g>
		</g>
		<g>
			<g>
				<rect x="69.7" y="23.3" class="st1" width="1.8" height="1.8"/>
			</g>
		</g>
		<g>
			<g>
				<rect x="67.9" y="21.5" class="st1" width="1.8" height="1.8"/>
			</g>
		</g>
		<g>
			<g>
				<rect x="67.9" y="25.1" class="st1" width="1.8" height="1.8"/>
			</g>
		</g>
		<g>
			<g>
				<rect x="56.2" y="18.8" class="st1" width="1.8" height="1.8"/>
			</g>
		</g>
		<g>
			<g>
				<rect x="59.8" y="18.8" class="st1" width="1.8" height="1.8"/>
			</g>
		</g>
		<g>
			<g>
				<rect x="58" y="17" class="st1" width="1.8" height="1.8"/>
			</g>
		</g>
		<g>
			<g>
				<rect x="58" y="20.6" class="st1" width="1.8" height="1.8"/>
			</g>
		</g>
	</g>
</g>
</svg>
