<?xml version="1.0" encoding="utf-8"?>
<!-- Generator: Adobe Illustrator 24.0.0, SVG Export Plug-In . SVG Version: 6.00 Build 0)  -->
<svg version="1.1" id="Слой_1" xmlns="http://www.w3.org/2000/svg" xmlns:xlink="http://www.w3.org/1999/xlink" x="0px" y="0px"
	 width="60px" height="80px" viewBox="0 0 60 80" style="enable-background:new 0 0 60 80;" xml:space="preserve">
<style type="text/css">
	.st0{fill:#FFFFFF;}
</style>
<g>
	<path class="st0" d="M52.5,65.8L48,70.3l-2-2c-0.4-0.4-1.2-0.4-1.6,0s-0.4,1.2,0,1.6l2.8,2.8c0.4,0.4,1.2,0.4,1.6,0l5.3-5.3
		c0.4-0.4,0.4-1.2,0-1.6C53.7,65.4,52.9,65.4,52.5,65.8z"/>
	<path class="st0" d="M7.4,43.4C7.4,43.4,7.4,43.4,7.4,43.4c-0.3,0.1-6.1,2.6-6.1,9.4v24c0,1.6,1.3,2.9,2.9,2.9h44.7
		c4.6,0,8.7-2.9,10.1-7.3c0.2-0.6-0.1-1.3-0.7-1.5c-0.6-0.2-1.3,0.1-1.5,0.7c-1.1,3.4-4.3,5.7-7.9,5.7c-5.3,0-9.3-4.9-8.2-10
		c0.8-3.8,4.2-6.7,8.2-6.7h0c3.8,0,7.1,2.6,8.1,6.3c0.2,0.6,0.8,1,1.4,0.8c0.6-0.2,1-0.8,0.8-1.4c-0.7-2.8-2.6-5.2-5-6.6v-7
		c0-6.8-5.8-9.3-6.1-9.4c0,0,0,0,0,0l-13.7-5.3v-3.2c2.2-1.7,3.7-4.2,4.1-7.1c2.4-0.2,4.2-1.9,4.6-4.2h7c-0.3,0.7-0.7,1.3-1.3,1.8
		c-0.7,0.6-0.9,1.5-0.5,2.3c0.3,0.8,1.1,1.3,2.1,1.3c3.1-0.2,5.8-2.4,6.5-5.4c1.5-0.1,2.6-1.3,2.6-2.8V5.4c0-1.6-1.3-2.8-2.8-2.8
		h-7.1c-0.6,0-1.1,0.5-1.1,1.1c0,0.6,0.5,1.1,1.1,1.1h7.1c0.3,0,0.5,0.2,0.5,0.5v15.3c0,0.3-0.2,0.5-0.5,0.5h-0.5
		c-0.7,0-1.3,0.5-1.5,1.2c-0.3,2.1-2,3.7-4,4.1c0.9-1,1.5-2.3,1.8-3.6c0.2-0.9-0.5-1.7-1.4-1.7c-1.1,0-13.5,0-14,0
		c-0.3,0-0.5-0.2-0.5-0.5c0-3.8,0-14.6,0-15.3c0-0.3,0.2-0.5,0.5-0.5h7.1c0.6,0,1.1-0.5,1.1-1.1c0-0.6-0.5-1.1-1.1-1.1h-7.1
		c-0.8,0-1.4,0.3-2,0.8c-2.3-1.4-4.9-2.2-7.6-2.2c-7.9,0-14.3,6.4-14.3,14.3v4.4c-0.8,0.9-1.2,1.9-1.2,3.1c0,2.5,2,4.7,4.6,4.9
		c0.4,2.9,1.9,5.5,4.3,7.3v3.1L7.4,43.4z M36.9,41.5l-3.4,6.8c-0.1-0.1-1.4-1-4.1-2.9l4.2-5.2L36.9,41.5z M22,48.3l-3.4-6.8l3.3-1.3
		l4.2,5.2C24,46.9,22.2,48.1,22,48.3z M26.7,52.3h2.2L32.2,72l-4.4,4.8L23.3,72L26.7,52.3z M29.2,50h-2.9l-0.9-1.3l2.3-1.6l2.3,1.6
		L29.2,50z M3.6,76.7v-24c0-5.2,4.4-7.1,4.6-7.2l8.3-3.2l3.6,7.3v0c0.3,0.5,0.7,0.9,1.3,1.1c1,0.3,1.6-0.3,2.1-0.7l0.9,1.4
		l-3.4,20.3c0,0,0,0,0,0c-0.1,0.6,0.1,1.2,0.5,1.7l3.6,4H12.7V54.9c0-0.6-0.5-1.1-1.1-1.1s-1.1,0.5-1.1,1.1v22.5H4.2
		C3.9,77.4,3.6,77.1,3.6,76.7z M51.9,52.8v6c-1-0.3-2-0.4-3-0.4c-1.3,0-2.6,0.3-3.8,0.7v-4.2c0-0.6-0.5-1.1-1.1-1.1
		c-0.6,0-1.1,0.5-1.1,1.1v5.4c-2.5,1.7-4.2,4.5-4.5,7.6c-0.4,3.6,1.1,7.2,4,9.4H30.3l3.6-4c0.4-0.4,0.6-1.1,0.5-1.7c0,0,0,0,0,0
		L31,51.4l0.9-1.4l0.5,0.3c1,0.7,2.4,0.4,3-0.7l3.6-7.3l8.3,3.2C47.6,45.7,51.9,47.6,51.9,52.8z M40.7,23.6c-0.3,1-1.1,1.7-2.1,1.9
		v-1.9H40.7z M15.7,15.4c0-6.6,5.4-12,12-12c2.4,0,4.7,0.7,6.7,2.1v7.2c-0.6-0.3-1.3-0.3-1.9,0c0,0-0.1,0.1-0.1,0.1
		c-4,2.6-8.9,3.9-13.4,3.6c-1-0.1-1.9,0.6-2.1,1.5c-0.4,0-0.8,0.1-1.1,0.2V15.4z M14.5,22.9c0-1.2,1-2.2,2.2-2.5v5.1
		C15.4,25.2,14.5,24.1,14.5,22.9z M19,26.3c0-1.7,0-6.1,0-7.6c4.9,0.3,10.1-1.1,14.4-3.9c0.5,0.5,1,1,1,1v4.8c0,1.2,0.8,2.3,1.9,2.7
		v2.9c0,4.7-3.8,8.5-8.5,8.5C22.5,34.8,19,30.8,19,26.3z M27.8,37.1c1.5,0,3-0.3,4.3-0.9v2.2l-4.3,5.3l-4.3-5.3v-2.2
		C24.8,36.9,26.3,37.1,27.8,37.1z"/>
	<path class="st0" d="M53.1,16.3H40.8c-0.6,0-1.2,0.5-1.2,1.1c0,0.6,0.5,1.1,1.2,1.1h12.3c0.6,0,1.1-0.5,1.1-1.1
		C54.3,16.8,53.7,16.3,53.1,16.3z"/>
	<path class="st0" d="M53.1,12H40.8c-0.6,0-1.2,0.5-1.2,1.2c0,0.6,0.5,1.1,1.2,1.1h12.3c0.6,0,1.1-0.5,1.1-1.1
		C54.3,12.5,53.7,12,53.1,12z"/>
	<path class="st0" d="M53.1,7.7H40.8c-0.6,0-1.2,0.5-1.2,1.1c0,0.6,0.5,1.1,1.2,1.1h12.3c0.6,0,1.1-0.5,1.1-1.1
		C54.3,8.2,53.7,7.7,53.1,7.7z"/>
</g>
</svg>
