<?xml version="1.0" encoding="utf-8"?>
<!-- Generator: Adobe Illustrator 24.0.0, SVG Export Plug-In . SVG Version: 6.00 Build 0)  -->
<svg version="1.1" id="Слой_1" xmlns="http://www.w3.org/2000/svg" xmlns:xlink="http://www.w3.org/1999/xlink" x="0px" y="0px"
	 width="57px" height="57px" viewBox="0 0 57 57" style="enable-background:new 0 0 57 57;" xml:space="preserve">
<style type="text/css">
	.st0{fill:#AC956B;}
	.st1{fill:none;stroke:#AC956B;stroke-miterlimit:10;}
</style>
<g>
	<path class="st0" d="M39.1,34.4L39,34.1c-0.3-0.8-4.3-1.9-4.7-2l-0.3,0c-0.5,0.1-1.1,0.6-2.4,1.7c-1.4-0.7-3.4-2.4-4.3-3.4
		c-1-1.1-2.2-3-2.7-4.4c1.4-1.3,2-1.8,2.1-2.4c0-0.3-0.7-4.4-1.4-4.9l-0.2-0.1c-0.5-0.3-1.2-0.7-1.9-0.6c-0.2,0-0.4,0.1-0.5,0.2
		c-0.5,0.3-1.8,1.2-2.4,2.4c-0.4,0.7-0.5,7.3,4.4,12.8c4.8,5.5,10.8,5.7,11.7,5.5l0,0l0.1,0c1.2-0.4,2.2-1.6,2.6-2.1
		C39.9,36,39.4,34.9,39.1,34.4z"/>
	<circle class="st1" cx="28.9" cy="28.5" r="27"/>
</g>
</svg>
