<?xml version="1.0" encoding="utf-8"?>
<!-- Generator: Adobe Illustrator 24.0.0, SVG Export Plug-In . SVG Version: 6.00 Build 0)  -->
<svg version="1.1" id="Слой_1" xmlns="http://www.w3.org/2000/svg" xmlns:xlink="http://www.w3.org/1999/xlink" x="0px" y="0px"
	 width="90px" height="90px" viewBox="0 0 90 90" style="enable-background:new 0 0 90 90;" xml:space="preserve">
<style type="text/css">
	.st0{fill:none;stroke:#2B2C2E;stroke-width:2;stroke-miterlimit:10;}
	.st1{fill:#AC956C;stroke:#AC956C;stroke-width:1.5;stroke-miterlimit:10;}
</style>
<circle class="st0" cx="45.1" cy="44.7" r="43"/>
<g>
	<g>
		<path class="st1" d="M72.8,50.6c-1-1.4-2.9-1.8-4.4-0.8l-6.6,4.4l0-13.7l2.3,2.1c0.5,0.5,1.1,0.7,1.8,0.7c0,0,0,0,0,0
			c0.7,0,1.4-0.3,1.9-0.8c0.5-0.5,0.7-1.2,0.7-1.9c0-0.7-0.3-1.3-0.8-1.8l-4.3-4c-0.3-0.3-0.8-0.3-1,0c-0.3,0.3-0.3,0.8,0,1l4.3,4
			c0.2,0.2,0.3,0.5,0.4,0.8c0,0.3-0.1,0.6-0.3,0.8c-0.2,0.2-0.5,0.4-0.8,0.4c0,0,0,0,0,0c-0.3,0-0.6-0.1-0.8-0.3c0,0,0,0,0,0
			L47.9,25.5c-0.3-0.3-0.7-0.3-1,0L29.8,41.6c-0.2,0.2-0.5,0.3-0.8,0.3c-0.3,0-0.6-0.1-0.8-0.4c-0.2-0.2-0.3-0.5-0.3-0.8
			c0-0.3,0.1-0.6,0.4-0.8l18.4-17.3c0.4-0.4,1.1-0.4,1.6,0l14.9,13.9l0.2-0.7l0.3-0.8L49.2,21.6c-1-0.9-2.6-0.9-3.6,0l-5.9,5.5l0-1
			c0-0.3-0.1-0.6-0.3-0.8c-0.2-0.2-0.5-0.3-0.8-0.3c0,0,0,0,0,0l-4.2,0c-0.3,0-0.6,0.1-0.8,0.3c-0.2,0.2-0.3,0.5-0.3,0.8l0,7.1
			l-6,5.6c-0.5,0.5-0.8,1.1-0.8,1.8c0,0.7,0.2,1.4,0.7,1.9c0.5,0.5,1.1,0.8,1.8,0.8c0,0,0.1,0,0.1,0c0.7,0,1.3-0.2,1.8-0.7l2.3-2.1
			l0,6.5c-0.7-0.1-1.5-0.2-2.2-0.2h-1.3v-0.4c0-1.5-1.2-2.7-2.7-2.7h-2.3c-1.5,0-2.7,1.2-2.7,2.7v16.9l0.8,0.4l0.7,0.1V46.4
			c0-0.7,0.5-1.2,1.2-1.2H27c0.7,0,1.2,0.5,1.2,1.2v1.2v15v1.2c0,0.7-0.5,1.2-1.2,1.2h-2.3c-0.7,0-1.2-0.5-1.2-1.2v-1.3
			c0-0.4-0.3-0.7-0.7-0.7c-0.4,0-0.7,0.3-0.7,0.7v1.3c0,1.5,1.2,2.7,2.7,2.7H27c1.5,0,2.7-1.2,2.7-2.7v-0.1l10.7,4.1c0,0,0,0,0.1,0
			c0.5,0.1,0.9,0.2,1.4,0.2c0.2,0,0.5,0,0.7-0.1l15.8-2.3c0,0,0,0,0,0c1.3-0.2,2.6-0.8,3.7-1.6c0,0,0,0,0,0l10.2-9.2
			C73.4,53.7,73.7,51.9,72.8,50.6z M38.3,26.4l0,2.1l-3.6,3.4l0-5.5L38.3,26.4z M47.4,27l12.9,12.1l0,16l-2.1,1.4l-2.2-0.1L56,55.8
			c-0.2-2.1-1.7-3.7-3.7-4.1l0-9.5c0-0.7-0.6-1.3-1.3-1.3c0,0,0,0,0,0l-7,0c-0.4,0-0.7,0.1-0.9,0.4c-0.3,0.3-0.4,0.6-0.4,0.9l0,8.3
			c-1.4-0.3-2.7-0.8-3.9-1.6c-0.2-0.1-0.3-0.2-0.5-0.3c-0.1,0-0.1-0.1-0.2-0.1c-0.1,0-0.2-0.1-0.3-0.1c-0.1,0-0.2-0.1-0.2-0.1
			c-0.1,0-0.2-0.1-0.2-0.1c-0.1,0-0.2-0.1-0.3-0.1c-0.1,0-0.2-0.1-0.2-0.1c-0.1,0-0.2-0.1-0.3-0.1c-0.1,0-0.2-0.1-0.2-0.1
			c-0.1,0-0.2-0.1-0.3-0.1c-0.1,0-0.2-0.1-0.2-0.1c-0.1,0-0.2-0.1-0.3-0.1c-0.1,0-0.2-0.1-0.3-0.1c-0.1,0-0.2,0-0.2-0.1
			c-0.1,0-0.2-0.1-0.3-0.1c0,0-0.1,0-0.1,0l0-8.1L47.4,27z M50.8,51.5l-6.1-0.7l-0.6-0.1l0-8.4l6.7,0L50.8,51.5z M71.3,53.7
			l-10.2,9.2c-0.8,0.7-1.9,1.1-2.9,1.3l-15.8,2.3c0,0,0,0,0,0l0,0c-0.5,0.1-1,0-1.5-0.1l-11.2-4.3V48.3h1.3c1.1,0,2.1,0.1,3.2,0.4
			c0,0,0.1,0,0.1,0c0.1,0,0.3,0.1,0.4,0.1c0,0,0,0,0,0c0.1,0,0.3,0.1,0.4,0.1c0,0,0,0,0.1,0c0.1,0,0.3,0.1,0.4,0.1c0,0,0,0,0,0
			c0.3,0.1,0.5,0.2,0.8,0.3c0,0,0,0,0,0c0.1,0.1,0.3,0.1,0.4,0.2c0,0,0,0,0,0c0.1,0.1,0.3,0.1,0.4,0.2c0,0,0,0,0,0
			c0.1,0.1,0.2,0.1,0.4,0.2c0,0,0,0,0.1,0c0.1,0.1,0.2,0.1,0.4,0.2c1.7,1,3.6,1.7,5.6,2c0,0,0,0,0,0l8.2,0.9c0,0,0.1,0,0.1,0
			c1.2,0.2,2.2,1.1,2.5,2.3c0,0.2,0.1,0.4,0.1,0.5l0,0.3L39.2,55c-0.4,0-0.8,0.3-0.8,0.7c0,0.4,0.3,0.8,0.7,0.8l16.3,1.4
			c0,0,0,0,0,0s0,0,0,0l3.1,0.2c0,0,0,0,0,0c0,0,0,0,0,0c0,0,0,0,0,0c0,0,0,0,0.1,0c0,0,0,0,0,0c0,0,0,0,0.1,0c0,0,0,0,0,0
			c0,0,0.1,0,0.1-0.1l2.6-1.7c0,0,0,0,0,0l7.7-5.2c0.8-0.5,1.8-0.3,2.4,0.5C72,52.2,71.9,53.1,71.3,53.7z"/>
	</g>
</g>
</svg>
