<?xml version="1.0" encoding="utf-8"?>
<!-- Generator: Adobe Illustrator 24.0.0, SVG Export Plug-In . SVG Version: 6.00 Build 0)  -->
<svg version="1.1" id="Слой_1" xmlns="http://www.w3.org/2000/svg" xmlns:xlink="http://www.w3.org/1999/xlink" x="0px" y="0px"
	 width="90px" height="90px" viewBox="0 0 90 90" style="enable-background:new 0 0 90 90;" xml:space="preserve">
<style type="text/css">
	.st0{fill:none;stroke:#2B2C2E;stroke-width:2;stroke-miterlimit:10;}
	.st1{fill:#AC956C;stroke:#AC956C;stroke-width:1.5;stroke-miterlimit:10;}
	.st2{fill:#AC956C;stroke:#AC956C;stroke-width:0.75;stroke-miterlimit:10;}
</style>
<circle class="st0" cx="45.1" cy="44.7" r="43"/>
<g>
	<path class="st1" d="M62.2,51l-9.4,5.4c-0.4-0.7-1.1-1.2-1.9-1.4l-10.7-2.9c-1.8-0.5-3.8-0.3-5.4,0.7L31,55v-1.9
		c0-0.4-0.4-0.8-0.8-0.8h-6.5c-0.4,0-0.8,0.4-0.8,0.8v16.1c0,0.4,0.4,0.8,0.8,0.8h6.5c0.4,0,0.8-0.4,0.8-0.8V67
		c1.2,0.9,2.7,1.4,4.3,1.4H43c1.3,0,2.5-0.3,3.6-1l18.9-10.9c1-0.6,1.6-1.6,1.6-2.8c0-1.8-1.4-3.2-3.2-3.2
		C63.3,50.6,62.7,50.7,62.2,51L62.2,51z M29.4,68.4h-4.8V53.9h4.8V68.4z M64.7,55.2L45.8,66.1C45,66.6,44,66.8,43,66.8h-7.7
		c-1.5,0-2.9-0.6-4-1.7L31,64.9v-8.1l4.6-2.5c1.3-0.7,2.8-0.9,4.2-0.5l10.7,2.9c0.9,0.2,1.4,1.1,1.2,2c-0.2,0.9-1.1,1.4-2,1.2
		c0,0,0,0-0.1,0l-7.1-1.9c-0.4-0.1-0.9,0.1-1,0.6c-0.1,0.4,0.1,0.9,0.6,1c0,0,7.6,2,7.9,2c1.8,0,3.2-1.4,3.2-3.1c0-0.1,0-0.1,0-0.2
		l9.7-5.6c0.8-0.4,1.7-0.2,2.2,0.6c0.1,0.2,0.2,0.5,0.2,0.8C65.5,54.4,65.2,54.9,64.7,55.2z"/>
	<path class="st1" d="M52,53.9c5.4,0,9.7-4.3,9.7-9.7s-4.3-9.7-9.7-9.7s-9.7,4.3-9.7,9.7C42.3,49.6,46.6,53.9,52,53.9z M52,36.1
		c4.5,0,8.1,3.6,8.1,8.1c0,4.5-3.6,8.1-8.1,8.1s-8.1-3.6-8.1-8.1C43.9,39.8,47.5,36.1,52,36.1z"/>
	<path class="st2" d="M35,32.1c-0.4,0-0.8-0.4-0.8-0.8s-0.4-0.8-0.8-0.8s-0.8,0.4-0.8,0.8c0,1,0.7,1.9,1.6,2.3v1
		c0,0.4,0.4,0.8,0.8,0.8s0.8-0.4,0.8-0.8v-1c1.3-0.4,1.9-1.8,1.5-3.1c-0.3-1-1.3-1.6-2.3-1.6c-0.4,0-0.8-0.4-0.8-0.8
		s0.4-0.8,0.8-0.8s0.8,0.4,0.8,0.8s0.4,0.8,0.8,0.8s0.8-0.4,0.8-0.8c0-1-0.7-1.9-1.6-2.3v-1c0-0.4-0.4-0.8-0.8-0.8s-0.8,0.4-0.8,0.8
		v1c-1.3,0.4-1.9,1.8-1.5,3.1c0.3,1,1.3,1.6,2.3,1.6c0.4,0,0.8,0.4,0.8,0.8S35.5,32.1,35,32.1z"/>
	<path class="st2" d="M35,37.8c4.5,0,8.1-3.6,8.1-8.1s-3.6-8.1-8.1-8.1S27,25.2,27,29.7C27,34.1,30.6,37.8,35,37.8z M35,23.2
		c3.6,0,6.5,2.9,6.5,6.5s-2.9,6.5-6.5,6.5s-6.5-2.9-6.5-6.5C28.6,26.1,31.5,23.2,35,23.2z"/>
	<path class="st1" d="M52,48.3c-0.9,0-1.6-0.7-1.6-1.6c0-0.4-0.4-0.8-0.8-0.8s-0.8,0.4-0.8,0.8c0,1.5,1,2.7,2.4,3.1v0.9
		c0,0.4,0.4,0.8,0.8,0.8s0.8-0.4,0.8-0.8v-0.9c1.7-0.4,2.8-2.2,2.3-3.9c-0.4-1.4-1.7-2.4-3.1-2.4c-0.9,0-1.6-0.7-1.6-1.6
		s0.7-1.6,1.6-1.6s1.6,0.7,1.6,1.6c0,0.4,0.4,0.8,0.8,0.8c0.4,0,0.8-0.4,0.8-0.8c0-1.5-1-2.7-2.4-3.1v-0.9c0-0.4-0.4-0.8-0.8-0.8
		s-0.8,0.4-0.8,0.8v0.9c-1.7,0.4-2.8,2.2-2.3,3.9C49.2,44,50.5,45,52,45c0.9,0,1.6,0.7,1.6,1.6C53.6,47.5,52.9,48.3,52,48.3z"/>
	<path class="st2" d="M64.1,21.6c-3.6,0-6.5,2.9-6.5,6.5s2.9,6.5,6.5,6.5c3.6,0,6.5-2.9,6.5-6.5C70.6,24.5,67.7,21.6,64.1,21.6z
		 M64.1,30.5c-0.4,0-0.8-0.4-0.8-0.8s-0.4-0.8-0.8-0.8c-0.4,0-0.8,0.4-0.8,0.8c0,1,0.7,1.9,1.6,2.3v0.9c-2.6-0.4-4.4-2.9-4-5.6
		c0.3-2,1.9-3.6,4-4v0.9c-1.3,0.4-1.9,1.8-1.5,3.1c0.3,1,1.3,1.6,2.3,1.6c0.4,0,0.8,0.4,0.8,0.8S64.5,30.5,64.1,30.5z M64.9,32.8V32
		c1.3-0.4,1.9-1.8,1.5-3.1c-0.3-1-1.3-1.6-2.3-1.6c-0.4,0-0.8-0.4-0.8-0.8s0.4-0.8,0.8-0.8c0.4,0,0.8,0.4,0.8,0.8s0.4,0.8,0.8,0.8
		c0.4,0,0.8-0.4,0.8-0.8c0-1-0.7-1.9-1.6-2.3v-0.9c2.6,0.4,4.4,2.9,4,5.6C68.5,30.9,66.9,32.5,64.9,32.8z"/>
</g>
</svg>
