<?xml version="1.0" encoding="utf-8"?>
<!-- Generator: Adobe Illustrator 24.0.0, SVG Export Plug-In . SVG Version: 6.00 Build 0)  -->
<svg version="1.1" id="Слой_1" xmlns="http://www.w3.org/2000/svg" xmlns:xlink="http://www.w3.org/1999/xlink" x="0px" y="0px"
	 width="52px" height="52px" viewBox="0 0 52 52" style="enable-background:new 0 0 52 52;" xml:space="preserve">
<style type="text/css">
	.st0{fill:#AC956B;}
	.st1{fill:#FFFFFF;}
</style>
<g>
	<circle class="st0" cx="25.5" cy="25.8" r="25"/>
	<g transform="translate(-1 -1)">
		<g>
			<g>
				<path class="st1" d="M36.9,34l-4.7-3.1c-0.6-0.4-1.4-0.3-1.8,0.3l-1.4,1.7c-0.2,0.2-0.5,0.3-0.7,0.2l-0.3-0.1
					c-0.9-0.5-1.9-1-4.1-3.2s-2.7-3.2-3.2-4.1l-0.1-0.3c-0.1-0.3-0.1-0.6,0.2-0.7l1.7-1.4c0.6-0.4,0.7-1.2,0.3-1.8l-3.1-4.7
					c-0.4-0.6-1.2-0.8-1.8-0.4L16,17.6c-0.6,0.4-1.1,0.9-1.3,1.6c-0.7,2.6-0.2,7,6.3,13.5c5.2,5.2,9,6.6,11.7,6.6
					c0.6,0,1.2-0.1,1.8-0.2c0.7-0.2,1.3-0.6,1.6-1.3l1.2-1.9C37.7,35.2,37.5,34.4,36.9,34z M36.7,35.4l-1.2,1.9
					c-0.3,0.4-0.7,0.8-1.2,0.9c-2.4,0.6-6.5,0.1-12.7-6.1s-6.8-10.4-6.1-12.7c0.1-0.5,0.5-0.9,0.9-1.2l1.9-1.2
					c0.3-0.2,0.6-0.1,0.8,0.2l1.7,2.5l1.4,2.1c0.2,0.3,0.1,0.6-0.1,0.8L20.4,24c-0.5,0.4-0.7,1.1-0.4,1.7l0.1,0.3
					c0.5,0.9,1.1,2,3.3,4.2c2.2,2.2,3.3,2.8,4.2,3.3l0.3,0.1c0.6,0.3,1.3,0.2,1.7-0.4l1.4-1.7c0.2-0.2,0.5-0.3,0.8-0.1l4.7,3.1
					C36.8,34.8,36.8,35.1,36.7,35.4z"/>
				<path class="st1" d="M27.6,20c3.6,0,6.5,2.9,6.5,6.5c0,0.2,0.2,0.4,0.4,0.4c0.2,0,0.4-0.2,0.4-0.4c0-4-3.3-7.3-7.3-7.3
					c-0.2,0-0.4,0.2-0.4,0.4S27.3,20,27.6,20z"/>
				<path class="st1" d="M27.6,22.3c2.3,0,4.2,1.9,4.2,4.2c0,0.2,0.2,0.4,0.4,0.4c0.2,0,0.4-0.2,0.4-0.4c0-2.8-2.2-5-5-5
					c-0.2,0-0.4,0.2-0.4,0.4C27.2,22.2,27.3,22.3,27.6,22.3z"/>
				<path class="st1" d="M27.6,24.6c1.1,0,1.9,0.9,1.9,1.9c0,0.2,0.2,0.4,0.4,0.4s0.4-0.2,0.4-0.4c0-1.5-1.2-2.7-2.7-2.7
					c-0.2,0-0.4,0.2-0.4,0.4C27.2,24.5,27.3,24.6,27.6,24.6z"/>
			</g>
		</g>
	</g>
</g>
</svg>
