<?xml version="1.0" encoding="utf-8"?>
<!-- Generator: Adobe Illustrator 24.0.0, SVG Export Plug-In . SVG Version: 6.00 Build 0)  -->
<svg version="1.1" id="Слой_1" xmlns="http://www.w3.org/2000/svg" xmlns:xlink="http://www.w3.org/1999/xlink" x="0px" y="0px"
	 width="99px" height="88px" viewBox="0 0 99 88" style="enable-background:new 0 0 99 88;" xml:space="preserve">
<style type="text/css">
	.st0{fill:#175DA1;}
</style>
<g>
	<path class="st0" d="M67.4,39.9c0-1.6,0-3.3,0-5c-0.7,0-1.4,0-2,0.2c-1.1,0.2-2.2-0.4-2.5-1.3c-0.3-1.1,0.2-2.4,1.2-2.8
		c0.7-0.2,1.5-0.4,2.2-0.4c1.3-0.1,2.5-0.1,3.8-0.1c0.5,0,1.1,0,1.6,0c1.1,0.1,2.1,0.2,3.1,0.4c0.8,0.2,1.2,0.9,1.4,1.7
		c0.2,0.8-0.2,1.5-0.8,2c-0.5,0.4-1.1,0.5-1.7,0.5c-0.7-0.1-1.3-0.1-2.1-0.2c0,0.9,0,1.7,0,2.6c0,0.8,0,1.6,0,2.4
		c3.5,0.4,6.6,1.7,9.4,3.9c1.2-1.2,2.3-2.4,3.5-3.5c-0.5-0.4-1.2-0.9-1.7-1.4c-1-0.9-1.1-2-0.2-3c0.8-0.9,2.1-1.1,3.1-0.2
		c1.4,1.2,2.9,2.3,4.1,3.6c1.1,1.1,2,2.4,2.9,3.7c0.6,1,0.1,2.2-0.9,2.7c-1.2,0.7-2.3,0.2-3-0.9c-0.3-0.5-0.7-0.9-1.1-1.4
		c-0.6,0.6-1.2,1.2-1.8,1.7c-0.6,0.6-1.1,1.2-1.7,1.9c2.1,2.6,3.4,5.8,3.8,9.3c1.6,0,3.2,0,5,0c-0.1-0.6-0.2-1.2-0.3-1.8
		c-0.2-1.2,0.5-2.5,1.8-2.8c1.3-0.3,2.5,0.8,2.6,2c0.2,2.1,0.3,4.2,0.4,6.3c0,1.2-0.2,2.4-0.4,3.6c-0.3,1.3-1.4,2-2.7,1.7
		c-1-0.2-1.9-1.8-1.6-2.8c0.2-0.5,0.2-1.1,0.3-1.7c-1.7,0-3.3,0-5,0c-0.5,3.5-1.8,6.7-3.9,9.4c1.2,1.2,2.3,2.4,3.5,3.6
		c0.4-0.6,0.9-1.2,1.3-1.8c0.5-0.6,1.9-1,2.5-0.7c1,0.5,1.7,1.8,1.4,2.7c-0.3,0.7-0.7,1.3-1.2,1.9c-0.5,0.6-1,1.2-1.5,1.7
		c-1.4,1.3-2.7,2.5-4.1,3.7c-0.4,0.3-0.8,0.5-1.3,0.7c-0.8,0.3-1.5,0-2-0.5c-1.3-1.3-1-2.4,0.2-3.5c0.5-0.4,1-0.8,1.7-1.2
		c-1.2-1.2-2.4-2.3-3.6-3.5c-2.8,2.2-5.9,3.5-9.4,3.9c0,1.6,0,3.3,0,5c0.7-0.1,1.3-0.2,2-0.3c0.8-0.1,1.4,0.2,1.9,0.7
		c0.6,0.6,0.8,1.3,0.5,2.1c-0.3,0.9-0.9,1.4-2,1.6c-2.3,0.5-4.6,0.3-6.8,0.3c-1.1,0-2.1-0.2-3.1-0.4c-0.9-0.2-1.7-1-1.6-2.3
		c0.1-0.9,0.6-1.5,1.5-1.9c0.9-0.4,1.6,0.2,2.4,0.1c0.2,0,0.4,0.1,0.6,0.1c0-1.7,0-3.3,0-5c-1.7-0.2-3.4-0.6-5-1.3
		c-1.5-0.8-3-1.6-4.5-2.4c-1,1.1-2.2,2.3-3.4,3.5c0.5,0.4,1.1,0.9,1.7,1.4c1.1,0.9,1.1,1.8,0.5,2.8c-0.6,0.9-1.9,1.4-3,0.7
		c-1.9-1.3-3.7-2.7-5.1-4.5c-0.7-0.9-1.4-1.8-2.1-2.7c-0.5-0.7-0.4-1.5-0.1-2.1c0.3-0.6,0.9-1.1,1.7-1.2c1.1-0.1,1.7,0.6,2.3,1.2
		c0.3,0.4,0.6,0.9,0.9,1.3c1.2-1.2,2.4-2.3,3.6-3.6c-2.1-2.7-3.5-5.9-3.9-9.5c-1.7,0-3.3,0-4.9,0c0.1,0.9,0.1,1.8,0.2,2.7
		c0,0.9-0.6,1.4-1.2,1.8c-0.6,0.3-1.2,0.3-1.9-0.1c-1.1-0.6-1.3-1.5-1.3-2.5c-0.1-1.4-0.3-2.8-0.3-4.2c0-1.5,0.1-3.1,0.4-4.6
		c0.2-1.5,1.5-2.5,3-2c0.7,0.2,1.5,1.2,1.4,1.9c0,0.4-0.1,0.8-0.1,1.2c0,0.4,0,0.8-0.1,1.2c1.6,0,3.2,0,4.9,0
		c0.5-3.4,1.7-6.6,3.9-9.3c-1.1-1.1-2.2-2.2-3.2-3.4c-0.3-0.4-0.4-0.2-0.5,0.1c-0.4,0.6-0.9,1.1-1.4,1.6c-0.8,1-2.3,0.8-3.1-0.2
		c-0.6-0.8-0.7-1.8,0.1-2.8c1.2-1.7,2.4-3.2,4-4.6c1-0.8,2.1-1.6,3.1-2.4c0.8-0.6,1.9-0.4,2.6,0.4c1.2,1.2,0.6,2.6-0.5,3.5
		c-0.4,0.3-0.8,0.5-1.2,0.8c-0.1,0.1-0.1,0.4,0,0.5c1.1,1.1,2.2,2.2,3.3,3.3C60.7,41.7,63.8,40.3,67.4,39.9z M65.4,72.4
		c2.9,0.9,5.8,0.9,8.6-0.2c0-0.4,0.1-0.7,0.2-1c0.2-1,1.7-1.2,2.3-0.6c0.3,0.4,0.7,0.3,1,0.1c1.9-1.4,3.5-3,4.7-5.1
		c-0.7-0.7-1-1.4-0.6-2c0.3-0.7,1-1,1.8-0.9c0.9-2.9,0.8-5.8-0.1-8.7c-1,0.3-1.7-0.3-2-1.1c-0.3-0.7,0.3-1.2,0.7-1.7
		c-1.3-2.2-3.1-3.9-5.3-5.1c-0.5,0.3-0.9,0.6-1.3,0.7c-0.8,0.2-1.7-0.7-1.8-1.6c0-0.2-0.2-0.5-0.3-0.5c-0.6-0.2-1.3-0.4-1.9-0.4
		c-2.1-0.1-4.2-0.1-6.3,0.7c0.1,0.8-0.2,1.5-0.9,1.8c-0.8,0.4-1.5,0.1-2-0.6c0,0.1-0.1,0.1-0.1,0.2c-2,1.2-3.5,2.9-4.8,4.7
		c-0.2,0.2-0.4,0.5,0.1,0.9c0.7,0.6,0.4,2.1-0.5,2.4c-0.3,0.1-0.7,0.1-1.2,0.1c-0.2,1.5-0.4,2.9-0.4,4.4c0,1.4,0.2,2.9,0.8,4.3
		c0.8-0.2,1.5,0.1,1.8,0.9c0.4,0.8,0,1.4-0.6,1.9c0.3,0.5,0.5,1,0.8,1.4c1.3,1.4,2.6,2.8,4.3,3.7c0.1,0.1,0.4,0,0.5-0.1
		c0.5-0.5,1.1-0.8,1.8-0.4C65.3,71,65.7,71.6,65.4,72.4z"/>
	<path class="st0" d="M67.4,13.5c-1.3-0.1-2.5-0.1-3.8-0.2c-1.3-0.1-2.6-0.4-3.9-0.6c-0.4-0.1-0.7,0-1.1-0.1
		c-0.9-0.1-1.7-0.3-2.6-0.4c-1.3-0.3-2.6-0.6-3.9-1c-0.8-0.2-1.6-0.3-2.3-0.5c-1.3-0.4-2.6-0.7-3.9-1.2C44.6,9,43.2,8.6,41.9,8
		c-1.7-0.7-3.3-1.6-4.9-2.4c-0.4-0.2-0.8-0.2-1.2,0c-1.5,0.7-3,1.5-4.5,2.2c-1.1,0.5-2.3,1-3.5,1.4c-1,0.4-2,0.6-3.1,0.9
		c-1.2,0.4-2.4,0.7-3.6,1c-1.3,0.3-2.6,0.6-3.9,0.8c-1.4,0.3-2.8,0.5-4.2,0.8c-2.3,0.5-4.6,0.8-6.9,0.7c-0.9,0-1,0.1-1,1
		c0,8,0,16.1,0,24.1c0,0.8-0.1,1.6,0,2.3c0.2,1.5,0.4,3.1,0.6,4.6c0,0.4,0.1,0.7,0.1,1.1c0.3,1.6,0.7,3.3,1.1,4.9
		c0.5,2.1,1.3,4.1,2.2,6.1c1.2,2.7,2.6,5.2,4.3,7.6c1.7,2.4,3.6,4.7,5.8,6.7c1.7,1.6,3.6,2.9,5.4,4.3c1.9,1.4,3.9,2.6,6.1,3.5
		c1.7,0.7,3.4,1.5,5.1,2.1c0.3,0.1,0.8,0,1.2-0.2c0.8-0.3,1.6-0.5,2.4-0.9c1.5-0.7,3-1.4,4.5-2.1c0.3-0.1,0.6-0.2,0.8-0.2
		c0.7,1.3,1.3,2.5,2,3.8c-1,0.5-2,1.1-3,1.6c-1,0.5-2,0.9-3,1.3c-0.9,0.4-1.9,0.7-2.8,1c-0.4,0.1-0.9,0.4-1.4,0.4
		c-0.8-0.1-1.6-0.3-2.4-0.5c-0.8-0.3-1.6-0.6-2.4-1c-1.3-0.5-2.6-1-3.8-1.7c-1.4-0.7-2.7-1.4-4-2.2c-2.4-1.5-4.7-3.1-6.7-5
		c-1.6-1.5-3.1-3-4.5-4.6c-1.3-1.4-2.3-3.1-3.5-4.6c-1.5-1.9-2.5-4-3.6-6.2C5,59.3,4.5,58,4.1,56.8c-0.6-1.5-1.1-3-1.5-4.6
		c-0.4-1.3-0.6-2.7-0.9-4.1c-0.2-1-0.5-2-0.5-3C1,43.5,1,41.9,1,40.2c0-9.7,0-19.4,0-29.1c0-1.1,0.9-1.9,1.9-1.9
		c2.2-0.1,4.4-0.2,6.7-0.4c1.4-0.1,2.8-0.5,4.2-0.7c0.9-0.1,1.8-0.3,2.6-0.4c0.9-0.2,1.9-0.5,2.8-0.7c1.5-0.4,3.1-0.7,4.6-1.2
		c1.9-0.6,3.8-1.3,5.6-2.1c1.7-0.7,3.3-1.5,5-2.4C35,1,35.5,0.5,36.2,0.5c1-0.1,1.6,0.6,2.3,1c0.9,0.5,1.8,1,2.7,1.4
		c1,0.5,2.1,1,3.2,1.4c1.2,0.5,2.4,0.9,3.6,1.3c1.6,0.5,3.2,1,4.8,1.5c0.8,0.2,1.7,0.3,2.5,0.5c0.9,0.2,1.8,0.4,2.7,0.6
		c1,0.2,1.9,0.3,2.9,0.4c1.1,0.1,2.2,0.3,3.3,0.4C66,9,67.9,9.2,69.7,9.2c1.2,0,2.1,1.1,2.1,2.1c0.1,1.4-0.1,2.8-0.1,4.1
		c0,0.7,0.1,1.5,0.1,2.2c0,2.9,0.1,5.8,0,8.7c0,1.3-1.2,2.3-2.6,2.1c-1-0.1-1.8-1.1-1.8-2.2c0-4.1,0-8.2,0-12.3
		C67.4,13.8,67.4,13.7,67.4,13.5z"/>
	<path class="st0" d="M54.7,24.8c-1.6-0.4-3.1-0.8-4.6-1.1c-0.8-0.2-1.6-0.3-2.4-0.5c-1.1-0.3-2.2-0.6-3.3-1
		c-1.3-0.4-2.6-0.7-3.8-1.2c-1.2-0.4-2.4-1-3.6-1.4c-0.4-0.1-0.9-0.1-1.3,0c-1.7,0.6-3.3,1.2-5,1.8c-1.1,0.4-2.1,0.8-3.2,1.1
		c-1.1,0.3-2.2,0.6-3.3,0.8c-1.1,0.3-2.2,0.5-3.2,0.8c-0.9,0.2-1.8,0.4-2.8,0.7c-0.1,0-0.2,0.4-0.2,0.5c0,1.7,0,3.5,0,5.2
		c0,2.9,0,5.8,0,8.7c0,1.3,0,2.6,0.1,3.8c0.1,1.1,0.4,2.3,0.6,3.4c0.3,1.1,0.5,2.2,0.9,3.3c1,2.5,2.1,4.9,3.6,7.2
		c1.4,2.1,3,4,4.8,5.7c1.5,1.5,3.2,2.7,5,3.9c0.9,0.6,1.9,1.1,2.9,1.6c0.7,0.4,1.2-0.2,1.8-0.5c0.8-0.4,1.5-1,2.5-1
		c0.9,0,1.8,0.7,2.1,1.6c0.3,1-0.2,2.1-1.1,2.5c-1.4,0.7-2.8,1.4-4.3,2.1c-0.7,0.4-1.4,0-2-0.3c-0.9-0.4-1.7-0.9-2.6-1.4
		c-1.1-0.7-2.3-1.3-3.3-2c-2.1-1.5-4.1-3.1-5.8-5c-1.8-2-3.5-4.2-4.8-6.6c-0.6-1.1-1.2-2.1-1.7-3.3c-0.5-1.1-0.9-2.3-1.3-3.5
		c-0.4-1.2-0.8-2.5-1.1-3.8c-0.2-1-0.3-2-0.5-3.1C13,37,13.7,30,13.5,23c0-1.4,0.9-2.1,2.4-2.4c1-0.2,2-0.4,3-0.6
		c0.9-0.2,1.9-0.3,2.8-0.5c0.9-0.2,1.7-0.4,2.6-0.7c1.8-0.5,3.7-1,5.4-1.6c1.8-0.6,3.5-1.4,5.3-2.1c1-0.4,1.9-0.4,2.9,0.2
		c0.9,0.6,2,0.8,3.1,1.2c1,0.4,2,0.8,3,1.1c1.1,0.3,2.2,0.6,3.3,0.9c1.2,0.3,2.3,0.7,3.5,1c0.9,0.2,1.8,0.4,2.6,0.6
		c0.9,0.2,1.8,0.4,2.8,0.6c0.6,0.1,1.2,0.2,1.8,0.4c0.7,0.3,1.2,0.9,1.2,1.7c0,2.8,0,5.5,0,8.3c0,1.3-1.5,2.2-2.7,1.8
		c-1.3-0.4-1.6-1.4-1.6-2.5c0-1.7,0-3.3,0-5C54.7,25.2,54.7,24.9,54.7,24.8z"/>
	<path class="st0" d="M69.5,61.7c-1.7,0.3-3.2-1.7-3.1-3.2c0.1-1.7,1.4-3,3.2-3c1.8,0,3.1,1.5,3.1,3.1
		C72.8,60.1,71.3,61.9,69.5,61.7z"/>
	<path class="st0" d="M75.5,55.2c-1.4,0.3-2.6-1.4-2.6-2.5c0-1.5,1.3-2.6,2.7-2.6c1.1,0,2.7,1.2,2.5,2.7
		C77.9,54.2,77,55.2,75.5,55.2z"/>
	<path class="st0" d="M63.6,55.2c-1.2,0.2-2.7-1.3-2.6-2.6c0.1-1.6,1.3-2.6,2.6-2.6c1.4,0,2.6,1.1,2.6,2.7
		C66.3,53.9,65,55.4,63.6,55.2z"/>
	<path class="st0" d="M78,64.5c0.1,1.5-1.2,2.6-2.6,2.6c-1.6-0.1-2.6-1.1-2.6-2.6c0-1.5,1-2.5,2.6-2.6C76.9,61.9,78.2,63.2,78,64.5z
		"/>
	<path class="st0" d="M66.3,64.5c-0.1,1.6-1.1,2.6-2.6,2.6c-1.5,0-2.6-1.1-2.6-2.6c0-1.3,1-2.5,2.3-2.5
		C65.2,61.9,66.3,63.2,66.3,64.5z"/>
	<path class="st0" d="M62,58.6c0,1.3-0.9,2.2-2.2,2.2c-1.3,0-2.3-1.2-2.2-2.2c0-1.3,1-2.2,2.3-2.3C60.9,56.3,62,57.3,62,58.6z"/>
	<path class="st0" d="M67.4,48.8c-0.2-1.1,1.1-2.2,2.2-2.2c1.4,0,2.2,1.1,2.2,2.2c0,1.1-1,2.2-2.2,2.3C68.6,51.1,67.2,50,67.4,48.8z
		"/>
	<path class="st0" d="M69.6,66.2c1.4-0.2,2.2,1.2,2.2,2.2c0,1-1.2,2.3-2.3,2.2c-1-0.1-2.3-0.9-2.2-2.2
		C67.5,67.1,68.3,66.2,69.6,66.2z"/>
	<path class="st0" d="M81.5,58.5c0,1.3-0.8,2.2-2.1,2.2c-1.3,0-2.2-1.1-2.3-2.2c-0.1-1.1,1.1-2.3,2.2-2.3
		C80.4,56.3,81.6,57.3,81.5,58.5z"/>
</g>
</svg>
