<?xml version="1.0" encoding="utf-8"?>
<!-- Generator: Adobe Illustrator 24.0.0, SVG Export Plug-In . SVG Version: 6.00 Build 0)  -->
<svg version="1.1" id="Слой_1" xmlns="http://www.w3.org/2000/svg" xmlns:xlink="http://www.w3.org/1999/xlink" x="0px" y="0px"
	 width="79px" height="78px" viewBox="0 0 79 78" style="enable-background:new 0 0 79 78;" xml:space="preserve">
<style type="text/css">
	.st0{fill:#0C3F70;stroke:#0C3F70;stroke-width:1.2;stroke-miterlimit:10;}
</style>
<g>
	<path class="st0" d="M53.1,59.7c2.3-0.5,4.7-0.9,7-1.4c2.9-0.7,5.8-1.7,8.8-2.3c5.5-1.2,8.1,2.8,8.2,7.3c0,1.9-1.7,2.6-3,3.3
		c-7.9,3.8-16.2,6.8-24.6,9.2c-4.1,1.2-8.3,1-12.3-0.2c-6.6-1.9-13.2-3.8-19.9-5.7c-1.6-0.5-2.1-0.1-2.1,1.5c0,1.1,0,2.3,0,3.4
		c0,1.2-0.6,1.9-1.9,1.9c-3.1,0-6.1,0-9.2,0c-1.4,0-2-0.7-2-2.1c0-10.9,0-21.8,0-32.7c0-1.4,0.8-2,2-2c3.1,0,6.2,0,9.4,0
		c1.2,0,1.8,0.6,1.7,1.9c-0.1,1.8,0,3.6,0,5.5c0,1.5,0.4,1.7,1.9,1.3c2.9-0.7,5.8-1.5,8.7-1.7c2.7-0.2,5.1,0.8,6.8,3.2
		c1.6,2.2,3.9,2.6,6.5,2.5c3-0.1,6-0.6,9,0.8C50.8,54.5,52.2,56.5,53.1,59.7z M42.3,66c-5.1-1.3-10.1-2.5-15.2-3.8
		c-1.1-0.3-2.1-0.8-1.7-2.2c0.4-1.4,1.6-1.3,2.8-1c4.4,1.2,8.9,2.4,13.3,3.5c0.6,0.2,1.4,0.1,2-0.1c1.6-0.5,3.1-1.3,4.7-1.7
		c1.5-0.4,1.2-1.2,0.8-2.2c-1-2.4-5.3-3.4-7.5-2.9c-4.9,1-9.2,0.2-12.4-4.1c-0.4-0.6-1.3-1-2.1-1.1c-3-0.7-5.9,0.2-8.8,1.1
		c-3,0.9-3.3,1.6-3.3,4.8c0,2.4,0.1,4.9,0,7.3c-0.1,1.6,0.5,2.5,2,2.9c1.2,0.4,2.4,0.9,3.7,1.2c5.7,1.6,11.5,3.1,17.2,4.7
		c3.9,1.1,7.8,1.1,11.6-0.2c2.5-0.9,5.1-1.5,7.5-2.4c5.3-2,10.5-4.1,15.7-6.3c0.4-0.2,0.8-1.2,0.7-1.8c-0.4-2.2-1.8-3-4.2-2.4
		c-3.5,0.9-7,1.9-10.6,2.7c-3.7,0.9-7.4,1.7-11.1,2.6C45.8,65,44.2,65.5,42.3,66z M11.8,43.1c-1.6,0-3.1,0.1-4.5,0
		c-1.7-0.2-2,0.5-2,2c0.1,7.8,0,15.7,0,23.5c0,5.5-0.9,4.5,4.8,4.6c1.3,0,1.8-0.4,1.8-1.8c-0.1-9,0-17.9,0-26.9
		C11.9,44.1,11.8,43.8,11.8,43.1z"/>
	<path class="st0" d="M77.5,17.3c-0.5,6.3-3,11.5-6.7,16.3C66.6,38.9,61.4,43,55.9,47c-2.3,1.7-3.9,0.2-5.6-1
		C44.9,42,39.8,37.7,36,32.2c-3.7-5.3-6.1-11.1-5.1-17.8c0.6-4,2-7.6,5.3-10.2C41.7-0.1,47,1,51.6,4.7C52,5,52.4,5.4,52.8,5.8
		c0.7,0.7,1.3,0.7,2.1-0.1c2.7-2.4,5.6-4.5,9.5-4.3c5.2,0.3,8.7,3.1,10.7,7.6C76.4,11.6,76.7,14.5,77.5,17.3z M34.1,15.5
		c-0.1,6.1,1.5,9.9,3.8,13.4c4,6.1,9.4,10.7,15.3,14.8c0.3,0.2,1.1,0.3,1.5,0c6.1-4.4,11.9-9.1,15.9-15.7c3.4-5.6,4.4-11.4,1.8-17.5
		C70,5.4,64.4,3,59.5,6.4c-1.5,1-2.8,2.3-4.2,3.4c-1,0.8-2,0.9-3,0c-1.2-1.1-2.4-2.2-3.7-3.2C45.2,4,40.9,4.3,38,7
		C35.1,9.9,34.1,13.4,34.1,15.5z"/>
</g>
</svg>
