<?xml version="1.0" encoding="utf-8"?>
<!-- Generator: Adobe Illustrator 24.0.0, SVG Export Plug-In . SVG Version: 6.00 Build 0)  -->
<svg version="1.1" id="Слой_1" xmlns="http://www.w3.org/2000/svg" xmlns:xlink="http://www.w3.org/1999/xlink" x="0px" y="0px"
	 width="83px" height="81px" viewBox="0 0 83 81" style="enable-background:new 0 0 83 81;" xml:space="preserve">
<style type="text/css">
	.st0{fill:#175DA1;}
</style>
<g>
	<path class="st0" d="M24.4,30.6c1.2-0.4,2.4-0.8,3.6-1.3c0.8-0.3,1.7-0.7,2.5-1c1.8-0.7,3.4-1.8,4.6-3.3c1.2-1.5,2.6-2.9,3.8-4.5
		c0.9-1.2,1.6-2.5,2.3-3.9c0.4-0.9,0.6-2,0.5-3.1c-0.1-1.9-0.3-3.8-0.3-5.7c0-1.7,0.5-3.3,1.6-4.7c0.9-1,2.1-1.6,3.5-1.7
		c0.9,0,1.9,0,2.8,0.1c1.5,0.2,2.8,0.8,4.1,1.7c1.8,1.3,3.1,2.9,4,4.9c0.5,1,0.8,2.1,1.1,3.2c0.8,2.6,0.9,5.2,0.9,7.8
		c0,2-0.2,3.9-0.4,5.9c-0.1,0.8-0.3,1.5-0.5,2.3c0.7,0,1.4,0,2.2,0c4.1,0,8.2,0,12.4,0c2.4,0,4.5,1.1,6.1,2.9
		c0.8,0.8,1.4,1.8,1.8,2.9c0.5,1.3,0.7,2.7,0.5,4.1c-0.1,0.9-0.3,1.8-0.7,2.6c-0.5,1.2-1.2,2.2-2.1,3c0.4,1.1,1,2.2,1.3,3.4
		c0.3,1.3,0.3,2.6-0.1,4c-0.5,1.8-1.4,3.3-2.7,4.6c0,0-0.1,0.1-0.1,0.1c-0.2,0.2-0.6,0.4-0.7,0.6c-0.1,0.2,0.2,0.5,0.3,0.8
		c0.5,1,0.7,2.1,0.7,3.2c0.1,1.2-0.1,2.3-0.5,3.4c-0.6,1.5-1.5,2.8-2.8,3.9c0.2,0.6,0.5,1.2,0.8,1.8c0.4,1.1,0.7,2.3,0.5,3.5
		c-0.1,0.9-0.3,1.9-0.7,2.8c-0.5,1.3-1.3,2.4-2.4,3.3c-0.8,0.7-1.7,1.3-2.7,1.7c-0.9,0.3-1.9,0.6-2.9,0.6c-7,0-14.1,0-21.1,0
		c-2,0-3.9-0.2-5.9-0.4c-1.3-0.1-2.5-0.4-3.8-0.6c-1.1-0.2-2.3-0.6-3.4-0.8c-0.8-0.2-1.6-0.3-2.4-0.4c-1.7-0.3-3.5-0.6-5.2-0.8
		c-0.1,0-0.4,0.1-0.5,0.2c-0.4,1-1.4,1.5-2.4,1.5c-4.1,0-8.1,0-12.2,0c-2.1,0-4.2,0-6.3,0c-1,0-1.8-0.5-2.3-1.3
		c-0.2-0.4-0.2-1-0.2-1.5C1,75.6,1,75,1,74.4c0-11.9,0-23.9,0-35.8c0-2.3,0-4.5,0-6.8c0-1,0.3-1.9,1.3-2.3c0.2-0.1,0.5-0.2,0.8-0.2
		c6.5,0,13,0,19.4,0C23.4,29.2,23.9,29.8,24.4,30.6z M24.6,72.4c0.1,0,0.1,0,0.1,0.1c1.9,0.2,3.8,0.5,5.7,0.8
		c1.3,0.2,2.6,0.6,3.9,0.8c1.3,0.3,2.5,0.5,3.8,0.7c1.1,0.2,2.3,0.4,3.4,0.5c2,0.2,3.9,0.3,5.9,0.3c6.1,0,12.1,0,18.2,0
		c1,0,2-0.1,2.9-0.6c0.9-0.5,1.5-1.2,1.8-2.2c0.5-2,0-3.6-1.8-4.8c-0.7-0.5-1-1.2-0.9-2c0.1-1,0.6-1.7,1.6-2.1c1-0.3,2-0.8,2.6-1.7
		c0.7-1,0.9-2.1,0.7-3.3c-0.2-1-0.8-1.8-1.6-2.5c-1.2-0.9-1.4-2.7-0.2-3.8c0.6-0.5,1.3-0.5,1.9-0.8c1.3-0.5,2.1-1.4,2.5-2.6
		c0.4-1.1,0.3-2.1-0.3-3.1c-0.4-0.6-1-1.2-1.6-1.7c-1.7-1.2-1.2-3.6,0.4-4.2c1-0.4,1.9-1,2.5-2c0.7-1.3,0.7-2.6,0-3.9
		c-0.8-1.5-2.1-2.2-3.8-2.2c-5.5,0-10.9,0-16.4,0c-0.6,0-1.1,0-1.6-0.2c-1.2-0.4-1.9-1.9-1.4-3.2c0.4-1.1,0.8-2.3,1.1-3.5
		c0.3-1.3,0.4-2.5,0.4-3.8c0.1-3,0.2-5.9-0.6-8.9c-0.3-1.2-0.7-2.4-1.4-3.5c-1.2-1.9-2.9-3-5.2-3c-0.3,0-0.6,0.1-0.6,0.4
		c-0.1,0.5-0.3,0.9-0.3,1.4c0,1.2,0.2,2.3,0.3,3.5c0.1,1.4,0.1,2.9-0.1,4.3c-0.2,1.3-0.6,2.6-1.1,3.8c-0.9,2-2.2,3.7-3.6,5.3
		c-1.1,1.3-2.3,2.4-3.3,3.8c-1.3,1.8-3.1,2.8-5,3.7c-1.1,0.5-2.2,1-3.3,1.4c-1.1,0.4-2.2,0.8-3.4,1.1c-0.7,0.2-1.4,0.5-2.2,0.7
		C24.6,47.9,24.6,60.2,24.6,72.4z M5.9,44.4c0,9.2,0,18.4,0,27.6c0,0.7,0,1.4,0,2.2c4.6,0,9.1,0,13.8,0c0-13.4,0-26.8,0-40.2
		c-4.7,0-9.2,0-13.8,0c0,1.7,0,3.3,0,4.9C5.9,40.4,5.9,44.1,5.9,44.4z"/>
</g>
</svg>
