<?xml version="1.0" encoding="utf-8"?>
<!-- Generator: Adobe Illustrator 24.0.0, SVG Export Plug-In . SVG Version: 6.00 Build 0)  -->
<svg version="1.1" id="Слой_1" xmlns="http://www.w3.org/2000/svg" xmlns:xlink="http://www.w3.org/1999/xlink" x="0px" y="0px"
	 width="68px" height="76px" viewBox="0 0 68 76" style="enable-background:new 0 0 68 76;" xml:space="preserve">
<style type="text/css">
	.st0{fill:#FFFFFF;}
</style>
<g>
	<g>
		<g>
			<path class="st0" d="M47.2,0.8c-0.8,0-1.4,0.7-1.4,1.5v6.7c0,0.8,0.6,1.5,1.4,1.5c0.8,0,1.4-0.7,1.4-1.5V2.3
				C48.7,1.5,48,0.8,47.2,0.8z"/>
		</g>
	</g>
	<g>
		<g>
			<path class="st0" d="M14.1,46.1c-0.8,0-1.4,0.7-1.4,1.5c0,0.8,0.6,1.5,1.4,1.5s1.4-0.7,1.4-1.5C15.6,46.8,14.9,46.1,14.1,46.1z"
				/>
		</g>
	</g>
	<g>
		<g>
			<path class="st0" d="M67.4,43.2c0-3.2-2.6-5.8-5.8-5.8H50.9c1.7-4.3,2.3-9.4,2.2-13.9c0-0.9-0.1-1.4-0.1-1.7
				c-0.1-3.1-2.6-5.7-5.8-5.7c-3.2,0-5.8,2.6-5.8,5.8v1.5c0,9.2-11.7,14.3-20.5,16.6c-0.7-1.5-2.2-2.6-4-2.6H2.6
				c-0.8,0-1.4,0.7-1.4,1.5v34.9c0,0.8,0.6,1.5,1.4,1.5H17c1.8,0,3.3-1.1,3.9-2.6c0.7,0.2,1.4,0.4,2,0.5c5,1.3,7.8,2.1,14.5,2.1H53
				c3.2,0,5.8-2.6,5.8-5.8c0-1.2-0.4-2.3-1-3.2c2.2-0.8,3.9-2.9,3.9-5.5c0-1.2-0.4-2.3-1-3.2c2.2-0.8,3.8-2.9,3.8-5.5
				c0-1.2-0.4-2.3-1-3.2C65.7,47.9,67.4,45.8,67.4,43.2z M18.4,70.8c0,0.8-0.6,1.5-1.4,1.5h-13v-32h13c0.8,0,1.4,0.7,1.4,1.5V70.8z
				 M61.6,46.1c-3.1,0-3.8,0-7.2,0c-0.8,0-1.4,0.7-1.4,1.5s0.6,1.5,1.4,1.5h4.3c1.6,0,2.9,1.3,2.9,2.9c0,1.6-1.3,2.9-2.9,2.9h-7.2
				c-0.8,0-1.4,0.7-1.4,1.5s0.6,1.5,1.4,1.5h4.3c1.6,0,2.9,1.3,2.9,2.9c0,1.6-1.3,2.9-2.9,2.9c-3.1,0-3.8,0-7.2,0
				c-0.8,0-1.4,0.7-1.4,1.5s0.6,1.5,1.4,1.5H53c1.6,0,2.9,1.3,2.9,2.9c0,1.6-1.3,2.9-2.9,2.9H37.5c-6.4,0-8.8-0.7-13.8-2
				c-0.7-0.2-1.5-0.4-2.4-0.6V42.9c10.4-2.5,23-8.6,23-19.5V22c0-1.6,1.3-2.9,2.9-2.9c1.6,0,2.9,1.3,2.9,2.9v0
				c0,0.6,0.8,8.4-2.3,15.4h-4.8c-0.8,0-1.4,0.7-1.4,1.5s0.6,1.5,1.4,1.5c1,0,17.1,0,18.7,0c1.6,0,2.9,1.3,2.9,2.9
				C64.5,44.8,63.2,46.1,61.6,46.1z"/>
		</g>
	</g>
	<g>
		<g>
			<path class="st0" d="M14.1,51.9c-0.8,0-1.4,0.7-1.4,1.5V65c0,0.8,0.6,1.5,1.4,1.5s1.4-0.7,1.4-1.5V53.4
				C15.6,52.6,14.9,51.9,14.1,51.9z"/>
		</g>
	</g>
	<g>
		<g>
			<path class="st0" d="M35.7,19.1H30c-0.8,0-1.4,0.7-1.4,1.5S29.2,22,30,22h5.8c0.8,0,1.4-0.7,1.4-1.5S36.5,19.1,35.7,19.1z"/>
		</g>
	</g>
	<g>
		<g>
			<path class="st0" d="M64.5,19.1h-5.8c-0.8,0-1.4,0.7-1.4,1.5s0.6,1.5,1.4,1.5h5.8c0.8,0,1.4-0.7,1.4-1.5S65.3,19.1,64.5,19.1z"/>
		</g>
	</g>
	<g>
		<g>
			<path class="st0" d="M60.5,7.2c-0.6-0.6-1.5-0.6-2,0l-4.1,4.1c-0.6,0.6-0.6,1.5,0,2.1c0.6,0.6,1.5,0.6,2,0l4.1-4.1
				C61,8.7,61,7.8,60.5,7.2z"/>
		</g>
	</g>
	<g>
		<g>
			<path class="st0" d="M40.1,11.3L36,7.2c-0.6-0.6-1.5-0.6-2,0c-0.6,0.6-0.6,1.5,0,2.1l4.1,4.1c0.6,0.6,1.5,0.6,2,0
				C40.7,12.8,40.7,11.9,40.1,11.3z"/>
		</g>
	</g>
</g>
</svg>
