<?xml version="1.0" encoding="utf-8"?>
<!-- Generator: Adobe Illustrator 24.0.0, SVG Export Plug-In . SVG Version: 6.00 Build 0)  -->
<svg version="1.1" id="Слой_1" xmlns="http://www.w3.org/2000/svg" xmlns:xlink="http://www.w3.org/1999/xlink" x="0px" y="0px"
	 width="328px" height="293px" viewBox="0 0 328 293" style="enable-background:new 0 0 328 293;" xml:space="preserve">
<style type="text/css">
	.st0{fill:#0A2D4F;}
	.st1{fill:#FFFFFF;}
</style>
<g>
	<polygon class="st0" points="178.8,1.3 1.2,275.7 327.6,292.3 	"/>
	<g>
		<path class="st1" d="M157.9,155.7c0-4.4,0-8.8,0-13.4c-1.7,0-3.4-0.1-5.1,0c-2.2,0.1-3.1-0.9-3.1-3c0-6.4,0-12.9,0-19.3
			c0-1.6,0.6-2.8,2.2-2.8c1.6,0,2.2,1.2,2.2,2.8c0,5.4,0,10.8,0,16.2c0,0.6,0,1.3,0,2.2c4.8,0,9.5,0,14.1,0c1.5,0,3.1,0,4.6,0
			c1.5,0,2.6,0.4,2.6,2.1c0,1.6-1.1,1.9-2.4,1.9c-3.4-0.1-6.8,0-10.4,0c0,4.5,0,8.9,0,13.5c3.7,0,7.3,0,11,0c1.5,0,2.8,0.1,2.8,2.1
			c0,1.9-1.4,2.2-2.8,2.3c-3,0.1-6,0-9.6,0c3.1,4.5,5.9,8.7,9,12.7c1.3,1.7,4.6,1,6-1.1c2.5-3.7,4.9-7.6,7-10.8
			c-0.6-1.6-1.6-3-1.3-3.6c0.6-1,2.1-1.4,3.7-2.4c0-3.3,0-7.4-0.1-11.4c0-0.5-0.9-0.9-1.2-1.5c-0.4-0.7-1.1-1.6-0.9-2.2
			c0.3-0.7,1.3-1.4,2-1.5c2.6-0.2,5.3-0.1,8.3-0.1c0-0.9,0-1.6,0-2.4c0-5.2,0-10.5,0-15.7c0-1.6,0.4-3.1,2.2-3.1
			c1.8,0,2.2,1.4,2.2,3c0,6.4,0,12.7,0,19.1c0,2.1-0.8,3.2-3,3c-1.7-0.1-3.3,0-5.1,0c0,4.6,0,8.9,0,13.4c0.6,0,1.1-0.1,1.5,0.1
			c0.9,0.5,1.8,1.2,2.7,1.8c-0.9,0.8-1.9,2.5-2.7,2.4c-2.5-0.2-3.5,1.3-4.6,3c-2.9,4.4-5.8,8.8-8.8,13.2c-0.3,0.4-0.5,1.1-0.8,1.1
			c-2.8,0.2-5.6,0.5-8.4,0.3c-1-0.1-2.1-1.3-2.8-2.3c-3-4.3-5.9-8.7-8.7-13.2c-0.8-1.3-1.7-2.2-3.4-1.9c-0.6,0.1-1.5-0.1-2-0.5
			c-0.5-0.5-1.1-1.5-1-2.1c0.1-0.6,1-1.3,1.7-1.6C156.3,155.6,157.1,155.8,157.9,155.7z"/>
		<path class="st1" d="M166.5,229.6c0.9-4.8,3.9-6.3,8.4-7c3.6-0.5,7.7,2,9,5.4c0.5,1.4,1.1,1.8,2.5,1.9c10.4,0.5,20.6,2.2,30.5,5.2
			c5.8,1.7,11.4,3.9,17.1,5.9c1.5,0.5,2.4,1.6,1.8,3.1c-0.6,1.4-2,1.4-3.5,0.8c-10.8-4.7-22.1-7.7-33.7-9.6
			c-10.6-1.7-21.3-2.1-31.9-1.4c-16.5,1.1-32.5,4.7-47.7,11.4c-1.4,0.6-3.2,1.2-3.9-0.8c-0.7-1.8,0.8-2.7,2.3-3.3
			c12-5,24.4-8.4,37.3-10.3C158.5,230.3,162.4,230,166.5,229.6z M179.7,229.3c-2.6-3.3-6.8-3.2-8.2,0
			C174.1,229.3,176.7,229.3,179.7,229.3z"/>
		<path class="st1" d="M177.4,185.6c0,10.5,0,20,0,29.6c0,1.5-0.1,2.7-2.1,2.7c-2,0-1.8-1.3-1.8-2.6c0-9.6,0-19.1,0-28.7
			c0-1.4,0.5-2.3,1.9-2C176.2,184.6,177.1,185.4,177.4,185.6z"/>
		<path class="st1" d="M146.1,225c-1.5,0-3.1,0.2-4.6-0.1c-0.9-0.2-1.6-1.1-2.4-1.7c0.7-0.8,1.3-2.3,2.1-2.4c3.3-0.3,6.6-0.3,9.9,0
			c0.7,0.1,1.4,1.4,2.1,2.2c-0.8,0.7-1.6,1.7-2.5,2C149.2,225.2,147.6,225,146.1,225z"/>
		<path class="st1" d="M214.7,225c-1.2,0-2.5,0.2-3.6-0.1c-0.9-0.2-2.1-1.1-2.2-1.8c-0.1-0.7,1-2.2,1.6-2.3c2.9-0.3,5.8-0.3,8.6,0
			c0.6,0,1.7,1.5,1.6,2.1c-0.1,0.8-1.2,1.8-2,2C217.5,225.2,216.1,225,214.7,225z"/>
		<path class="st1" d="M154.1,207.9c0,2.2-1.3,3.2-2.9,2.3c-2.4-1.3-4.7-2.7-6.8-4.3c-0.6-0.4-0.9-2.1-0.5-2.6
			c0.4-0.6,2-1.2,2.6-0.8c2.5,1.3,4.8,2.9,7.1,4.4C153.9,207.1,154,207.8,154.1,207.9z"/>
		<path class="st1" d="M203,208.7c-0.3,0.3-0.6,1.1-1.2,1.5c-2.1,1.3-4.1,2.7-6.3,3.7c-0.7,0.3-1.9-0.3-2.9-0.4
			c0.2-1.1,0.1-2.6,0.8-3.1c2-1.5,4.3-2.6,6.5-3.8C201.5,205.7,202.9,206.6,203,208.7z"/>
		<path class="st1" d="M202.4,226c-1.3-1.3-2.6-2-2.7-2.9c-0.3-1.7,1-2.8,2.7-2.4c1.1,0.3,2,1.4,3,2.1
			C204.6,223.7,203.7,224.6,202.4,226z"/>
		<path class="st1" d="M132.7,225c-1.7,0.1-2.8-0.4-2.8-2.2c0-1.7,1.2-2.1,2.6-2.1c1.6,0,2.7,0.7,2.7,2.3
			C135.2,224.4,134.2,225.2,132.7,225z"/>
		<path class="st1" d="M207.9,207c-1.1-1.2-2.3-1.9-2.3-2.5c0.1-0.8,1.1-2,1.8-2.1c0.7-0.1,2,0.9,2.2,1.7
			C209.7,204.8,208.7,205.7,207.9,207z"/>
		<path class="st1" d="M155.5,212.3c1.4-1.1,2.2-2.1,3-2.1c0.6,0,1.8,1.3,1.7,1.9c-0.1,0.8-1,2-1.8,2.1
			C157.8,214.3,156.9,213.3,155.5,212.3z"/>
	</g>
</g>
</svg>
