<?xml version="1.0" encoding="utf-8"?>
<!-- Generator: Adobe Illustrator 24.0.0, SVG Export Plug-In . SVG Version: 6.00 Build 0)  -->
<svg version="1.1" id="Слой_1" xmlns="http://www.w3.org/2000/svg" xmlns:xlink="http://www.w3.org/1999/xlink" x="0px" y="0px"
	 width="91px" height="138px" viewBox="0 0 91 138" style="enable-background:new 0 0 91 138;" xml:space="preserve">
<style type="text/css">
	.st0{fill-rule:evenodd;clip-rule:evenodd;fill:#FFFFFF;}
	.st1{fill:none;stroke:#FFFFFF;stroke-width:1.4173;stroke-miterlimit:22.9256;}
	.st2{fill:none;stroke:#FFFFFF;stroke-width:0.8504;stroke-linejoin:round;stroke-miterlimit:22.9256;}
</style>
<g>
	<path class="st0" d="M49.7,120.8c-0.2,4.7-0.6,8.9-1.5,10.8c-0.3,0.6-1.8,3.1-2.3,3.6l-0.3,0.2l0-14.4c-0.4,0-0.7,0-1.1-0.1l0,14.2
		c-1.1-1.2-2.6-3.1-3.1-5.6c-0.6-2.7-0.9-6-1-9.3c-0.3-0.1-0.6-0.2-0.9-0.2l0,4.6c0,0.7,0,1.3,0.2,2c0.4,2.2,0.5,3,1.4,5.2
		c0.7,1.6,1.8,2.9,2.9,4.4c0.5,0.7,0.8,1.1,1.5,1.1c0.4,0,1.9-2.1,2.2-2.5c0.8-1.2,1-1.3,1.7-2.7c0.5-1,0.8-1.9,1.1-3.1l0.5-3.4
		c0.1-1.1,0.1-2.9,0.1-5c0,0-0.1,0-0.1-0.1C50.5,120.6,50.2,120.7,49.7,120.8z"/>
	<path class="st0" d="M65.4,29L62.8,28c-0.6-0.2-1.2-0.5-1.8-0.7c-3.2-1.1-6.5-1.6-10.8-1.6c0-2.1-1.1-14.9-0.8-15.3
		c1.4-2,2.7-3.2,2.7-5.7c0-0.6-1.2-2-1.9-2.3C48.6,1.7,47.3,1,45.6,1c-2,0-3.5,0.7-4.2,1.1c-2.1,1.3-2.8,2.2-2.1,4.1
		c0.8,2.1,1.5,4.2,1.7,5.9c0-0.3,0-0.5,0-0.8l0-0.7c0,0.2,0,0.4,0,0.7l0,0.8c0.1,0.7,0.1,1.3,0,1.8l0-1.8c0,0,0,0,0-0.1
		c0,1.1-0.1,2.4-0.1,2.9l-0.2,6.7c-0.3,1-0.1,0.2,0,0.8c0.1,0.2-0.1,0.6-0.1,1v1.9c-3.7,0-6.2,0.4-9.4,1.4c-1.8,0.5-3.7,1.2-5.3,1.8
		c-0.4,0.2-1.3,0.5-1.3,1c0,0.4,4.8,3.6,5.2,3.7c0.9-0.5,2-1.4,4.3-2.4c1.1-0.5,1.2-0.6,2.5-0.9c1.1-0.3,1.6-0.2,3-0.2
		c0.8,0,0.7,0.1,0.9,0.8c0.2,0.8,0.2,1.5,0.1,2.3c0.4,0,0.8,0,1.2,0c0-0.9-0.2-1.9-0.3-2.5c1.8,0.2,2.4,1.1,3.3,1.3
		c0.6,0,1.7-1.2,4.5-1.4c-0.4,1.4-0.5,2.4-0.3,3.2c0.4,0.1,0.8,0.1,1.1,0.2c0-1.6,0.4-3.2,0.4-3.7c2.6,0,4.4,0.1,6.4,1
		c2.3,1,3.5,2.1,4.4,2.4c1.1-0.6,2.6-2.3,3.6-3C65.7,29.9,66.6,29.5,65.4,29z M46.1,1.8c2-0.1,4.2,2.2,4.4,2.7
		c0.6,1.2-1.4,4.5-2.2,5.4l-1.9-0.3c-0.4-0.1-1.1,0-1.6-0.1l0,0c-1.3,0.1-1.7,0.3-2.7,0.4C39.1,5.6,39.9,2.2,46.1,1.8z M48.5,12l0,1
		c-2,0-5.2-1.1-6.3-1.3l0-1L48.5,12z M43.4,10.3c1.2-0.5,1.5,0,1.9,0c0.8-0.3,1.1-0.3,2.8,0.2l0,0.7C47.2,11.2,43.9,10.5,43.4,10.3z
		 M45.3,13.3c1.1,0.3,2,0.4,3.2,0.6l0,1.1c-1.5,0-5.1-0.9-6.4-1.3l0-1.1C43.1,12.8,44.4,13.1,45.3,13.3z M48.6,16l0,0.9
		c-1.4,0-5.8-0.9-6.6-1.4l0-0.9C44.2,15,46.3,15.7,48.6,16z M45.3,17.2c1.2,0.3,2.1,0.4,3.4,0.6l0.1,1c-1.4,0-5.7-0.9-6.7-1.3l0-1
		C43.1,16.7,44.3,17,45.3,17.2z M48.8,19.9l0,0.9c-1.3,0-3.8-0.6-5.2-0.8L42,19.4l0-0.9L48.8,19.9z M45.9,21.2
		c3.2,0.6,3.2,0.2,2.9,1.4c-1.1,0.1-6.2-0.9-6.9-1.3l0-0.8C42.8,20.5,45,21,45.9,21.2z M48.9,23.5l0,1.1c-1.5,0-6-0.9-7-1.3l0-1
		C44.2,22.6,46.4,23.3,48.9,23.5z M49,25.6l0,0.7c-1.2,0.3-2,0.6-3.6,0.6c-1.9-0.1-2.3-0.3-3.5-0.7l0-1.8L49,25.6z M63.3,30.8
		c-0.5,0.3-1.3,1.4-1.6,1.8c-0.6-0.2-1.1-0.6-1.6-0.9c-2.9-1.5-2.7-1.5-5.9-2.3c-3.4-0.8-7.1-0.1-9.1,1.3c-1.2-0.4-3.4-2.8-8.9-1.4
		c-1.6,0.4-2.4,0.8-3.5,1.4c-1.4,0.6-2.6,1.5-3.3,1.9c-0.4-0.1-3.5-2.6-3.8-2.9c1.7-0.6,2-0.8,4.3-1.4c2-0.5,3.7-1.1,5.6-1.3
		c1.2-0.1,2.5-0.1,4,0c1.6-0.1,1.4,0,2.7,0.3c4.6,0.9,5.2-0.1,8.5-0.2c1.2-0.1,2.7-0.3,4.2-0.1c3.7,0.5,7.8,1.7,10,2.6
		C64.6,29.9,63.8,30.4,63.3,30.8z"/>
	<path class="st1" d="M45.6,34.4c23.4,0,42.4,19,42.4,42.4s-19,42.4-42.4,42.4s-42.4-19-42.4-42.4S22.2,34.4,45.6,34.4z M45.6,32.8
		c24.3,0,43.9,19.7,43.9,43.9c0,24.3-19.7,43.9-43.9,43.9c-24.3,0-43.9-19.7-43.9-43.9C1.6,52.5,21.3,32.8,45.6,32.8z"/>
	<path class="st0" d="M45.6,44.4c18.1,0,32.7,14.6,32.7,32.7c0,18.1-14.6,32.7-32.7,32.7c-18.1,0-32.7-14.6-32.7-32.7
		C12.9,59,27.5,44.4,45.6,44.4z M45.6,43.1c18.7,0,33.9,15.2,33.9,33.9c0,18.7-15.2,33.9-33.9,33.9c-18.7,0-33.9-15.2-33.9-33.9
		C11.6,58.3,26.8,43.1,45.6,43.1z"/>
	<path class="st2" d="M69.5,45.7l-2.6,0.7l-0.8,1.1l0.4,0.3l-0.2,0.3l-2-1.4l0.2-0.3l0.5,0.4l2.8-3.9l-0.5-0.4l0.2-0.3l2,1.4
		l-0.2,0.3l-0.4-0.3L67.1,46l2.6-0.7l0.5-0.7l-0.4-0.3L70,44l2,1.4l-0.2,0.3l-0.5-0.4l-2.8,3.9l0.5,0.4l-0.2,0.3l-2-1.4l0.2-0.3
		l0.4,0.3L69.5,45.7z M62.3,42.2l0.3,0.1l0.2-0.1c0,0,0.2-0.1,0.5-0.4c0.3-0.2,0.5-0.4,0.8-0.6c0.2-0.2,0.5-0.3,0.7-0.3
		c0.3-0.1,0.5,0,0.7,0.1c0.2,0.1,0.4,0.3,0.5,0.4c-0.2,0.2-0.3,0.3-0.4,0.4c-0.1,0.1-0.2,0.2-0.3,0.4l-0.1-0.1
		c-0.1-0.1-0.1-0.2-0.2-0.2c0-0.1-0.1-0.1-0.1-0.1c0,0-0.1-0.1-0.2-0.1c-0.1-0.1-0.3-0.1-0.4,0c-0.2,0-0.3,0.1-0.5,0.3
		c-0.2,0.1-0.5,0.3-0.9,0.6c0,0,0,0,0.1,0c0,0,0,0,0,0c0.2,0.2,0.3,0.3,0.5,0.5c0.1,0.2,0.3,0.4,0.4,0.6c0.1,0.3,0.2,0.6,0.1,0.9
		c0,0.4-0.1,0.8-0.4,1.2l0.4,0.2l-0.1,0.3l-1.9-1l0.1-0.3l0.3,0.1c0.1-0.2,0.2-0.3,0.2-0.4c0.1-0.3,0.2-0.5,0.3-0.7
		c0.1-0.2,0.1-0.4,0.1-0.6c0-0.2-0.1-0.4-0.2-0.6c-0.1-0.2-0.3-0.4-0.5-0.5l-1.1,2.2l0.4,0.2l-0.1,0.3l-2.1-1.1l0.1-0.3l0.6,0.3
		l2.2-4.3l-0.6-0.3l0.1-0.3l2.1,1.1l-0.1,0.3l-0.5-0.2L62.3,42.2z M58,39.7l-2.2,1.6l-0.4,1.3l0.5,0.1l-0.1,0.3l-2.3-0.7l0.1-0.3
		l0.6,0.2l1.3-4.6l-0.6-0.2l0.1-0.3l2.3,0.7l-0.1,0.3L56.7,38l-0.8,2.8l2.2-1.6l0.2-0.8l-0.5-0.1l0.1-0.3l2.3,0.7l-0.1,0.3l-0.6-0.2
		l-1.3,4.6l0.6,0.2l-0.1,0.3l-2.3-0.7l0.1-0.3l0.5,0.1L58,39.7z M49.9,38l-0.4,3.4l0.5,0.1l0,0.3l-2.4-0.3l0-0.3l0.6,0.1l0.6-4.8
		l-0.6-0.1l0-0.3l2.4,0.3l0,0.3L50,36.6l-0.1,0.8l1.5,2.3l0.4-2.9l-0.5-0.1l0-0.3l2.4,0.3l0,0.3L52.9,37l-0.6,4.8l0.6,0.1l0,0.3
		l-2.4-0.3l0-0.3l0.5,0.1l0.2-1.3L49.9,38z M43.6,41.3l-0.1-4.8l-0.3,0c0,0-0.1,0-0.1,0c0,0-0.1,0-0.1,0c-0.2,0-0.3,0.1-0.4,0.2
		c-0.1,0.1-0.2,0.3-0.3,0.7c0,0.1,0,0.2-0.1,0.3c0,0.2-0.1,0.3-0.1,0.3c0,0.1-0.1,0.1-0.2,0.1c-0.1,0-0.2-0.1-0.3-0.3
		c-0.1-0.2-0.2-0.4-0.2-0.7c-0.1-0.3-0.1-0.5-0.1-0.7c0-0.1,0-0.1,0.1-0.2c0.1-0.1,0.1-0.1,0.2-0.1c0.1,0,0.3,0,0.3,0
		c0.1,0,0.2,0,0.3,0c0.1,0,0.3,0,0.4,0c0.1,0,0.1,0,0.1,0c0,0,0.1,0,0.2,0l2.3-0.1c0.1,0,0.1,0,0.2,0c0,0,0.1,0,0.1,0
		c0.1,0,0.3,0,0.4,0c0.1,0,0.2,0,0.3-0.1c0.1,0,0.2,0,0.3-0.1c0.1,0,0.2,0,0.3,0.1c0.1,0.1,0.1,0.1,0.1,0.2c0,0.2,0,0.4-0.1,0.7
		c-0.1,0.3-0.1,0.5-0.2,0.7c-0.1,0.2-0.2,0.3-0.3,0.3c-0.1,0-0.1,0-0.1-0.1c0,0-0.1-0.1-0.1-0.3c0-0.1-0.1-0.3-0.1-0.4
		c-0.1-0.2-0.2-0.4-0.2-0.5c-0.1-0.1-0.2-0.2-0.3-0.2c-0.1,0-0.2,0-0.4,0l-0.3,0l0.1,4.8l0.6,0l0,0.3L43,41.6l0-0.3L43.6,41.3z
		 M38,39.2L37.5,38c-0.1,0.3-0.3,0.6-0.4,0.9c-0.1,0.3-0.2,0.7-0.3,1c-0.1,0.3-0.1,0.6-0.1,0.9l0,0.2c0,0.1,0.1,0.2,0.2,0.2
		c0.1,0.1,0.2,0.1,0.3,0.1c0.2,0,0.3-0.2,0.5-0.4c0.1-0.2,0.2-0.5,0.3-0.9C38,39.7,38.1,39.4,38,39.2z M37,37.2l-0.6,0.1l-0.1-0.3
		l2.4-0.4l0.1,0.3l-0.6,0.1l2.3,4.6l0.5-0.1l0.1,0.3l-2.3,0.4l-0.1-0.3l0.6-0.1l-0.9-1.9c0,0.3,0,0.6-0.1,0.9
		c-0.1,0.3-0.2,0.6-0.3,0.9c-0.1,0.3-0.3,0.5-0.4,0.7c-0.2,0.2-0.4,0.3-0.6,0.3c-0.3,0-0.5,0-0.7-0.1c-0.2-0.1-0.3-0.3-0.4-0.6
		c0-0.3,0-0.5,0-0.9c0-0.3,0.1-0.6,0.2-1c0.1-0.3,0.2-0.7,0.4-1c0-0.1,0.1-0.3,0.2-0.5c0.1-0.3,0.2-0.5,0.2-0.6c0-0.2,0-0.3,0-0.5
		C37.1,37.3,37.1,37.2,37,37.2z M32.2,41.4l0.3-0.8c0.1,0.1,0.2,0.1,0.3,0c0.1,0,0.2-0.1,0.3-0.3c0.1-0.2,0-0.4-0.1-0.8
		c-0.1-0.3-0.3-0.6-0.4-0.8c-0.2-0.2-0.4-0.2-0.6-0.2c-0.2,0.1-0.4,0.3-0.4,0.5c0,0.3,0.1,0.6,0.2,1l0.1,0.3L32.2,41.4z M32.4,41.8
		l0.6,1.7l0.6-0.2l0.1,0.3l-2.4,0.8l-0.1-0.3l0.6-0.2l-0.9-2.7c-0.1-0.2-0.1-0.4-0.2-0.6c-0.1-0.2-0.1-0.4-0.2-0.5
		c0-0.3,0.1-0.5,0.2-0.7c0.1-0.2,0.3-0.4,0.5-0.6c0.2-0.2,0.4-0.3,0.7-0.4c0.3-0.1,0.5-0.1,0.8-0.2c0.3,0,0.5,0,0.7,0.1
		c0.2,0.1,0.4,0.2,0.5,0.3c0.2,0.2,0.3,0.3,0.3,0.6c0.1,0.2,0.1,0.5,0.1,0.8c0,0.3-0.1,0.5-0.3,0.7c-0.1,0.2-0.3,0.3-0.6,0.4
		c-0.1,0-0.2,0-0.2,0.1c-0.1,0-0.1,0-0.2,0c-0.1,0-0.1,0-0.2,0c-0.1,0-0.2,0-0.3,0L32.4,41.8z M26.3,41.8c-0.2,0.1-0.3,0.3-0.3,0.4
		c-0.1,0.2-0.1,0.4-0.1,0.5c0,0.2,0,0.3,0.1,0.5c0.1,0.2,0.3,0.3,0.5,0.5c0.2,0.1,0.5,0.3,0.8,0.4c0.2,0.1,0.5,0.2,0.7,0.3
		c0.3,0.1,0.4,0.1,0.5,0.2c0.1,0,0.2,0.1,0.2,0.2c0.2-0.2,0.3-0.4,0.4-0.7c0.1-0.3,0.1-0.5,0-0.7L29,43.2c-0.1-0.2-0.3-0.3-0.5-0.4
		c-0.2-0.1-0.4-0.2-0.8-0.2c-0.3-0.1-0.6-0.2-0.8-0.3C26.7,42.2,26.5,42,26.3,41.8z M26.2,40.6c0.1-0.1,0.3-0.1,0.6,0
		c0.3,0.1,0.6,0.2,1,0.3c0.3,0.1,0.7,0.3,1,0.6c0.3,0.2,0.5,0.5,0.7,0.8c0.2,0.3,0.2,0.6,0.3,0.9c0,0.3,0,0.5-0.1,0.8
		c-0.1,0.3-0.2,0.7-0.4,1.2c-0.1,0.3-0.2,0.5-0.2,0.6c0,0.1-0.1,0.1-0.1,0.2c0,0-0.1,0-0.2,0c-0.1,0-0.3-0.1-0.6-0.1
		c-0.4-0.1-0.7-0.2-0.9-0.2c-0.2-0.1-0.4-0.1-0.6-0.2c-0.2-0.1-0.4-0.2-0.5-0.4c-0.2-0.2-0.3-0.4-0.4-0.6c-0.2-0.5-0.3-1-0.3-1.5
		c0.1-0.5,0.2-1,0.5-1.5c0-0.1,0.1-0.2,0.1-0.3c0-0.1,0.1-0.2,0.1-0.3C26.1,40.7,26.2,40.7,26.2,40.6z M24.4,44.2l-1.7,1.2l-0.2-0.3
		l0.3-0.2c-0.2-0.2-0.3-0.4-0.5-0.5c-0.2-0.1-0.3-0.2-0.4-0.2c-0.1,0-0.2,0-0.3,0c-0.1,0-0.2,0.1-0.3,0.1c-0.2,0.2-0.3,0.4-0.3,0.7
		c0,0.3,0.2,0.7,0.5,1.2c0.3,0.4,0.5,0.6,0.6,0.7c0.1,0.1,0.2,0.2,0.3,0.2c0.1,0,0.3,0.1,0.4,0.3c0.2,0.2,0.4,0.5,0.8,1
		c0,0.1,0.1,0.1,0.1,0.1c0,0,0,0.1,0,0.1c0,0,0,0.1,0.1,0.1c0,0,0.1,0,0.2-0.1c0.1-0.1,0.2-0.3,0.3-0.5c0.1-0.3,0.1-0.5,0-0.9
		c-0.1-0.3-0.2-0.6-0.4-0.9c-0.1-0.1-0.1-0.1-0.1-0.2l-0.3,0.2l-0.2-0.3L25,45l0.2,0.3l-0.3,0.2c0.2,0.3,0.3,0.6,0.3,0.9
		c0,0.3,0,0.7-0.1,1c-0.1,0.3-0.2,0.6-0.4,0.9c-0.2,0.3-0.4,0.5-0.6,0.6c-0.2,0.1-0.4,0.2-0.5,0.3L23.4,49c-0.1-0.1-0.2-0.2-0.3-0.3
		c-0.1-0.1-0.2-0.1-0.4-0.2c-0.1-0.1-0.3-0.1-0.4-0.1c-0.1,0-0.3-0.1-0.4-0.1c-0.4-0.1-0.7-0.3-0.9-0.4c-0.2-0.2-0.4-0.3-0.5-0.5
		c-0.3-0.4-0.4-0.8-0.5-1.2c0-0.4,0-0.8,0.2-1.2c0.2-0.4,0.5-0.7,0.8-1c0.4-0.3,0.8-0.4,1.1-0.5c0.4,0,0.7,0,0.9,0.1
		c0.3,0.1,0.5,0.3,0.7,0.5l0.3-0.2L24.4,44.2z"/>
	<g>
		<path class="st0" d="M77.5,56.1c-0.8,0.1-1.5-0.5-1.6-1.3c-0.1-0.8,0.5-1.5,1.3-1.6c0.8-0.1,1.5,0.5,1.6,1.3
			C78.9,55.4,78.3,56.1,77.5,56.1 M76.7,57.9c-1.4,0.1-2.6-0.9-2.7-2.3c-0.1-1.4,0.9-2.6,2.3-2.7c1.4-0.1,2.6,0.9,2.7,2.3
			C79.2,56.5,78.1,57.8,76.7,57.9z"/>
		<path class="st0" d="M83.7,71.2c-0.8,0.1-1.5-0.5-1.6-1.3c-0.1-0.8,0.5-1.5,1.3-1.6c0.8-0.1,1.5,0.5,1.6,1.3
			C85.1,70.5,84.5,71.2,83.7,71.2 M83,73c-1.4,0.1-2.6-0.9-2.7-2.3c-0.1-1.4,0.9-2.6,2.3-2.7c1.4-0.1,2.6,0.9,2.7,2.3
			C85.4,71.6,84.4,72.9,83,73z"/>
		<path class="st0" d="M83,87.6c-0.8,0.1-1.5-0.5-1.6-1.3c-0.1-0.8,0.5-1.5,1.3-1.6c0.8-0.1,1.5,0.5,1.6,1.3
			C84.4,86.8,83.8,87.5,83,87.6 M82.3,89.3c-1.4,0.1-2.6-0.9-2.7-2.3c-0.1-1.4,0.9-2.6,2.3-2.7c1.4-0.1,2.6,0.9,2.7,2.3
			C84.7,88,83.7,89.2,82.3,89.3z"/>
		<path class="st0" d="M75.5,102.1c-0.8,0.1-1.5-0.5-1.6-1.3c-0.1-0.8,0.5-1.5,1.3-1.6c0.8-0.1,1.5,0.5,1.6,1.3
			C76.9,101.3,76.3,102,75.5,102.1 M74.8,103.9c-1.4,0.1-2.6-0.9-2.7-2.3c-0.1-1.4,0.9-2.6,2.3-2.7c1.4-0.1,2.6,0.9,2.7,2.3
			C77.2,102.5,76.2,103.7,74.8,103.9z"/>
		<path class="st0" d="M62.5,112.1c-0.8,0.1-1.5-0.5-1.6-1.3c-0.1-0.8,0.5-1.5,1.3-1.6c0.8-0.1,1.5,0.5,1.6,1.3
			C63.9,111.3,63.3,112,62.5,112.1 M61.8,113.8c-1.4,0.1-2.6-0.9-2.7-2.3c-0.1-1.4,0.9-2.6,2.3-2.7c1.4-0.1,2.6,0.9,2.7,2.3
			C64.2,112.5,63.2,113.7,61.8,113.8z"/>
		<path class="st0" d="M46.5,115.6c-0.8,0.1-1.5-0.5-1.6-1.3c-0.1-0.8,0.5-1.5,1.3-1.6c0.8-0.1,1.5,0.5,1.6,1.3
			C48,114.8,47.4,115.6,46.5,115.6 M45.8,117.4c-1.4,0.1-2.6-0.9-2.7-2.3c-0.1-1.4,0.9-2.6,2.3-2.7c1.4-0.1,2.6,0.9,2.7,2.3
			C48.3,116,47.2,117.3,45.8,117.4z"/>
		<path class="st0" d="M30.6,112.1c-0.8,0.1-1.5-0.5-1.6-1.3c-0.1-0.8,0.5-1.5,1.3-1.6c0.8-0.1,1.5,0.5,1.6,1.3
			C32,111.3,31.4,112,30.6,112.1 M29.8,113.8c-1.4,0.1-2.6-0.9-2.7-2.3c-0.1-1.4,0.9-2.6,2.3-2.7c1.4-0.1,2.6,0.9,2.7,2.3
			C32.3,112.5,31.2,113.7,29.8,113.8z"/>
		<path class="st0" d="M17.6,102.1c-0.8,0.1-1.5-0.5-1.6-1.3c-0.1-0.8,0.5-1.5,1.3-1.6c0.8-0.1,1.5,0.5,1.6,1.3
			C19,101.4,18.4,102.1,17.6,102.1 M16.8,103.9c-1.4,0.1-2.6-0.9-2.7-2.3c-0.1-1.4,0.9-2.6,2.3-2.7c1.4-0.1,2.6,0.9,2.7,2.3
			C19.3,102.5,18.3,103.8,16.8,103.9z"/>
		<path class="st0" d="M10,87.6c-0.8,0.1-1.5-0.5-1.6-1.3c-0.1-0.8,0.5-1.5,1.3-1.6c0.8-0.1,1.5,0.5,1.6,1.3
			C11.4,86.9,10.8,87.6,10,87.6 M9.3,89.4c-1.4,0.1-2.6-0.9-2.7-2.3c-0.1-1.4,0.9-2.6,2.3-2.7c1.4-0.1,2.6,0.9,2.7,2.3
			C11.7,88,10.7,89.3,9.3,89.4z"/>
		<path class="st0" d="M9.3,71.3c-0.8,0.1-1.5-0.5-1.6-1.3c-0.1-0.8,0.5-1.5,1.3-1.6c0.8-0.1,1.5,0.5,1.6,1.3
			C10.7,70.5,10.1,71.2,9.3,71.3 M8.6,73c-1.4,0.1-2.6-0.9-2.7-2.3c-0.1-1.4,0.9-2.6,2.3-2.7c1.4-0.1,2.6,0.9,2.7,2.3
			C11,71.7,10,72.9,8.6,73z"/>
		<path class="st0" d="M15.6,56.2c-0.8,0.1-1.5-0.5-1.6-1.3c-0.1-0.8,0.5-1.5,1.3-1.6c0.8-0.1,1.5,0.5,1.6,1.3
			C17,55.4,16.4,56.1,15.6,56.2 M14.8,57.9c-1.4,0.1-2.6-0.9-2.7-2.3C12,54.2,13,53,14.4,52.8c1.4-0.1,2.6,0.9,2.7,2.3
			C17.3,56.6,16.2,57.8,14.8,57.9z"/>
	</g>
	<path class="st0" d="M30,92.9C30,92.9,30.2,93,30,92.9C30.1,92.7,30.2,92.8,30,92.9C30,92.8,30,92.8,30,92.9 M54.3,69.6
		c0.2,0,0.1,0,0.2-0.1L54.3,69.6z M54.2,71.5C54.2,71.5,54.3,71.5,54.2,71.5l0-0.1c0,0,0,0,0,0C54.2,71.4,54.1,71.4,54.2,71.5z
		 M62.1,85.7L62.1,85.7c0.2,0,0.1,0.1,0.2,0C62.2,85.7,62.3,85.6,62.1,85.7z M44.8,91.6c0.1-0.1,0.1,0,0-0.2c0,0,0,0,0,0
		C44.8,91.5,44.7,91.5,44.8,91.6C44.8,91.7,44.7,91.6,44.8,91.6z M30.1,73.4c0.2-0.1,0.1,0,0.1-0.1C30,73.4,30.2,73.3,30.1,73.4z
		 M55.2,91.4C55.2,91.5,55.3,91.4,55.2,91.4C55.2,91.4,55.2,91.2,55.2,91.4z M45.7,90.5c-0.1-0.2,0,0-0.1-0.1
		C45.6,90.5,45.5,90.4,45.7,90.5z M56.8,78.9C56.8,78.9,56.9,79,56.8,78.9C56.9,78.8,56.8,78.8,56.8,78.9z M33.3,96.9
		c-0.1-0.2,0-0.1-0.1-0.1C33.2,97,33.1,96.9,33.3,96.9z M45.4,94.5c-0.1-0.2,0-0.1-0.1-0.1C45.3,94.5,45.2,94.4,45.4,94.5z
		 M39.3,80.5L39.3,80.5c0.1,0,0.1,0,0.1,0C39.4,80.5,39.5,80.4,39.3,80.5C39.3,80.4,39.3,80.5,39.3,80.5z M56.8,82.4
		c0.3-0.2,0.1-0.2,0.1-0.2c0,0,0,0,0,0L56.8,82.4z M63.6,86.3C63.6,86.3,63.5,86.5,63.6,86.3c0.1-0.1,0.1,0,0.1-0.1
		C63.5,86.2,63.5,86.2,63.6,86.3z M61.3,91c0.1-0.2,0.1-0.1-0.1-0.2L61.3,91z M37.1,83.3c0-0.2,0-0.2-0.2-0.3L37.1,83.3z M38,89.9
		l0.1,0c0-0.1,0,0-0.1-0.1C38,89.8,38,89.7,38,89.9z M53.1,73.2c0.1,0,0.1,0.1,0.1-0.1C53.1,73.1,53,73,53.1,73.2z M53.8,75.8
		c0-0.2,0-0.1-0.1-0.2C53.7,75.7,53.6,75.7,53.8,75.8z M56.7,75.9l0-0.2C56.6,75.7,56.5,75.7,56.7,75.9z M54.1,75.8
		c0.1-0.1,0.1,0,0.1-0.2h-0.1L54.1,75.8z M31.7,66c0,0,0.1,0,0-0.2c-0.1,0.1-0.1-0.2,0,0.1C31.7,66.1,31.7,65.9,31.7,66z M63.2,91.1
		c0,0,0.1,0,0-0.2C63,91.1,63.2,91.1,63.2,91.1z M56.7,77.4c0.2,0,0.1,0,0.1-0.1C56.6,77.3,56.7,77.2,56.7,77.4z M41,91.3
		c0.2,0,0.2,0.1,0.2-0.2C41,91.2,41.1,91.1,41,91.3z M36.4,75l0.2,0c-0.1-0.2,0-0.1-0.1-0.1C36.5,74.9,36.5,74.9,36.4,75z M51.6,79
		c0,0.2-0.1,0.1,0.1,0.1C51.7,79,51.7,79,51.6,79z M62.2,95.3c0.1,0.2,0.2,0.1,0.2-0.1L62.2,95.3z M55.8,70.9c0-0.2,0-0.1-0.1-0.1
		C55.7,71,55.6,70.9,55.8,70.9z M47.4,87.9l-0.2-0.1c0,0.1-0.1,0.1,0,0.1C47.5,88.1,47.4,87.9,47.4,87.9z M30.1,73.8
		c0-0.3,0-0.1-0.1-0.2C29.9,73.9,30,73.8,30.1,73.8z M29.4,65c0.2,0,0.1,0,0.2-0.2C29.5,64.9,29.5,64.8,29.4,65z M29.4,48.5
		c0.2,0.2,0.1,0.1,0.2,0C29.5,48.4,29.5,48.4,29.4,48.5z M64.7,99.7c0.1,0.2-0.1,0.2,0.2,0.2C64.9,99.7,64.9,99.8,64.7,99.7z
		 M63.3,89.3c0,0,0.2,0.1,0-0.2c-0.1,0.1-0.1,0.1-0.1,0.1C63.2,89.4,63.3,89.3,63.3,89.3z M50.6,96.4l0-0.2c-0.1,0-0.1,0-0.1,0.1
		C50.5,96.5,50.5,96.4,50.6,96.4z M31.7,65.6c0,0,0.1,0.1,0.1-0.1c0-0.3,0-0.1-0.1-0.2C31.6,65.4,31.6,65.4,31.7,65.6z M56.4,78.5
		c0-0.2,0-0.2-0.2-0.2C56.2,78.4,56.2,78.4,56.4,78.5z M57.1,81c0.1,0,0,0,0.1-0.1c0.1-0.1,0.1-0.1,0.1-0.2
		C57.1,80.9,57.1,80.8,57.1,81z M45.4,82.2c0.1,0-0.1,0.1,0.1,0c0.1,0,0.1,0,0.1-0.1C45.4,82,45.5,82.2,45.4,82.2z M52.9,73.7
		l0.2-0.4C52.9,73.4,52.9,73.5,52.9,73.7z M39.3,85.5c0.1-0.1,0,0.1,0.1-0.1c0-0.3,0-0.1-0.1-0.2c-0.1,0.1-0.1-0.1-0.1,0.1
		C39.2,85.6,39.3,85.4,39.3,85.5z M51.2,74.1c0.1,0.1,0,0.1,0.2,0.1C51.4,74.1,51.2,74,51.2,74.1z M54.7,75.8
		C54.7,75.7,54.8,75.8,54.7,75.8c0-0.1,0-0.1,0-0.1l-0.2-0.1C54.5,75.7,54.5,75.7,54.7,75.8z M34.3,79.7c0.2-0.1,0.2,0,0.2-0.2
		C34.4,79.5,34.3,79.5,34.3,79.7z M53.1,75.6c0,0,0,0.1,0.1,0.1c0.1,0,0.2-0.1,0.2-0.1C53.2,75.5,53.2,75.5,53.1,75.6z M41.3,86.2
		c0,0,0.1,0,0.1-0.1c0-0.2,0-0.1-0.1-0.1C41.3,85.9,41.2,85.9,41.3,86.2z M41.5,90.8c0.2,0.1,0.2,0.1,0.3-0.1
		C41.6,90.7,41.5,90.7,41.5,90.8z M45.2,80.5c0-0.1,0,0.1,0-0.1c0-0.3,0-0.1,0-0.2C45.1,80.4,45,80.4,45.2,80.5z M33.4,83.4
		c0-0.2,0.1-0.2,0-0.4C33.3,83.2,33.3,83.3,33.4,83.4z M48.9,77.8c0-0.2,0-0.1,0-0.3c0,0-0.1,0.1-0.1,0.2
		C48.8,77.9,48.9,77.8,48.9,77.8z M31.2,70.1l0.3,0c0,0,0,0,0,0c0,0,0,0,0,0C31.4,69.9,31.3,70,31.2,70.1z M59.4,91.4
		c0,0.2,0,0.2,0.2,0.3c0-0.1,0-0.1-0.1-0.2C59.5,91.4,59.5,91.5,59.4,91.4z M30,69h0.2c0-0.1,0.1-0.1-0.1-0.2C30,68.9,30,68.9,30,69
		z M66.2,89.2c0.2-0.1,0.2-0.2-0.1-0.2C66.1,89.1,66.1,89.1,66.2,89.2z M60.3,90c0-0.3,0-0.2,0.1-0.4C60.2,89.7,60.1,89.7,60.3,90z
		 M54.2,76c0.2,0,0.2,0.1,0.3,0C54.4,75.9,54.3,75.8,54.2,76z M51.4,96.6c0.1-0.2,0.1-0.2,0-0.3c-0.1,0.1-0.1-0.1-0.1,0.2
		C51.3,96.7,51.4,96.6,51.4,96.6z M40.5,90.8c0,0,0,0.1,0.2,0c0.1,0,0.1-0.1,0.1-0.2L40.5,90.8z M55.7,92.8c0.1-0.1,0.1,0.1,0.1-0.1
		c0-0.1-0.1-0.1-0.2-0.1C55.6,92.8,55.5,92.7,55.7,92.8z M66.2,89.8c0-0.1,0-0.1,0-0.1c-0.1-0.2,0-0.1-0.2-0.1
		C65.9,89.7,66,89.7,66.2,89.8z M36.5,66.6c0.1,0,0.2,0,0.1-0.2c0-0.2,0-0.2-0.1-0.3L36.5,66.6z M31.1,72.3c0.1-0.1,0.1-0.1,0.1-0.2
		c0-0.3,0-0.1-0.1-0.2C31.1,72,30.8,72,31.1,72.3z M61.2,93.4c-0.1-0.2-0.2-0.2-0.3,0c0,0,0,0.1,0.1,0.1
		C61.3,93.5,61.2,93.4,61.2,93.4z M56.1,93.5c0,0,0.3,0.3,0.3,0.1c0-0.1,0-0.2-0.1-0.2C56.2,93.5,56.1,93.5,56.1,93.5z M35.5,58.3
		c0-0.1-0.1-0.2-0.2-0.3c0,0,0,0,0,0c0,0,0,0,0,0C35.2,58.3,35.3,58.3,35.5,58.3z M35.8,61.1c0,0.1,0,0.1,0.1,0.2
		c0.1,0.1,0,0,0.2,0.1C36,61.1,36,61.1,35.8,61.1z M53,67.3c0,0.1-0.1,0.1,0.1,0.1c0.2,0.1,0.2,0,0.2,0C53.3,67.4,53.3,67.1,53,67.3
		z M49.8,96.4c0.1-0.1,0-0.3,0-0.3c-0.1,0-0.1-0.1-0.2,0.1C49.6,96.4,49.7,96.3,49.8,96.4z M39.4,85.1c0-0.1,0-0.2,0-0.2
		c0-0.2,0.1,0,0-0.2c-0.1,0.1-0.1,0-0.1,0.2C39.2,85.2,39.2,85.1,39.4,85.1z M63.7,94.1c0.3,0,0.1,0,0.2-0.1
		c-0.1-0.1-0.1-0.2-0.3-0.2L63.7,94.1z M58.1,85.6c0.3-0.1,0.2,0,0.2-0.2l-0.2-0.1L58.1,85.6z M51.4,74.7c0.1-0.1,0.1,0,0.1-0.2
		c-0.1-0.3-0.1-0.1-0.2-0.1C51.1,74.6,51.2,74.6,51.4,74.7z M59.6,85c0.1,0,0.1,0.1,0.2,0c0.1-0.1,0-0.2,0-0.2
		C59.7,84.7,59.6,84.8,59.6,85z M32.3,71.7c0.1-0.2,0.1-0.4-0.1-0.5c0,0,0,0,0,0c-0.1-0.1,0-0.1-0.1-0.1L32.3,71.7z M51.7,77.5
		c0-0.5,0-0.2-0.1-0.4C51.3,77.6,51.7,77.5,51.7,77.5z M60.4,93c-0.2-0.1,0-0.1-0.1-0.1c0,0,0,0,0,0.1c0,0,0.1,0.1,0.1,0.1
		c0.1,0.1,0.1,0.1,0.3,0C60.5,93,60.7,93.2,60.4,93z M39.4,77.2c0-0.5-0.1-0.4-0.2-0.4C39.3,77.3,39.2,77.1,39.4,77.2z M62.1,86.6
		c0,0.2,0.1,0.2,0.3,0.1c-0.1-0.1-0.1-0.2-0.2-0.2C62.1,86.5,62.1,86.5,62.1,86.6z M30.1,51c0.6-0.2,0.5,0.1,0.5-0.2l-0.2-0.1
		c-0.1,0-0.2,0-0.2,0C30.1,51,30.1,50.9,30.1,51z M59,85.3c0.2,0,0.1,0.1,0.2-0.1c0.1-0.1,0.1-0.1,0.1-0.3c-0.2,0.1-0.1,0.1-0.2,0.2
		C59,85.2,58.9,85.1,59,85.3z M57.5,78.6c0-0.2,0-0.2-0.1-0.3c0,0,0,0,0,0l-0.2-0.1c0,0.3,0,0,0.2,0.2
		C57.4,78.6,57.3,78.6,57.5,78.6z M39.4,72.6C39.4,72.6,39.4,72.6,39.4,72.6l0.1-0.5c-0.1,0-0.1,0-0.2,0.2
		C39.3,72.6,39.3,72.5,39.4,72.6z M66.8,87.1c0.1,0.1,0.1,0.1,0.3,0.1c0-0.2,0-0.2-0.1-0.3C66.8,86.8,66.8,86.9,66.8,87.1z
		 M65.2,92.2l0.1,0c0.2,0,0.1,0.1,0.2,0c0.1,0-0.1-0.2-0.2-0.3C65.3,92,65.2,92.1,65.2,92.2z M50.9,92.5c-0.1-0.2-0.1-0.2-0.4-0.3
		C50.5,92.4,50.7,92.5,50.9,92.5z M37.8,86.4c0.1-0.1,0,0,0.1-0.1c0-0.1,0-0.1,0-0.2c0,0,0-0.1,0-0.1l-0.1-0.2
		c-0.2,0.1-0.2,0.1-0.1,0.3L37.8,86.4z M63.8,87.1c0.2,0,0.3,0.1,0.3-0.1c0-0.1-0.1-0.2-0.2-0.2C63.7,86.8,63.8,86.9,63.8,87.1z
		 M62.3,95c0.4,0.1,0.3,0,0.1-0.4c-0.1-0.2,0,0-0.1-0.1L62.3,95z M37.1,97c0.2,0,0.5,0,0.6-0.1c-0.1-0.1-0.1-0.1-0.3-0.1
		c-0.1,0-0.2,0-0.2,0C37,97,37.1,96.9,37.1,97z M49.8,90.8c0.1,0.2,0.3,0.4,0.5,0.3C50.2,90.8,49.8,90.7,49.8,90.8z M64.1,92
		c0.1-0.1,0.3-0.2,0.3-0.4C64,91.5,64,91.8,64.1,92z M28.6,50.8c0.1,0,0.2,0.1,0.3-0.2c0.1-0.2,0.1-0.2-0.2-0.2L28.6,50.8z
		 M35.7,59.2c0.3,0.7,0.6,0.3,0.2-0.1L35.7,59.2z M52.5,74.8c0.1-0.2,0,0,0.1-0.2c0-0.2,0-0.1,0.1-0.2c0.2-0.4,0-0.2,0.2-0.4
		c-0.2,0-0.3,0.3-0.4,0.6C52.4,74.8,52.3,74.7,52.5,74.8z M53.5,72.6c0.2-0.1,0.1,0,0.3-0.3c0,0,0.1-0.2,0.1-0.2
		c0.1-0.1,0.1-0.1,0-0.2C53.7,72.1,53.5,72.4,53.5,72.6z M36.2,72.6c0.3,0.1,0.6-0.1,0.6-0.4c-0.3,0-0.1,0-0.3,0.2
		C36.3,72.5,36.3,72.4,36.2,72.6z M61,94.5c0.1,0.1,0,0.1,0.3,0.1c0.3,0.1,0.3,0,0.3,0C61.6,94.3,61.1,94.4,61,94.5z M49.7,88.3
		c0,0,0.1,0,0.1-0.4c0-0.1,0-0.3-0.1-0.4c-0.1,0.1-0.1,0.1-0.1,0.4C49.6,88.2,49.6,88.2,49.7,88.3z M62.8,95.4l0.3-0.2
		C63,95,63,95,63,94.7h-0.1C62.9,95.1,62.7,95.1,62.8,95.4z M44,89.5c0.1,0.1,0.1,0.1,0.2,0.2c0.2,0.2,0.2,0.1,0.3,0.1
		c0-0.1-0.2-0.5-0.4-0.6L44,89.5z M56.5,74.2c0.3,0,0.2,0.1,0.4-0.1l-0.3-0.3C56.5,74,56.5,74,56.5,74.2z M45.6,72.9
		c-0.3,0-0.2-0.2-0.6-0.1c0.1,0.2,0,0.1,0.1,0.1c0,0,0.1,0,0.2,0.1c0.1,0.1,0.1,0.1,0.3,0.2L45.6,72.9z M41,84.8
		c0.1,0.1,0.1,0.2,0.1,0.4c0,0.2,0,0.1,0,0.3c0,0.1,0,0,0,0.2c0,0.1,0,0.1,0.1,0.1c0.1-0.2,0.1-0.2,0-0.3c0-0.3,0.2-0.4-0.1-0.6
		L41,84.8z M45,77.5l0.2,0.2c0.1-0.1,0.1-0.1,0.3-0.4C45.2,77.2,45.1,77.2,45,77.5z M44.3,93.9c0.1-0.1,0.1-0.2,0.1-0.4
		c0-0.6-0.1-0.4-0.1-0.5C44.3,93.3,44.2,93.6,44.3,93.9z M60.7,80.6c0.1,0.1,0.3,0.2,0.4,0.2c0,0,0.2,0,0-0.3c0,0-0.1-0.1-0.1-0.1
		c-0.1-0.1,0,0-0.1-0.1C60.8,80.6,61,80.5,60.7,80.6z M60,84.4c0.3,0,0.2,0,0.4,0.1c0-0.2,0,0-0.1-0.2c-0.3-0.4-0.2-0.4-0.3-0.7
		c0,0,0,0,0,0l0,0.1c0,0,0,0.2,0,0.2C59.8,84.2,59.9,84.2,60,84.4z M39.7,83.5C39.7,83.4,39.7,83.5,39.7,83.5l0.3-0.7
		c0.1-0.2,0-0.2-0.1-0.3l-0.2,0.5C39.7,83,39.6,83.3,39.7,83.5z M29.3,62.5c0.2,0,0.1,0,0.4-0.5c0.2-0.4,0.3-0.5,0.2-0.6
		c-0.4,0.4-0.1,0.3-0.3,0.5c-0.4,0.4,0,0.1-0.2,0.4C29.3,62.4,29.4,62.2,29.3,62.5z M35.2,94.6c0.1,0.2,0.2,0.3,0.4,0.3
		c0.3,0,0.4-0.1,0.4-0.3c-0.7,0.2-0.2,0-0.6-0.1C35.2,94.5,35.3,94.5,35.2,94.6z M55.7,91.8c0.1-0.1,0.6-0.7,0.6-0.8
		c-0.3,0-0.3,0.1-0.4,0.3C55.7,91.5,55.6,91.5,55.7,91.8z M44,89.5c-0.2-0.1-0.1-0.1-0.2-0.2c-0.1,0.1-0.1,0-0.1,0.2
		c-0.1-0.2-0.1-0.3-0.3-0.4c0,0.6,0-0.2,0.2,0.5c0,0,0.1,0.1,0.1,0.2c0.2-0.1,0,0,0.2-0.2C44,89.7,44,90,44,89.5z M56.2,88.1
		c0,0.2,0,0.3,0.1,0.3c0.1,0.1,0.2,0.1,0.3,0c0,0,0.4-0.4,0-0.5C56.5,88.1,56.7,88.4,56.2,88.1z M56.7,87.2
		c-0.2,0.1-0.2,0.2-0.4,0.4c-0.3,0.4-0.1,0.6,0.2,0.2c0.4-0.6,0.2-0.2,0.4-0.4c0-0.1,0.1-0.1,0-0.1C56.6,87.1,56.7,87.2,56.7,87.2z
		 M55.1,80.9c0.1,0.1,0.7,0.1,1,0.2c0.2,0.1,0,0.1,0.3,0.1c0.1-0.4-0.2-0.3-0.5-0.3c-0.1-0.2-0.1-0.1-0.4-0.2
		C55.3,80.8,55.2,80.7,55.1,80.9z M39.9,82.4L39.9,81c-0.3,0.2-0.2,0.8-0.1,1.1C39.8,82.3,39.7,82.3,39.9,82.4z M60.8,81.8
		c0.5,0.1,0.4-0.2,1.3,0.1c0-0.4-0.3-0.3-0.6-0.2l-0.2-0.2C60.9,81.5,60.8,81.5,60.8,81.8z M42.2,94.9c-0.2,0-0.1-0.1-0.4-0.1
		c0,0.3,0.1,0.4,0.5,0.3c0.2,0,0.3-0.2,0.4-0.4c-0.1-0.2-0.1-0.2-0.2-0.2C42.3,94.7,42.5,94.7,42.2,94.9z M54.3,94
		c0.4,0,0.3-0.2,0.4-0.5c-0.2-0.1-0.4-0.3-0.7-0.3c-0.1,0.1-0.1,0.1-0.1,0.2l0.4,0.1C54.4,93.8,54.3,93.7,54.3,94z M45.4,89.6
		c-1.1-0.1-0.7-0.4-0.9-0.5c-0.1,0.2,0,0.4,0.2,0.7c0.1,0.1,0.1,0.1,0.4,0.1C45.3,89.8,45.4,89.8,45.4,89.6z M57.6,93.9
		c0-0.3,0-0.3-0.1-0.6l-0.3,0c-0.1,0.2,0,0.2,0.1,0.4c-0.2,0.1-0.4,0.1-0.4,0.3c0,0.1,0.2,0.1,0.4,0.1C57.5,93.9,57.4,94,57.6,93.9z
		 M48,90.2L48,90.2c0.4,0.3,0.5,0.2,0.8,0.4l0.2-0.1c0.2,0.1,0.4,0.3,0.6,0.4c0-0.2-0.1-0.3-0.3-0.4l-0.1,0
		c-0.4-0.2,0.1,0.1-0.9-0.2C48.1,90.1,48.1,90.1,48,90.2z M44.3,70.7c0.2,0,0.3,0.2,0.3,0c0-0.1,0,0-0.3-0.2c-0.2,0.2,0,0.1-0.3,0.2
		c-0.3-0.2,0.1-0.1-0.2-0.3C43.3,70.4,43.8,71.2,44.3,70.7z M38.6,83c0.5-0.2,0.9-1.4,0.9-1.8c0-0.3,0-0.2-0.1-0.3
		c-0.3,0.2,0-0.2-0.2,0.5c-0.1,0.2-0.1,0.8-0.4,1.1C38.7,82.8,38.7,82.8,38.6,83z M32.9,86.1c0-0.4-0.1,0-0.6-0.6c0,0,0,0,0,0
		c-0.4-0.5-0.1-0.9,0-1.4c-0.3-0.2-0.3,0-0.4,0.4c-0.2,0.7-0.2,0.7,0.4,1.3C32.4,85.9,32.4,86.1,32.9,86.1z M45.6,72.9
		c0.1,0,0.1,0,0.2,0.1c0.1,0.2-0.1,0.1-0.2,0.4l0,0.1c0,0,0,0,0,0c-0.3-0.2-0.1-0.2-0.3-0.3c-0.2,0-0.2,0.3-0.3,0
		c-0.1-0.2,0-0.3-0.3-0.4c0,0.5,0,0.8,0.1,1.2c0.4,0.1,0.5,0,0.8,0c-0.1-0.2,0,0-0.2-0.2l0.3-0.1c0-0.2,0-0.3,0.2-0.4
		c0,0.1,0,0.5,0,0.7l0.2,0c0-0.1,0.1-1.1-0.1-1.2C45.7,72.6,45.6,72.8,45.6,72.9z M44.8,73.7c0-0.1,0-0.1,0.1-0.2
		C45.4,73.7,44.8,74.1,44.8,73.7z M35.4,69.1c-0.1-0.2-0.1-0.1-0.3-0.2c-0.2-0.2-0.1-0.2-0.2-0.4l-0.4-1.2c0-0.1,0-0.1,0-0.2l-0.4-1
		c0,0.3,0,0.2,0.1,0.5c0.1,0.2,0,0.3,0,0.5c0,0.2,0.1,0.2,0.1,0.4c0,1.1-0.2,0.9,0.4,1.4c0.1,0.1,0,0,0.1,0.1
		C35,69.2,35.2,69.2,35.4,69.1z M47.3,91.4C47.3,91.3,47.3,91.4,47.3,91.4c0-0.2,0-0.1,0.1-0.2c0.1,0,0.8,0.7,1,0.7l0-0.2
		c0.3,0.2,0.4,0.3,0.6,0.4c0.5,0.3,0.5,0.1,0.7,0.1c0.1,0.1,0.2,0.1,0.3,0.2c0.2,0.1,0.2,0.2,0.5,0.2c0-0.2,0-0.1-0.1-0.2
		c0,0-0.1-0.1-0.1-0.1c-0.2-0.2-0.8-0.5-1-0.5l0,0.1c0,0,0.1,0.1,0,0.2l-0.2-0.1c0,0,0,0,0-0.1c-0.1-0.1-0.7-0.6-1-0.5
		c-0.2,0.1,0.1,0-0.2,0.1c-0.1-0.2-0.5-0.5-0.7-0.5c-0.2,0-0.2,0-0.2,0.1c0,0,0,0,0,0c-0.2-0.2-0.3-0.2-0.4-0.4
		c-0.2-0.2-0.5-0.2-0.2,0.1C46.6,91,47,91.2,47.3,91.4z M40.4,75.7c0.2-0.2,0-0.5,0.1-1.2c0.1-0.3,0-0.1-0.1-0.3
		c0-0.2,0.1-0.3,0.1-0.7c0.1-0.3,0.2-0.4-0.1-0.6c-0.1,0.2-0.1,0.2-0.1,0.7l-0.2,0.7c-0.3-0.4,0.2-1.4,0-1.6
		c-0.3,0.3-0.1,0.3-0.2,0.8c0,0.1,0,0-0.1,0.1c-0.3-0.6,0.3-1.2-0.1-1c-0.1,0-0.1,0.1-0.1,0.2c-0.2,0.4-0.1,0.9,0.1,1.3
		c0.1,0.2,0,0,0.1,0.2c0.1,0.2,0.1,0.3,0.1,0.5c0,0.2,0.1,0.3,0.2,0.5C40.3,75.3,40.3,75.5,40.4,75.7z M44.7,76.7
		c0.5,0.2,0.7-0.2,0.7-0.1l0-0.2c0-0.1,0,0,0-0.2c0-0.2,0-0.3-0.1-0.4c-0.3,0-0.2,0-0.4,0.1c0-0.3,0.2-0.2,0.5-0.5
		c0.2-0.1,0.1,0,0.3-0.1c0-0.1-0.1-0.5,0.1-0.3c0,0,0.1,0.5,0.1,0.6c-0.1,0.1-0.2,0-0.3,0.2c-0.1,0.1-0.1,0.3,0,0.4
		c0.3-0.1,0,0,0.1-0.1c0.1-0.1-0.1,0,0.1-0.1c0.1,0.2,0.1,0.3,0.1,0.5c-0.1,0.2-0.1,0.1-0.3,0.2c0.1,0.4,0.4,0.2,0.5,0.1
		c0.2-0.2,0-2,0-2.3c-0.3-0.2-0.4-0.2-0.8-0.2c-0.9,0.1-0.4,0.2-0.5,1C44.7,75.5,44.6,76.3,44.7,76.7z M45.2,74.6
		c-0.1-0.1-0.2,0-0.3-0.1c0-0.2,0.4-0.2,0.7-0.2c0.2,0,0.2,0.1,0.2,0.2c0,0.1-0.2,0.2-0.3,0.3C45.4,74.8,45.3,74.7,45.2,74.6z
		 M44.9,75.5c0-0.2,0-0.2,0-0.3l0.1-0.2l0.1,0.4C45.1,75.4,45,75.4,44.9,75.5z M45,76.5c-0.1-0.2-0.2-0.5,0.2-0.5c0,0.3,0,0-0.1,0.3
		C45,76.4,45.1,76.4,45,76.5z M44.9,77.2c0.2-0.1,0.1,0,0.2-0.2c-0.1-0.1-0.2,0-0.4-0.1c0,0.2-0.1,0.2-0.1,0.4l0.1,2
		c0,1.4,0.1,0.7,0.1,1.5c0.4,0,0,0,0.3-0.2c0.1,0.1,0.2,0.2,0.2,0.3l0.4-0.2c0.3-0.3-0.2,0.1,0.1-0.1c0.1,0.1,0.1,0.1,0.2,0.1
		l0.1-0.2c0,0,0,0,0,0c0.2-0.3,0.1-0.1,0-0.4c-0.1-0.2,0-0.1,0-0.2c-0.1-0.5-0.1,0,0-0.3c0.1-0.4,0-0.1,0-0.4
		c-0.1-0.5,0.1-0.5,0.1-0.8c0-0.1,0,0-0.1-0.2c0-0.3,0.1-1.3-0.4-1.3c-0.3,0-0.3,0-0.3,0.2l0.4,0.1c-0.2,0.2-0.2,0.1-0.2,0.5
		c0,0.3,0.1,0.3,0.3,0.4c0.2,0.2,0.2,0.3,0.2,0.5c0,0.3,0.1,0.6-0.2,0.6c-0.1,0-0.1,0-0.1,0c-0.2-0.2,0.1-0.4,0.2-0.6
		c-0.1-0.2-0.1,0-0.2-0.2c-0.1-0.2,0-0.2-0.1-0.3c-0.1,0.3,0.1,0.2-0.1,0.4c0,0-0.2,0.2-0.3,0.2l0-0.4c0.2-0.1,0.4-0.1,0.4-0.4
		c-0.3,0-0.1,0.1-0.4,0.1C44.9,77.7,44.9,77.5,44.9,77.2z M45.7,77.8c0.1-0.2,0-0.1,0.2-0.1l-0.1,0.3L45.7,77.8z M45,79
		c0.1-0.1,0.1,0,0.2-0.1c0.2-0.1,0.1-0.1,0.3-0.2c0.1,0.5-0.1,0.1-0.1,0.4c0,0.2,0.1,0.3,0.1,0.5c0.2,0,0.3-0.1,0.4,0
		c0.1,0.1,0,0.3,0,0.3c-0.5,0-0.1-0.2-0.4-0.2c-0.1,0.1-0.1,0,0,0.2c0,0.1,0.1,0.2,0.1,0.2c0,0.1,0,0.2-0.1,0.4
		c-0.1,0.1,0,0-0.1,0.1c-0.1-0.2,0.1-0.4-0.1-0.6c0,0-0.5,0.3-0.3-0.1c0.1-0.3,0.2-0.1,0.4-0.5c-0.2,0-0.2,0.1-0.4,0.2L45,79z
		 M45.2,80.4c0,0.2,0,0,0,0.1c-0.2-0.1-0.1-0.2,0-0.3C45.2,80.4,45.2,80.1,45.2,80.4z M57.5,89.9c0,0.9,0.1,1.9,0.8,2.5
		c0.5,0.5,0.1,0.3,1,0.8c0.1,0,0.2,0.1,0.2,0.1c0.8,0.4,1.3,0.3,1.8,0.4c0.3,0.1-0.1,0,0.5-0.1c0.9-0.1,1.9-0.7,2.4-1.4
		c0.2-0.3,0.4-0.6,0.6-0.9l0.2-0.3c0.1-0.2,0.1-0.4,0.2-0.7c0.2-0.5,0.1-0.8,0.1-1.3l-0.1-1c0-0.1-0.1-0.1-0.1-0.3
		c-0.2-0.6,0.1-0.4-0.4-1.1c-0.4-0.6-1.2-1.4-1.9-1.5c-0.3,0-0.1,0-0.3-0.1c-0.2-0.1-0.1,0-0.3,0c-0.1,0-0.1-0.1-0.3-0.1
		c-0.2,0-0.2,0.1-0.4,0.1c-0.5,0-0.2,0-0.9,0.2c-0.2,0.1,0,0-0.2,0.1c-0.1,0-0.2,0-0.3,0.1c-0.9,0.2-1.4,1.1-1.9,1.6l-0.6,1.1
		c0,0.1,0,0.1-0.1,0.2c0,0,0,0,0,0c0,0,0,0,0,0C57.6,89,57.5,89.6,57.5,89.9z M61.3,86.3c-0.6-0.1-0.3-0.7,0.3-0.6
		c-0.1,0.5,0,0.3-0.3,0.3C61.2,86.2,61.2,86.1,61.3,86.3z M62.1,85.7c0.2-0.1,0.1,0,0.2,0C62.2,85.8,62.3,85.7,62.1,85.7L62.1,85.7z
		 M62.5,85.8c0.1-0.1,0.3-0.2,0.4,0c-0.1,0.1-0.1,0.1-0.3,0.1c0,0.4,0.1,0,0.2,0.4C62.4,86.5,62.5,86.2,62.5,85.8z M60.3,85.9
		c0.1,0,0.3-0.1,0.4-0.1l0,0.5l-0.2-0.2C60.4,86,60.4,86.1,60.3,85.9z M61.8,86.6c-0.4-0.1-0.1,0-0.1-0.7c0.3,0.1,0.2,0.3,0.2,0.5
		C61.9,86.6,62,86.5,61.8,86.6z M63.6,86.3C63.5,86.5,63.6,86.3,63.6,86.3c-0.1-0.1-0.1-0.1,0-0.1C63.6,86.3,63.7,86.2,63.6,86.3z
		 M62.8,86.7c0.1-0.1,0.1-0.1,0.2-0.2l0.2-0.1c0,0.1,0,0,0,0.2l-0.1,0.2L62.8,86.7z M62.4,86.7c-0.2,0.1-0.3,0.1-0.3-0.1
		c0-0.1,0-0.1,0.1-0.1C62.4,86.5,62.4,86.6,62.4,86.7z M59.8,86.2c0.2,0,0.1,0,0.2,0c0.2,0-0.1,0,0.1,0c0,0,0,0,0,0
		c0.4,0.1,0.3,0.3,0.3,0.3c0.1,0,0.2,0,0.3,0l0.6,0.1c1,0.4,1.5,0.3,1.6,0.3c0,0,0.7,0.4,0.5,0.9c0,0,0,0,0,0l-0.4-0.5
		c-0.2-0.3-0.4-0.2-0.7-0.2c-0.1,0-0.6-0.2-1-0.2c-0.4-0.1-1.1,0.7-1.2,0.7c-0.1-0.2,0.1-0.5,0.1-0.7c-0.3,0-0.5,0.1-0.6-0.2
		C59.5,86.6,59.7,86.4,59.8,86.2z M63.9,86.6c0.7,0.1,0.4,0.9,0.2,1C64,87.6,63.3,87,63.9,86.6z M59.2,86.9c0.2,0.2,0.1,0.3,0,0.5
		c-0.1-0.1-0.2-0.1-0.3-0.1c0-0.1,0-0.1,0.1-0.2C59,86.9,59,86.9,59.2,86.9z M59.2,91c-0.4-0.2-0.6-0.4-0.5-0.9l0.7-2.3
		c0-0.2,0-0.4,0.1-0.5c0.1-0.1,0.3-0.2,0.4,0l-0.3,1.6c0,0.1,0,0.2,0,0.3c0,0.3-0.3,0.6-0.4,0.8C58.9,90.4,59.3,90.6,59.2,91z
		 M58.6,88.1c0.2,0.1,0.2,0.1,0.4,0.2c-0.2,0.4-0.5,0.2-0.8,0.2c0,0.2,0,0.1-0.2,0.2c-0.1-0.1,0-0.3,0.1-0.4
		c0.2-0.2,0.2-0.1,0.3-0.3c0.1-0.2,0-0.1,0-0.3c0-0.1,0.1-0.2,0.2-0.3c0.1,0,0.2,0,0.2,0.1c0.1,0.1,0.1,0,0.1,0.2
		C58.7,87.7,58.6,87.8,58.6,88.1z M61,87.9c-0.4,0.6,0.2,0.1-0.3,0.7c-0.2,0.2-0.2,0.7-0.2,0.9c-0.3-0.1-0.1,0-0.1-0.6
		c0-0.3-0.1-0.5-0.1-0.8c0-0.2,0-0.1,0.1-0.3l0.6-0.6c0.1,0,0.3,0,0.4,0c0.2,0,0,0,0.3,0.1c0.2,0,0.6,0,0.8,0.1
		c0.5,0.3,0.6,0.7,0.5,1.2l-0.1-0.2c-0.2-0.3-0.8-0.7-1-0.7c0,0.6,0.6,0.6,0.7,1.1c0,0.3,0,0.1-0.4,0.2c-0.4,0.1-0.6,0.4-0.2,0.7
		c0.3,0.2,0.3,0,0.5,0.1c0.1,0.2-0.1,0.6-0.3,0.7c-0.3-0.1-0.1-0.3-0.3-0.5c-0.3,0.1,0,0.1-0.4,0.2c0-0.3,0.2-0.7,0-1
		c-0.2-0.2-0.7-0.2-0.9-0.3c0.1-0.4,0.2-0.4,0.5-0.6c0.2-0.1,0.4-0.4,0.5-0.6c0-0.1,0-0.1,0-0.1c-0.1,0,0,0.1-0.3,0.1
		C61.4,87.9,61.1,87.9,61,87.9z M64.1,87.7v0.2c-0.1,0-0.1,0.1-0.1-0.1C63.9,87.6,63.9,87.7,64.1,87.7z M64.4,87.9
		c0.1-0.2,0.2-0.2,0.4-0.1c-0.1,0.1,0.1,0.1-0.2,0.2C64.4,88.1,64.4,88,64.4,87.9z M64.3,88.5c0.1-0.1-0.1,0,0.2-0.1
		c0.1,0,0.2,0,0.3,0c0,0.1,0,0.1-0.1,0.1L64.3,88.5z M63.8,91.6c-0.2,0-0.1,0-0.2-0.1c-0.2-0.2-0.2-0.4-0.1-0.5l0.3-1.6
		c0-0.2-0.2-0.7,0.1-0.8c0.3-0.1,0,0.6,0,0.8c0,0.2,0.1,0.4,0,1C63.9,90.8,64.1,91.3,63.8,91.6z M58.8,88.9v0.2l-0.2,0
		C58.6,88.9,58.6,88.9,58.8,88.9z M64.5,89.3c0-0.3,0.3-0.3,0.5-0.3c0.3,0.1,0.1,0,0.2,0.1c-0.2,0.1-0.1,0-0.3,0.1l-0.1,0.1
		C64.6,89.3,64.6,89.3,64.5,89.3z M63.3,89.3c0-0.1-0.1,0,0-0.1c0-0.1,0-0.1,0.1-0.1C63.5,89.4,63.3,89.3,63.3,89.3z M58.1,89
		c0.2,0,0.3,0.2,0.3,0.4c-0.1,0-0.2,0-0.3,0c-0.1,0.1-0.1,0.2-0.2,0.1C57.8,89.4,57.8,89.1,58.1,89z M60,89.9
		c-0.1-0.2-0.1-0.2-0.1-0.5c0-0.3,0-0.2,0.1-0.3C60.2,89.3,60.1,89.6,60,89.9z M64.3,89.5c0.2,0,0.4,0,0.4,0.2
		C64.4,89.9,64.3,89.5,64.3,89.5z M60.4,89.6c0,0.2-0.1,0.1-0.1,0.4C60.1,89.7,60.2,89.7,60.4,89.6z M57.8,90.4
		c-0.2-0.2,0-0.5,0-0.5l0.3-0.2c0,0,0-0.1,0.2,0c0.1,0.1,0,0,0.1,0.1c-0.1,0.2,0,0-0.1,0.2L57.8,90.4z M60.7,89.7
		c0.2,0.1,0.1,0.1,0.3,0.1c0.2,0,0,0,0.2-0.1c0.5,0.2,0.3,0.4,0.1,0.7L61,90.5C60.8,90.4,60.7,89.8,60.7,89.7z M59.8,91
		c-0.1-0.4-0.1-0.2,0-0.5c0,0-0.3-0.2-0.3-0.3c0-0.4,0.5-0.3,0.5-0.1c0.1,0.3,0-0.1,0,0.2C60,90.4,60.4,90.9,59.8,91z M58.3,90.2
		c0.1-0.1,0.1-0.1,0.3,0c0,0.1,0,0.1-0.1,0.1C58.3,90.4,58.3,90.3,58.3,90.2z M60.4,90.2c0.2,0.1,0.1,0,0.1,0.3
		C60.3,90.4,60.3,90.4,60.4,90.2z M64.6,90.8c-0.1-0.1-0.2-0.2-0.2-0.1c-0.1,0.2,0.1,0.2,0.1,0.4c-0.3,0.4-0.3-0.2-0.3-0.4
		c0-0.3,0.3-0.4,0.5-0.4c0,0.1,0,0,0.1,0.1c0.1,0.1,0,0,0.1,0.1c0.1,0.1,0.1,0.1,0.1,0.3c-0.2-0.1-0.1-0.1-0.3-0.2L64.6,90.8z
		 M62.4,91.5c0,0.3,0.1,0.3-0.1,0.4c-0.3-0.1,0-0.3-0.3-0.3c-0.2,0-0.1,0.1-0.2,0.3c-0.3,0-0.5-0.4-0.5-0.5c0.2,0,0.2,0,0.2,0.1
		c0.2,0,0.2,0,0.4-0.1c0.1-0.1,0,0,0.1-0.1c-0.2-0.1-0.2,0-0.4-0.1c0.1-0.4,0.3-0.1,0.5-0.1L62,90.9c-0.1-0.2-0.1-0.2,0.1-0.2
		c0,0.1,0.2,0.6,0.2,0.6c0.4-0.3,0.2-0.1,0.5-0.6c0.4-0.8,0.4-0.1,0.4-0.1c-0.3,0.3-0.2,0-0.4,0.5C62.7,91.5,62.7,91.3,62.4,91.5z
		 M58,91c0.3,0.2,0.4-0.1,0.4,0.3c-0.2,0-0.4,0-0.5-0.1c0-0.2-0.1-0.7,0.5-0.5C58.3,91,58.1,90.6,58,91z M61.3,91l-0.1-0.2
		C61.3,90.8,61.4,90.8,61.3,91z M61.1,91.4l-0.4,0l0-0.4c0.3,0.2,0,0.1,0.4,0.2L61.1,91.4z M63.2,90.9c0.1,0.2,0,0.2,0,0.2
		C63.2,91.1,63,91.1,63.2,90.9z M59.4,91.4c0.1,0,0.1,0,0.1,0.1c0.1,0.1,0.1,0.1,0.1,0.2C59.4,91.6,59.5,91.7,59.4,91.4z M62.7,92
		c0-0.3,0.1-0.3,0.3-0.5c0.1-0.1,0-0.1,0.3,0C63.2,91.7,63,91.9,62.7,92z M58.6,92c0.2-0.2,0.1-0.4,0.4-0.4c0,0.2-0.1,0.2-0.2,0.3
		c-0.3,0.3-0.2,0.5-0.5,0.2c-0.2-0.2-0.3-0.5-0.3-0.5c0-0.1,0.4-0.1,0.4-0.1C58.7,91.6,58.5,91.7,58.6,92z M64.1,92
		c-0.1-0.2-0.1-0.4,0.3-0.4C64.4,91.7,64.3,91.9,64.1,92z M63,92.7c0-0.2,0.3-0.4,0.4-0.6c0.2-0.2,0.1-0.2,0.4-0.2
		c0,0,0.1,0.2,0.1,0.2c-0.3,0,0.1-0.1-0.3-0.1c-0.1,0.2,0,0.6-0.3,0.7C63.2,92.8,63,92.9,63,92.7z M62.3,92.8c-0.2,0,0,0-0.2-0.1
		c0.1-0.1,0.6-0.5,0.8-0.6C62.9,92.2,62.4,92.8,62.3,92.8z M59,92c0.2,0,0.3,0.2,0.4,0.3c0.1,0.1,0.2,0.3,0.2,0.5l0.3,0.1l0.1,0.3
		c-0.2,0.1-0.4,0-0.7-0.2c0.1-0.2,0.1-0.1,0.2-0.3c-0.2,0-0.2,0-0.4,0.1l-0.1-0.1C58.9,92.4,58.9,92.3,59,92z M60.3,93
		c0.1,0,0,0,0.1,0.1c0.2,0.1,0.1,0,0.2,0.2c-0.2,0.1-0.1,0.1-0.3,0c0,0-0.1-0.1-0.1-0.1C60.2,93,60.3,93,60.3,93z M62.3,93.2
		c0.1-0.6,0.7,0,0.2,0.1C62.3,93.3,62.4,93.2,62.3,93.2z M61.5,93.2c0.1,0,0.1-0.1,0.2-0.1c0.3,0,0.2,0,0.2,0.1
		C61.8,93.5,61.6,93.4,61.5,93.2z M60.9,93.4c0.1-0.2,0.2-0.2,0.3,0c0,0,0.1,0.1-0.2,0.1C60.9,93.5,60.9,93.4,60.9,93.4z M29.4,50.6
		c-0.1-0.2,0,0,0-0.2l0-0.1c0-0.5,0.2-1.1,0.4-1.5c0.1-0.1,0.2-0.2,0.1-0.4c-0.1-0.3-0.4-0.2-0.7-0.2c-0.1,0.3,0,0.2-0.1,0.4
		c-0.1,0.2-0.2,0.8-0.6,0.9c-0.1-0.9,0.4-1.3-0.5-1.4l-0.1,0.4c0,0.1,0,0.2-0.1,0.4c-0.1,0.4,0,0.6-0.2,0.8
		c-0.3-0.3-0.3-0.9-0.5-1.3c-0.7,0.1-0.4,1-0.4,1.5c-0.1,0-0.1,0-0.2-0.1c0,0,0,0,0,0c0,0,0,0,0,0c-0.1-0.2-0.1-0.1-0.3-0.1l0-0.3
		c-0.2,0-0.2,0-0.3,0.2c-0.1,0.1-0.1,0.2,0,0.3c0.2,0.6,0.3,0.2,0.5,1.4c0,0.2,0.2,0.6,0.2,0.7l-0.1,0.4c-0.1,0.4-0.3,1.3-0.4,1.5
		C26,53.8,26,53.9,26,54.1c-0.1,0.3-0.1,0.5-0.2,0.7c-0.1,0.4,0,0.5,0,0.8c0,0.3-0.1,0.4,0,0.9c0.2,1.3-0.3,0.8,0.5,2.2l0.6,1.3
		c0.2,0.3,0,0.3,0.1,0.7l0.2,0.8c0,0.2,0.5,1,0.7,1.2c0.4,0.4,0.5,1.5,0.7,2.1c0.1,0.2,0.3,0.4,0.3,0.7c0,0.3-0.1,0.6,0,0.8
		c0,0.2,0.1,0.2,0.1,0.4c0.1,0.4,0.3,0.6,0.4,1c0.1,0.3,0.1,0.5,0.2,0.7c0.2,0.3,0.1,0.7,0.2,1c0.1,0.3,0.1,0,0,0.3
		c-0.1,0.3,0,0.2,0,0.5c0,0.3-0.1,0.5,0,0.8c0,0,0.1,0.2,0.2,0.3c0.1,0.1,0.2,0.1,0.4,0.1c0.2,0,0.1,0,0.2,0.1
		c0,0.2-0.1,0.5-0.2,0.7C30.1,72,30.1,72,30,72.2c0,0.1,0,0.2-0.1,0.3l-0.5,1.7c-0.1,0.4-0.2,0.7-0.2,1.1L28.9,78
		c0,0.4,0,0.5-0.1,0.8c0,0.5-0.1,0.4-0.1,0.7c-0.1,0.4,0,1.2,0,1.7c0,1.1,0.2,0.9,0,1.5c0,0.1,0.1,0.5,0.1,0.6
		c0.2,0.3,0.8,0.6,0.9,0.8c0.1,0.3-0.2,1.1-0.2,1.4c0,0.1,0,0.2-0.1,0.4c0,0.2,0,0.1,0,0.3c-0.1,0.5-0.1,1.7-0.1,2.3
		c0,0.3,0.1,0.4,0.1,0.8c0,0.4,0,0.5,0.1,0.8c0,0.2,0,0.4,0.1,0.7c0.1,0.4,0,0.4-0.1,0.7c0,0.1,0,0.3,0,0.4c0,0.3-0.3,0.6-0.2,0.9
		l0.1,0.7c0,0.1,0.5,0.1,0.4,0.6c-0.3,1.3,0.2,0.6-0.7,1.9c-0.1,0.2,0,0.2-0.1,0.4c-0.6,0-1.1,0-1.7,0c-0.5,0-1.4-0.1-1.5,0.1
		c-0.2,0.3,0.2,1.8-0.1,2.1c-0.2,0.1-0.4,0.1-0.6,0.2c0,0.3,0,0.3,0.3,0.3c0.3,0,0.4,0,0.6,0c0.2,0,0.1-0.1,0.3,0
		c0.2,0,0.1,0,0.2,0.1c0.4,0.1,3.3,0,4,0c0.3,0,0.3,0,0.5,0.1c0.3,0,0.9,0,1.3,0l8.1,0c1.8,0,3.6,0,5.4,0l0.5,0
		c0.2,0,0.1,0.1,0.5,0.1l10.7,0c0.7-0.1,4.1,0.1,5.2,0.1c0.6,0,0.7-0.1,1,0.3c0.5,0.8,1.3,0.9,1.4,1.3c-1.7,0-3.5,0-5.2,0
		c-0.6,0-2.7,0.1-3.2-0.1c-0.2-0.1-0.4,0-0.6,0l-14.5,0c-0.2,0-0.4,0-0.6,0c-0.5,0-0.8-0.1-1.2-0.1c-0.3,0-1,0.1-1.2,0
		c-1-0.1-5.2,0-6.5,0c-0.2,0-0.4,0-0.7,0c-0.3,0-0.4,0-0.6-0.1l-1.7,0.1c-0.4,0-0.2-0.1-0.5-0.1c-0.6,0-0.4,0-0.8,0.1
		c-0.3,0.1-1.3,0-1.6,0c-0.4,0-0.2-0.1-0.5-0.1c-0.4,0.1-0.1,0.1-0.5,0c0.1,0.3,0.1,0.3,0.5,0.3l22.2,0.1c0.2,0,0.2,0.1,0.3,0.1
		l7.7,0c0.5,0,1,0.1,1.3,0.1c1.8,0,3.6,0,5.4,0c0.8,0,1.9,0.1,2.7,0c0.2,0,0.4-0.1,0.7-0.1c0.2,0,0.3,0.1,0.5,0.2
		c0.3,0,0.9,0.1,1.1-0.2c-0.1-0.1-0.1,0-0.3-0.1c-0.1-0.1-0.2-0.1-0.3-0.2c-0.4-0.1-0.2,0-0.6-0.2c-0.2-0.1-0.3-0.2-0.5-0.3
		c-0.7-0.7-0.5-0.2-0.7-1c-0.1-0.2-0.1,0-0.1-0.3c0-0.2,0.1,0,0-0.3c-0.1-0.2,0-0.4-0.1-0.6c0-0.2-0.1-0.5-0.1-0.7
		c-0.2-0.1-0.2,0-0.4-0.1c-0.1,0-0.2-0.1-0.3-0.2c-0.4-0.2-0.7-0.2-0.8-0.2c0.1-0.1,0,0,0.1-0.1l0.1-0.1c0.1-0.1,0.2-0.1,0.3-0.1
		c0.4-0.1,0.8-0.4,1.2-0.7c0.3-0.3,0.7-0.4,1-0.8l0.5-0.5c0.2-0.2,0.4-0.4,0.6-0.7l0.5-0.9c0.2-0.4,0.9-2.1,0.9-2.5l0.1-1.3
		c0.1-0.7,0-1.5-0.3-2.2l-0.4-1c-0.2-0.2-0.2-0.5-0.4-0.7l-0.7-0.8c-0.4-0.5-0.6-0.7-1.1-1.1c-0.6-0.5-1.6-1-2.4-1.2
		c-0.4-0.1-0.4-0.5-0.6-0.8c-0.2-0.2-0.3-0.1-0.5-0.2c-0.5-0.2-0.3-0.6-0.3-1.1c0-0.5,0-1,0-1.5c0-0.4-0.2-1.5-0.3-1.9l-0.4-1
		c-0.1-0.2-0.1-0.3-0.2-0.5c-0.2-0.3-0.2-0.8-0.4-1.1c-0.1-0.2-0.2-0.3-0.2-0.5c-0.1-0.3-0.2-0.7-0.4-1c-0.1-0.2-0.2-0.2-0.2-0.5
		c-0.1-0.2,0-0.1-0.1-0.3l-0.4-0.8c0,0,0,0,0,0L59,70.6c-0.2-0.5-0.3-0.4-0.4-0.8c-0.1-0.3-0.1-0.2-0.3-0.4
		c-0.2-0.2-0.6-0.5-0.9-0.5c-0.5-0.1-0.8,0.2-1.1,0.3c0-0.5,0.1-0.2,0.3-0.6c0.1-0.4,0-1,0-1.5c0-0.4,0-0.3,0.1-0.7
		c0.1-0.5,0.1-0.8-0.2-1.2c0-0.1-0.1-0.2-0.2-0.2l-1.2-0.8c-0.6-0.4-0.6-0.2-1.2-0.4c-0.3-0.1-0.8-0.3-1.1-0.1
		c-0.1,0.1,0,0.1-0.2,0.2l-0.5,0.2c-0.2,0.1-0.1,0-0.2,0.1c-0.2,0.2-0.2,0.2-0.2,0.6c0.1,0.2,0,0,0.1,0.2c0.2,0.2,0.2,0.2,0.1,0.4
		c-0.3,0.6,0.1,0.7,0,1c-0.1,0.4-0.4,0.4-0.3,1c0.1,0,0.2,0,0.2,0.1c-0.2,0.4-0.2,0.2,0.1,0.6c-0.1,0.1-0.1,0.2-0.1,0.4
		c-0.1,0.2-0.1,0.2-0.1,0.4c0.1,0.3,0.1,0.1,0.1,0.5c0,0.6,0.3,0.4,0.6,0.6c0.3,0.1,0.3,0.1,0.6,0c0.2,0.3,0.2,0.7,0,0.9
		c-0.4,0.3-0.8,0.3-1.3,0.7c-0.2,0.2-0.1,0.2-0.3,0.4c-0.2,0.3-0.5,0.3-0.9,0.4c-0.9,0.3-0.1,0.5-1.4,1c-0.1,0-0.2,0-0.3,0.1
		c-0.1,0-0.3,0.1-0.4,0.1c-0.5,0.1-0.6,0.2-1,0.3c-0.3,0.1-0.2,0-0.5,0.1c-0.1-0.1-0.1-0.1-0.2-0.2c0.1-0.3,0.2-0.3,0.4-0.5
		c-0.1-0.2-0.1-0.1-0.1-0.4c0.1-0.3,0.1,0.1,0.1-0.3c-0.1-0.3-0.2-0.2-0.4-0.4c0.2-0.1,0.3-0.1,0.4-0.3c0.1-0.2,0-0.2-0.1-0.4
		c0.2-0.1,0.3,0,0.4-0.2c0.2-0.4,0-1.2,0-1.7c-0.5-0.2-1.1,0.5-1.4,0.3c-0.1-0.2,0-0.3,0-0.5c0-0.3,0-0.2-0.1-0.4
		c-0.1-0.4,0.1,0,0.1-0.3c0-0.2-0.1-0.1-0.1-0.4c0.2,0,0.2,0,0.3-0.2c0.3-0.5-0.2-0.6-0.2-0.8c0.1-0.2,0,0,0.2-0.2
		c0.2-0.2,0.6-0.8,0.5-1c0-0.2-0.1-0.3-0.2-0.4c-0.5,0-0.3,0.1-0.5-0.2c-0.1-0.1-0.3-0.3-0.4-0.3c-0.2,0-1.1,0.1-1.3,0.2
		c-0.5,0.3-0.9,1.3-1.1,1.8c-0.1,0.2-0.2,0.3-0.3,0.5c-0.2,0.4-0.4,0.6-0.4,1c0,0.1,0,0.1,0,0.2c0,0.2,0,0.1,0,0.3l0.3,1.1
		c0.1,0.2,0.2,0.2,0.3,0.5c0,0.3,0,0.4,0.1,0.6c0.2,0.1,0.3,0,0.5,0.2c-0.1,0.2-0.2,0.2-0.4,0.4c-0.2-0.3,0.1-0.1-0.1-0.2
		c-0.4,0.3,0.6,0.6-1.4,0.6c0-0.3,0-0.4-0.2-0.6c-0.7-0.5-0.6,0.1-1.2-1.1c-0.4,0-0.3,0-0.6-0.1l-0.3-0.2c0,0,0,0-0.1-0.1
		c0.4-1.2,0.3-0.6,0-1.6c-0.2-0.6-0.1-1.3-0.2-1.9c0-0.2,0-0.4,0-0.6c0-0.2-0.1-0.2-0.3-0.4c0-0.2,0.2-0.3,0.2-0.6
		c0-0.2-0.2-0.4-0.3-0.5c-0.4-0.8-0.6-1.6-1.4-2l-0.8-0.4c0.1-0.2,0.3-0.3,0.5-0.5c0,0,0.2-0.3,0.2-0.3c0-0.2-0.1,0-0.1-0.3
		c0.3-0.1,0.3-0.2,0.3-0.7c0.2-0.1,0.2-0.1,0.4-0.2c0-0.2-0.1-0.7,0-0.9c0-0.1,0.3-0.3,0.3-0.6c0.1-0.4,0.2-0.6,0.5-0.9
		c0.3-0.3,0-0.7-0.2-1c-0.4-0.6-0.5-0.6-1.1-1c-0.1-0.1-0.1-0.2-0.5-0.2c0.1,0.2,0.2,0.2,0.5,0.3c0.2,0.1,0.4,0.2,0.5,0.4
		c0,0,0,0,0,0.1l0.1,0.1c0,0,0,0,0,0c0.1,0.2,0.3,0.4,0.2,0.7c-0.2-0.1-0.4-0.4-0.6-0.6l-0.1,0.4c-0.2,0.1-0.1,0-0.3,0
		c-0.2,0,0,0.1-0.3,0.1c-0.3-0.2-0.1-0.2-0.5-0.2l0,0.1c-0.1,0.3,0,0.4-0.4,0.4c0.1-0.2,0.1-0.3-0.1-0.3c-0.2,0.2,0,0.6-0.3,0.7
		c0-0.1,0,0-0.1-0.1l0-0.4c0-0.3,0-0.3-0.2-0.4c-0.2,0.2,0,0.6-0.1,0.8c-0.2-0.2-0.2-0.4-0.3-0.7c-0.2,0-0.2,0-0.3,0.1
		c0.1,0.1,0.2,0.3,0.3,0.5c0.1,0.2,0.3,0.2,0.3,0.5c-0.3,0.1-0.1-0.1-0.2,0.1c-0.1,0.1,0,0.2-0.2,0.3c-0.1-0.2-0.1-0.5-0.1-0.6
		l-0.3,0.1c0,0.4,0.1,0.3,0.1,0.5c0,0.2,0,0.1-0.1,0.1C34,58.5,34,58.4,34,58.2c0-0.2,0-0.2,0-0.4c-0.3,0.2,0.1,0.1-0.3,0.2
		c0-0.6,0.3-0.3,0.2-0.8c-0.2,0-0.5,0.3-0.3,0c0.1-0.2,0.1-0.1,0.3-0.1c0.1,0,0.2-0.1,0.2-0.1l0-0.4c0.3,0.1,0,0.2,0.3,0.4
		c0.1-0.2,0,0,0.1-0.3c0-0.2,0.1-0.5-0.1-0.3c-0.1,0.1,0.1,0.1-0.2,0.1c0-0.4,0.3-0.5,0.5-0.6l0.6-0.1c0.2,0,0.2,0,0.4,0l0.5,0.1
		c0.2,0,0,0.1,0.3,0.1c0.2,0,0.1,0,0.2-0.1c-0.6-0.4-1-0.3-1.7-0.3c-0.7,0.1-1.2,0.7-1.5,1.1c-0.2,0.3-0.4,1-0.4,1.3
		c0,0.4-0.4,1.5,0.2,1.7c0,0.4-0.3,1.1-0.8,1.1c-0.3,0,0,0-0.2-0.1L32,60.6c0,0,0,0,0,0c-0.2-0.1-0.1,0.1-0.2-0.1
		c-0.1-0.1-0.1-0.2-0.2-0.3c-0.2-0.6-0.6-0.5-1-1c0,0,0,0,0,0c-0.5-0.6-0.1-0.1-0.5-0.7c-0.2-0.3-0.7-0.4-0.9-0.7c0,0,0,0,0,0
		c0,0,0,0,0,0L28.5,57c-0.4-0.5,0.1-1.5-0.1-2.1c-0.1-0.5,0-0.7-0.2-1.2c-0.2-0.5,0-0.8,0.1-1.3c0-0.1,0-0.3,0.1-0.4
		c0.3-0.1,0.3-0.1,0.7-0.3c0.3-0.1,0.5,0,0.7-0.2c0.9-0.5,0.9-0.2,1.2-0.7l-0.3-0.4c0,0,0,0,0,0l-0.3-0.1
		C30,50.5,29.7,50.8,29.4,50.6z M29.6,48.5c-0.1,0.2,0,0.2-0.2,0C29.5,48.4,29.5,48.4,29.6,48.5z M28.2,50.3
		c0.2-0.2,0.1-0.2,0.5-0.4c0.4-0.2,0.1-0.2,0.5-0.3c0.1,0.4-0.3,0.2,0,0.7c0,0-0.1,0.1-0.1,0.1c0,0.1,0,0,0,0.2
		c0,0.6,0.5,0.1,0.8,0.2c-0.1,0.2-0.1,0.2-0.3,0.2l0,0.1c0,0,0,0,0,0.1c0.1,0.1,0-0.1,0.1,0.1c-0.2,0.1-0.5,0.2-0.7,0.3
		c-0.6,0.2,0,0.2-0.7,0.2L28,52c-0.1-0.1-0.1-0.2-0.4-0.2c-0.1,0.1-0.2,0.2-0.2,0.4c0.2-0.2,0.4-0.1,0.6,0.1c-0.2,0.2-0.6,0.1-1,0
		c-0.4-0.5-0.1-0.3-0.1-0.6c0-0.1,0-0.1-0.1-0.3c-0.1-0.4,0-0.2-0.2-0.5c0.2-0.5,0.2-0.2,0.4-0.5c0-0.3-0.1-0.1-0.2-0.5
		c0.3,0,0.1,0.1,0.3,0.3c0.1,0.1,0.2,0.1,0.4,0.2c0,0.1-0.1,0.1-0.1,0.3c0.1,0.1,0.1,0.2,0.3,0.2c0-0.4-0.1-0.4,0.2-0.7
		C28.1,50.3,28.1,50.3,28.2,50.3z M30.1,51c0.1-0.2,0-0.1,0.1-0.2c0.1,0,0.2,0,0.2,0l0.2,0.1C30.5,51.1,30.6,50.8,30.1,51z
		 M27.5,52.9C27.5,52.9,27.6,52.8,27.5,52.9c0.3-0.2,0.1-0.2,0.4-0.2c0.1,0.4-0.1,0.1-0.1,0.5c0,0.3,0.1,0.1,0.1,0.4
		c0,0.2,0,0.3,0,0.5c0,0.3,0,0.6,0.1,0.8c0.2,0.8-0.1,0.9-0.1,1.6c0,0.8,0.7,0.9,1.3,1.9c0.2,0.3,0.1,0.1,0,0.3
		c0,0.1,0.2,0.8-0.3,1.1c-0.3,0.2-0.3,0.5-1,0.1c-0.2-0.1-0.1,0-0.2-0.1l-0.2-0.2c-0.2-0.1-0.1-0.1-0.3-0.3
		c-0.1-0.1-0.5-0.6-0.5-0.7c0-0.3,0-0.1,0.1-0.2c0.4,0.3,0.2,0.4,0.5,0.4c-0.2-0.6-0.3-0.6-0.5-1l-0.3-0.8c-0.2-0.3,0-0.4-0.1-0.9
		c0-0.2,0.2-1.4,0.2-1.8l0.1,0c0,0.2,0,0.5,0.1,0.5c0.3-0.3,0.3-0.7,0.4-0.9c0.1-0.2,0,0,0.1-0.3c0-0.2,0-0.1,0.1-0.3
		C27.5,53.2,27.5,53.2,27.5,52.9z M26.7,52.5c0.5-0.3,0.4,0.2,0.4,0.5c0,0.3-0.1,0.2-0.1,0.4l0,0.1c0,0,0,0,0,0c0,0.2,0,0.1-0.1,0.2
		c-0.1-0.3,0-0.1,0-0.3c-0.1-0.2-0.1-0.1-0.2-0.2C26.7,53,26.7,52.7,26.7,52.5z M33.6,58.2c0-0.2-0.1-0.1,0.2-0.2
		C33.7,58.2,33.8,58.2,33.6,58.2z M35.3,58c0.1,0.1,0.2,0.1,0.2,0.3C35.3,58.3,35.2,58.3,35.3,58C35.3,58.1,35.3,58.1,35.3,58
		C35.3,58.1,35.3,58.1,35.3,58z M35.2,59.1c0-0.2,0.3-0.2,0.5-0.4c0.2-0.2,0-0.1,0.3-0.2c0.7-0.3,0.1-0.5,0.5-0.8
		c0.2,0.1,0.1,0.1,0.3,0.2c0.1,0,0,0,0.1,0.1c0,0,0,0,0,0l0.2,0.1c0.3,0.1,0.9-0.6,0.7,0.3c0,0.3,0,0.2-0.1,0.3
		c-0.2,0.1-0.6-0.1-0.8-0.1c-0.1,0-0.6,0.1-0.7,0.2c0.3,0.2,0.4,0.1,0.7,0.4c0,0.1-0.1,0.1,0,0.2c0.1,0.1,0,0,0.2,0.1l0.1,0
		c0.1,0,0.1,0.1,0.2,0.3c0.1,0.5-0.3,0.2-0.4,0.2c-0.4-0.1-0.3,0.1-0.6,0.2L36,60.3c-0.3-0.2-0.2-0.3-0.4-0.5
		c-0.1-0.2-0.1,0-0.2-0.3C35.2,59.1,35.2,59.4,35.2,59.1z M34.3,58.9l0.3,0.1c0,0.1,0,0.2-0.2,0.2C34.3,59.1,34.3,59,34.3,58.9z
		 M28.1,61.4c0.2-0.4,0.5,0.4,1-1.2c0-0.1,0,0,0-0.1l0-0.1c0-0.1,0,0,0.1-0.2c0.4-0.7,0.1-1,0.4-1.3c0.4,0.4,0.1,1.5-0.2,1.9
		c-0.3,0.5-0.3,0.7-1,1C28.4,61.5,28.2,61.6,28.1,61.4z M35.8,61.1c-0.4,0-0.4,0-0.4-0.3c-0.1-0.5-0.1-0.1-0.2-0.4
		c-0.1-0.1-0.1-0.5-0.2-0.8c-0.1-0.1-0.1-0.1-0.1-0.2c0.1-0.1,0.1-0.2,0.3-0.2c0,0.7,0,0.4,0.3,0.8c0.1,0.1,0.1,0.1,0.1,0.2
		c0.2,0.3,0.2,0.1,0.4,0.4c0.2,0,0,0,0.1,0c0.3-0.1,0.1,0,0.3,0c0.3,0,0-0.1,0.4-0.1c0,0.2,0,0.2-0.1,0.3l-0.3,0.1
		c0,0.3,0,0.2,0.3,0.3c0,0.3,0,0.1-0.1,0.2c0,0.1,0.1,0.1,0,0.2c-0.2-0.1-0.4-0.4-0.6-0.5c-0.1-0.1,0-0.1-0.2-0.1L35.8,61.1z
		 M28.8,61.8c0.1-0.3,0.4-0.4,0.5-0.5c0.1-0.1,0.3-0.4,0.4-0.6c0.1-0.1,0.1-0.2,0.2-0.3c0.3-0.6,0.1-0.9,0.4-1
		c0.2,0.5,0,0.4-0.1,0.7c-0.1,0.3-0.1,0.5-0.3,0.7c-0.5,0.9-0.2,0.3-0.5,0.6C29.2,61.5,29.2,61.7,28.8,61.8z M29.2,63.1
		c0.1-0.2,0.4-0.1,0.7-0.6c0.1-0.2,0.1-0.3,0.2-0.5c0.1-0.2,0.1-0.1,0.2-0.4c0-0.1,0.1-0.2,0.1-0.2c0.1-0.3,0.3-1.3,0.3-1.4
		c0.1-0.2,0.3-0.1,0.3,0c0.3,0.5-0.2,1.6-0.4,2.1c-0.1,0.1-0.1,0.3-0.2,0.4L29.6,63C29.4,63.1,29.4,63.2,29.2,63.1z M33.2,60.9
		c0.1-0.2,0.1-0.2,0.3-0.4c0.3-0.5,0.2-1,0.8-1c0.1,0.2,0.4,0.7,0.4,0.9c0.1,0.8,0.1,0.4,0.2,0.8c0,0.1,0,0.1,0,0.3
		c0,0.3,0.3,0.5,0.5,0.8c0.2,0.2,0.5,0.4,0.6,0.7c-0.3-0.1,0,0-0.2-0.1c-0.1,0-0.1-0.1-0.2-0.1c-0.1-0.1-0.2-0.2-0.3-0.3
		c-0.6-0.5-0.7-0.4-1.2-1L33.2,60.9z M29.6,63.4c0.1-0.1,0.2-0.1,0.4-0.2c0.1-0.1,0.2-0.2,0.3-0.3c0.8-0.8,0.4-0.5,0.8-1.5
		c0.2-0.5,0.1-0.7,0.3-0.8c0.2,0.4-0.1,1.1-0.2,1.5c0,0.2-0.1,0.2-0.2,0.4c-0.6,0.9-0.1,0.1-0.9,0.9C29.6,63.6,29.6,63.4,29.6,63.4z
		 M35.8,61.1c0.2,0,0.2,0,0.3,0.3c-0.2,0-0.1,0.1-0.2-0.1C35.8,61.2,35.8,61.2,35.8,61.1z M28,61.3c0,0.2,0,0.2-0.1,0.3
		c-0.2-0.1-0.3-0.3-0.3-0.5C27.9,61.1,27.7,61.1,28,61.3z M31.7,68.8l-0.3-0.1c0-0.4,0.1-0.5,0.1-0.9l0.1-0.9c0-0.2,0-0.4-0.1-0.6
		c-0.1,0.4,0,0.5-0.1,0.8c-0.1,0.2-0.1,0.4-0.2,0.6c-0.2,0.6-0.1,0.7-0.5,1c-0.1,0.1-0.2,0.1-0.3,0.1c0-0.3,0.1-0.3,0.2-0.5
		c0.2-0.4,0.3-0.7,0.3-1.1c0-0.4,0-0.8,0.1-1.2l0.3-1.9c0-0.1,0.2-2.3-0.2-1.3c-0.1,0.3,0,0.4-0.1,0.6c0,0.1-0.1,0.1-0.1,0.3
		c-0.1,0.3-0.2,0.3-0.3,0.6c-0.1,0.1,0,0-0.1,0.1c-0.1,0.2,0,0.1-0.1,0.2c-0.2,0.2-0.4,0.3-0.7,0.3c0-0.5,0.2-0.3,0.5-0.5
		c0.1-0.1,0.2-0.1,0.3-0.2l0.1-0.3c-0.2,0-0.1,0-0.2,0c-0.3,0.1,0.2-0.1-0.1,0c0,0,0,0,0,0c0,0-0.1,0-0.1,0c-0.3,0.2-1,0.3-1.1-0.1
		c0.3,0,0.4,0,0.6-0.1c0.2-0.1,0.2-0.2,0.4-0.3c0.2-0.1,0.2,0,0.4-0.3l0.5-0.8l0.5-1.4c0.2,0.3,0.1,0.2,0.2,0.7
		c0,0.2,0.1,0.2,0.2,0.4c0,0,0,0.1,0,0.2c0.3-0.1,0.2-0.3,0.1-0.5c-0.1-0.3-0.1-0.6-0.1-0.9c0.3,0,0.5,0,0.7,0.2
		c0.4,0.4,0,0.4,0.1,0.7c0.1,0.4,0.9,0.2,1.3,0.3c0,0.3,0.2,0.4,0.4,0.6c0.1,0.1,0.1,0.2,0.2,0.3c0.1,0.1,0.2,0.1,0.3,0.2
		c0.2,0.3,0.5,0.6,0.8,0.8c0.1,0.1,0.2,0.2,0.3,0.2c0-0.2,0-0.1-0.1-0.3l-0.5-0.6c-0.1-0.1-0.1-0.1-0.2-0.2c0,0,0,0,0,0c0,0,0,0,0,0
		c-0.2-0.1-0.4-0.3-0.5-0.6c0.4,0.1,0.5,0.4,0.8,0.6l0.2,0.1c0.4,0.2,0.9,0.7,1.1,1.2c0.2,0.5,0.5,1.1,0.8,1.6
		c0.3,0.6,0.2,1,0.4,1.6c0.1,0.3,0.1,0.6,0.2,0.9c0.8,2-0.1,1.8-0.2,2.3l-0.2,0c0,0,0,0-0.1,0c-0.2,0.1-0.2-0.7-0.5-1.1
		c0.3-0.3,0.7-2,0.1-2.1c0,0.3,0.1,0.5,0.1,1.1c-0.2-0.1-0.2-0.2-0.2-0.4l-0.8-3c-0.2,0-0.1,0-0.3,0.1c0-0.1,0-0.2-0.1-0.3
		c0,0-0.1-0.1-0.1-0.1c-0.1,0,0,0-0.1,0c-0.1,0.2,0,0,0.1,0.2c0.2,0.4,0.2,0.9,0.3,1.3c0,0,0,0.1,0,0.1c0,0,0,0,0,0
		c0.1,0.2,0.1,1.4,0,1.8c0,0.4-0.4,0.7-0.2,1c0.2-0.1,0.2-0.3,0.3-0.6c0.2-0.5,0.1-1.6,0.1-2.2c0,0,0,0,0.1,0.1l0.3,1
		c0.1,0.6,0.3,1.5-0.5,1.7c0,0.5,0.7,0.2,0.8,0.7c-0.1,0-0.4-0.2-0.6-0.2c-0.2-0.1-0.2-0.2-0.5-0.2c-1-0.1-0.7-0.3-1.6-0.6
		c-0.3-0.1-0.7-0.5-0.6-0.7c0-0.3,0.1-0.3,0.1-0.6c0-0.7-0.2-1.2-0.4-1.8c-0.1-0.3-0.1-0.2-0.2-0.5l-0.2-1.3c0-0.3-0.2-0.8-0.4-1
		c0,0.2,0.1,1.1,0.2,1.2l0.1,0.3c0,0.3,0.2,0.5,0.1,0.8c-0.1,0.3-0.1,0.4,0,0.6c0.1,0.2,0.1,0.3,0.1,0.5l0.3,1.1
		c-0.2,0.3-0.3,0.3-0.3,0.8c-0.2-0.1-0.2-0.4-0.4-0.4c-0.2,0.4,0.3,0.5,0.3,0.8c-0.3,0-0.5-0.4-0.7-0.7c-0.2-0.5,0.1-0.9-0.2-1
		c-0.1,0.2,0,0.1-0.1,0.3c0,0.2,0,0.1-0.1,0.2c-0.1,0.3,0.1,0.6,0.3,0.8c0.2,0.3,0.1,0.5-0.3,0.3c-0.6-0.2-0.4-0.8-0.3-1.4
		c0.1-0.5,0-1.3,0.2-1.9c0.1-0.3,0.1-2,0.1-2.3c0,0,0,0,0,0c0-0.1,0,0-0.1-0.1c0,0.3,0,0.5-0.1,0.8c-0.2,0.4,0,1.1-0.2,1.6
		c0,0.1,0,0.2,0,0.4c0,0.4-0.1,0.4-0.1,0.7c0,0.1,0,0.4,0,0.6C31.7,68.2,31.7,67.7,31.7,68.8z M29.3,62.5c0.1-0.3,0-0.1,0.1-0.2
		c0.2-0.3-0.1,0,0.2-0.4c0.2-0.2-0.1-0.2,0.3-0.5c0.1,0.2,0,0.3-0.2,0.6C29.5,62.5,29.5,62.5,29.3,62.5z M33.8,61.8
		c-0.1,0.1,0,0.1-0.1,0.1c-0.5,0.3-0.5-0.4-0.5-0.4c0.3,0,0.1,0,0.2,0.1C33.6,61.7,33.6,61.7,33.8,61.8z M37.5,63.7
		c-0.1-0.2-0.2-0.2-0.3-0.4c0.1-0.1,0.3,0,0.4,0.2c0.1,0.2,0.1,0.4,0.1,0.6c-0.1-0.1-0.1-0.1-0.2-0.2C37.6,63.8,37.6,63.8,37.5,63.7
		z M37.5,64.3l0.4,1c0.1,0.3,0.2,0.4,0,0.6c-0.1-0.4-0.2-0.5-0.3-0.7c-0.2-0.3-0.2-0.8-0.6-1.4c-0.1-0.1-0.3-0.3-0.3-0.5
		c0-0.3,0-0.1,0.1-0.2l0.3,0.3C37.2,63.6,37.3,64,37.5,64.3z M53,64.4c-0.4,0,0,0-0.3,0.2c-0.1-0.2,0-0.1,0-0.4
		c0.3-0.1,0.2-0.1,0.5,0c0.4,0.2,0.2,0,0.5,0c0.1,0.1,0.1,0.1,0.2,0.2l0-0.1c0.2-0.2,0-0.1,0.2-0.1c0.3,0,0.5,0.2,0.6,0.4
		c0.2,0,0.2-0.1,0.4,0c0.4,0.1,0.8,0.4,1,0.7c0.4,0.5,0.4,1,0.2,1.5L56,67.2c0,0,0,0,0,0l-0.1,0.2c0,0,0,0,0,0
		c-0.1,0.1,0-0.1-0.1,0.2c0.1,0.2,0,0.1,0.2,0.2c0.2,0.3,0.2,0.6-0.2,0.7c0-0.3-0.3-0.8-0.5-1c0-0.2,0-0.5,0.1-0.7
		c0.1,0.2,0,0.2,0.3,0.3c0,0,0,0,0,0l0-0.1c0-0.3-0.1-0.3,0.1-0.5c0.2,0.1,0,0,0.2,0.2c0.1-0.1,0.1,0,0.2-0.1
		c-0.1-0.3-0.4-0.8-0.8-0.9c-0.1,0-0.2,0-0.2,0c-0.3-0.1,0.2-0.3,0.2-0.4c0-0.1-0.2-0.2-0.3-0.4c-0.7,0-0.3,0-0.7-0.2
		c-0.1,0-0.1,0-0.2-0.1c-0.2,0.1,0,0.1-0.3,0.3l-0.1-0.3c0-0.2,0-0.1-0.1-0.2c-0.2,0.1-0.1,0.1-0.3,0.3C53.1,64.8,53.1,64.6,53,64.4
		z M30.1,65.4c0.1-0.1,0.1-0.2,0.2-0.3c0.4-0.3,0.5-0.5,0.6-0.6c0,0.3,0,0.2-0.1,0.4c0,0.2,0,0.3,0,0.4c0,0.3-0.1,0.1-0.1,0.3
		c0,0.2,0,0.2-0.1,0.4C30.5,66.1,30.2,65.6,30.1,65.4z M29.6,64.8c0,0.2,0.1,0.2-0.2,0.2C29.5,64.8,29.5,64.9,29.6,64.8z M44.3,66
		c0-0.2,0-0.1,0.1-0.2c0,0,0.2-0.1,0.2-0.1c0.1-0.1,0.4-0.1,0.5-0.1c-0.1,0.3-0.1,0.2-0.4,0.3C44.5,65.9,44.7,66,44.3,66z M53,65.2
		c0.2,0,0.2,0.1,0.5,0.1c0.3,0,0.2-0.1,0.5-0.1c0,0.3,0.2,0.6,0.3,0.8c0.3,0.4,0.2,0.7,0,1.3c-0.1,0.3,0,0.2-0.2,0.3
		c-0.2,0.2-0.3,0.3-0.6,0.5c-0.3-0.1-0.3-0.1-0.4-0.3l-0.3-0.2c-0.5-0.4-0.6,0-1-0.3l0.3-0.4c0.2-0.3,0-0.3,0.1-0.4
		c0.2-0.2,0.6,0.3,0.7,0.4c0.1,0,0.1-0.1,0.2-0.1c0.2-0.1,0,0,0.2-0.1c0.3-0.1,0.2,0,0.3-0.2c0.1,0.1,0.1,0.1,0.2,0.1
		c0.2,0.1-0.1,0,0.2,0.1C54,65.7,53.2,66,52.8,66c-0.2,0-0.3,0.1-0.5,0.1c0-0.8,0.3-0.6,0.5-0.8C52.8,65.4,52.9,65.3,53,65.2z
		 M45.6,65.6c0.3,0.3,0.2,0.7,0,1c0-0.2,0-0.2-0.1-0.3c-0.1-0.3,0,0-0.1-0.3C45.4,65.8,45.5,65.7,45.6,65.6z M30.5,67
		c-0.1-0.1-0.1-0.4-0.2-0.5c-0.2-0.4-0.2-0.2-0.3-0.5c0.2,0.1,0.3,0.3,0.5,0.4c0.1,0.1,0.1,0.1,0.1,0.1c0,0.1,0,0.2-0.1,0.3
		C30.5,67,30.6,66.9,30.5,67z M45.9,66.9c0-0.3,0.1-0.6,0.2-0.9l0-0.1C46.6,66.1,46.2,66.8,45.9,66.9z M43.1,69.7
		c-0.1-0.2-0.2-0.4-0.2-0.6c0-0.6,0.5-1.3,0.7-1.9c0.2-0.3,0.2,0,0.4-0.4c0.1-0.1,0.1-0.1,0.1-0.2c0.1-0.2,0.1-0.3,0.4-0.4
		c0.6-0.2,0.5,0.1,0.5,0.1c-0.2,0.1-0.2,0.1-0.5,0.1c-0.1,0.2-0.1,0.1-0.2,0.3l-0.4,0.8c0.2,0.1,0.7-0.3,1.1-0.1
		c0.1,0.1,0.1,0.1,0.3,0.1c0.6,0.3,0.6,0.6,0.2,0.5c-0.1,0-0.2-0.1-0.2-0.1c-0.2-0.1-0.1,0-0.2-0.1c-0.6-0.3-1.1,0-0.9,0.2
		c0.2,0.1,0.3,0,0.5-0.1c0.4,0.5,0.8,0.3,0.8,0.8c-0.4-0.1-0.6-0.4-1-0.2c-0.5,0.2-0.1,0.1-0.7,0.2l-0.3,0.1c0.2,0.3,0.2,0,0.4,0.5
		c0.1,0.2,0.2,0.3,0.2,0.5c-0.1,0-0.1-0.1-0.2-0.1C43.2,69.5,43.4,69.6,43.1,69.7z M29.5,66.2c0.6,0,0.5,0.5,1,0.9l-0.1,0.4
		c-0.2-0.1-0.1,0-0.2-0.1c-0.4-0.3-0.5-0.1-0.6-0.7C29.5,66.4,29.5,66.5,29.5,66.2z M36.5,66.1c0.1,0.1,0.1,0.1,0.1,0.3
		c0,0.2,0,0.1-0.1,0.2L36.5,66.1z M38.8,68.3C38.8,68.3,38.8,68.3,38.8,68.3C38.8,68.3,38.8,68.4,38.8,68.3c-0.2-0.1,0,0-0.2-0.3
		c-0.2-0.5-0.1-0.9-0.1-0.9c0-0.2-0.1,0,0-0.5c0.1,0.1,0.1,0.3,0.1,0.4C38.7,67.3,38.8,68.1,38.8,68.3z M44.7,67.1
		c0.1-0.4,0.4-0.3,0.7-0.4c0.1,0.2,0.2,0.4,0.1,0.6c-0.3-0.1-0.2-0.1-0.4-0.3C45,67,44.9,67.1,44.7,67.1z M53.1,67.9
		c0.1,0.2-0.1,0,0.1,0.3c0.1,0.2,0.1,0,0.1,0.3c-0.4,0-0.4-0.4-0.6-0.7c-0.3,0-0.4,0.3-0.4-0.2c0.1,0,0.2,0,0.3,0c0.2,0,0,0,0.3,0
		L53.1,67.9z M54.1,67.9c0.4-0.2,0.3-0.2,0.5-0.3c0,0.1,0.6,1,0.2,1c-0.2,0,0.1-0.1-0.3-0.1c-0.1,0.4,0.2,0.4-0.1,0.4l-0.1-0.1
		c0,0,0,0,0,0C54.1,68.1,54.1,68.5,54.1,67.9z M54,69.3c-0.2-0.2-0.1-0.3-0.2-0.5c-0.1-0.3-0.2-0.2-0.3-0.5c0.1-0.1,0.1-0.1,0.3-0.2
		c0,0.1,0.2,0.4,0.2,0.5C54.1,69,54.1,69.2,54,69.3z M52.3,69.2c-0.4-0.3,0.3-0.4,0.3-0.4c-0.1-0.3-0.2-0.1-0.2-0.4
		c0.2,0,0.2,0,0.3,0.2c0,0.1,0.1,0.3,0.1,0.4c-0.2,0.2-0.2,0.1-0.2,0.5L52.3,69.2z M30.3,69H30c0-0.1-0.1-0.2,0.1-0.2
		C30.3,68.9,30.2,68.9,30.3,69z M53.5,69.2c-0.1-0.1-0.2-0.1-0.2-0.3l0.3,0C53.6,69.1,53.6,69.1,53.5,69.2z M31.7,68.8
		c0.3,0.1,0.3,0.2,0.7,0.3c0.3,0.1,0.5,0,0.8,0c-0.1,0.5-0.9,0.2-1.2,0.1C31.6,69.2,31.7,69,31.7,68.8z M31.2,69.4
		c0.2-0.2,0.2-0.2,0.3-0.2C31.5,69.5,31.4,69.5,31.2,69.4z M54.3,69.6l0.2-0.1C54.3,69.6,54.4,69.5,54.3,69.6z M44.7,69.6
		c0.7,0,0.1-0.4,0.7-0.5c0.1,0.1,0.2,0.3,0.2,0.5l0,0.5c-0.1,0.1-0.1,0.1-0.3,0.1C44.6,70.1,44.7,69.8,44.7,69.6z M54.2,75.4
		c-0.2,0,0,0-0.2,0c-0.1,0-0.4-0.1-0.5-0.1c-1-0.1-0.8-0.4-0.7-0.8l0.3-0.7c0,0,0,0,0,0c0.3-0.5,0.8-1.1,1-1.6
		c0.1-0.2,0.1-0.2,0.2-0.4c0.1-0.2,0.1-0.2,0.3-0.3c0.1-0.2,0.1-0.2,0.2-0.3c0.5-0.7,0.8-0.8,1.4-1.2l-0.1-0.2l0.4-0.1
		c0.1,0,0.2,0,0.4,0c0.5,0,0.7,0,0.9,0.3l0.4,0.4c0.3,0.3,0.4,0.9,0.6,1.3l0.1,0.1c0,0,0,0,0,0.1c0,0.1,0,0.1,0.1,0.2
		c0.1,0.2,0.3,0.3,0.5,0.8c0.1,0.3,0.2,0.8,0.5,1.1l0.2,0.9c0,0.2,0.1,0.3,0.1,0.4c0.1,0.1,0.1,0.2,0.2,0.4l0.4,0.7
		c0.1,0.3,0.2,0.5,0.3,0.8c0.2,0.4,0.1,0.5,0.1,1c0,0.2,0.1,0.2,0.1,0.4c0,0.2,0,0.3,0,0.5l-0.1,1.9c-0.1-0.2,0-0.6,0-0.8
		c0-0.2,0-0.1-0.1-0.2c-0.2,0.1-0.2,1-0.2,1.2c0.3,0.2,0.6,0.5,0.9,0.7c0.6,0.3,0.7,1.2,0.5,1.5c-0.4-0.2-0.1-0.8-0.5-0.9
		C62,82.5,62.4,83.9,62,84c-0.3-0.1-0.2-0.1-0.1-0.4c0.1-0.3-0.3-1.4-0.3-1.5c-0.3,0.1-0.1,0.5-0.1,0.8v1c0,0.2-0.2,0.2-0.3-0.1
		c-0.2-0.4-0.2-1.3-0.5-1.6c-0.2,0.2-0.2,0.5-0.1,0.8c0.1,0.2,0.2,0.6,0.2,0.8c-0.5-0.1-0.5-1-0.6-1.4c0-0.2-0.1-0.4-0.1-0.6
		c0.5-0.2,0.3,0.1,0.7,0.1c-0.1-0.4-0.3-0.3-0.4-0.5c-0.2-0.4-0.1-1.2-0.4-1.7c-0.3-0.6-0.7-1.5-0.7-2.2l-0.2-1.3
		c-0.1-0.3-0.5-1.3-0.8-1.4c0,0.3,0.4,0.5,0.4,1c-0.3-0.1-0.2-0.3-0.4-0.4c-0.1-0.1,0,0.1-0.2-0.2c-0.2-0.2-0.3-0.5-0.4-0.7
		c-0.1-0.2-0.2-0.3-0.3-0.5L57,73.4c-0.1-0.2,0-0.1-0.1-0.3c0,0,0,0,0,0c-0.1-0.3-0.3-0.6,0.2-0.5c0.1,0,0.1,0.1,0.2,0.1
		c0,0,0,0,0,0l-0.2-0.3c-0.1-0.1-0.1-0.1-0.3-0.2c-0.2-0.1-0.5-0.3-0.2-0.6c-0.2-0.1,0,0.1-0.2,0c-0.3-0.2-0.2-0.5-0.3-0.8
		c-0.1-0.1,0-0.1-0.1-0.1c-0.1-0.1-0.3-0.1-0.5-0.1l0,0.5c-0.1,0-0.1-0.1-0.2-0.3c-0.2,0.2-0.1,0.1-0.1,0.2
		c-0.1,0.2-0.4,0.3-0.5,0.5c0,0.2,0.1,0.1,0.1,0.3c-0.1,0.1-0.2,0.2-0.1,0.2c0.1,0,0.1-0.1,0.3-0.2c0.2,0,0.1,0.1,0.2,0.1
		c0.1,0.1,0.1,0,0.2,0.1c0.2,0.4-0.2,0.2,0.4,0.5c0,0.9,0,0.5-0.2,1.1c-0.1,0.3,0,0.1-0.1,0.3c-0.1,0.1-0.1,0.1-0.2,0.3
		c-0.2,0.3-0.3,0.4-0.5,0.7C54.6,75.3,54.5,75.3,54.2,75.4z M54,70.8c0.2,0,0.1,0,0.3-0.2c0,0,0,0,0,0l0.3-0.5
		c0.2-0.3,0.3-0.5,0.3-1c0.5,0.1,0.3,0.5,0.6,0.4c0.1,0,0.1-0.1,0.2-0.1l0,0.3c0.3,0.1,0.2,0,0.3,0.2c-0.2,0.1-0.3,0-0.5,0l-0.6,0.4
		c-0.3,0.2-0.3,0.4-0.7,0.9c-0.5,0.6-0.9,1.3-1.2,1.8c-0.3,0.4-0.3,1-0.7,1.3c-0.2-0.3-0.2-0.3-0.2-0.6l1.1-2.2
		c0.1-0.2,0.2-0.1,0.3-0.3l0.2-0.4c0.1-0.3,0.1-0.7,0.4-0.7C54.2,70.4,54,70.6,54,70.8z M31.5,70.1C31.5,70.1,31.5,70.1,31.5,70.1
		l-0.3,0.1C31.3,70,31.4,69.9,31.5,70.1C31.6,70.1,31.5,70.1,31.5,70.1z M36.4,75c0,0.4-0.2,0.4-0.4,0.7l-0.4,0.6
		c-0.5,0.6-0.3,0.6-1,1c-0.6,0.4-0.3-0.2-0.8-0.2c0.7,1.6,2-0.8,2.5-1.4c0.3-0.3,0.1-0.3,0.4-0.6c0.1-0.1,0.1-0.2,0.2-0.3l0.3-0.6
		c0.1-0.2,0.1-0.2,0.3-0.3c0,0.4,0,0.2-0.1,0.4l-0.2,0.4c-0.1,0.2-0.2,0.6-0.3,0.8c-0.3,0.7-0.4,0.9-0.7,1.5c-0.1,0.3-0.4,0.7-0.6,1
		c-0.2,0.2-0.2,0.4-0.4,0.6c-0.2,0.2-0.7,0.8-0.7,0.9c0.5,0,0.8-0.6,1.1-0.9c0.2-0.2,0.1-0.1,0.3-0.3l0,0.2c0,0-0.1,0.1-0.1,0.2
		c-0.1,0.1-0.1,0.2-0.2,0.3c-0.2,0.2-0.3,0.4-0.5,0.6c-0.6,0.9-0.7,0.7-1,1.2c-0.7,0-1.1-0.8-1.4-0.8c0,0.3,0.1,0.2,0.2,0.4l0.3,0.3
		c0.4,0.2,0.7,0.5,1,0.3l0.4-0.4c0.1-0.1,0.1-0.1,0.3-0.3c0.3-0.3,0.5-0.7,0.7-0.9l0.9-1.3c0.1-0.3,0.3-0.4,0.4-0.7
		c0.2-0.6,0.4-0.6,0.5-0.9c0-0.1,0-0.1,0.1-0.2c0.1-0.2,0.1-0.3,0.1-0.4c0.1,0.1,0,0,0.1,0.1c0,0.1,0,0.3-0.1,0.4L37,77.7
		c-0.1,0.2,0,0.1-0.1,0.2l-1.3,2.3c-0.1,0.1-0.2,0.3-0.3,0.4c0,0.1-0.8,0.6-0.9,0.7c0,0-0.1,0-0.1,0c-0.2,0.1-0.5,0.2-0.7,0.2
		c-0.3,0-0.3-0.1-0.4,0.2c0.3,0.2,0.6,0,0.9-0.1l1-0.5c0.2-0.1,0.1-0.1,0.2-0.3c0.3-0.5,0.6-0.7,0.9-1.1c0.2-0.3,0.2-0.3,0.3-0.7
		l0.3-0.7c0-0.1,0.1-0.2,0.2-0.3c0.1-0.3-0.1-0.2,0.2-0.3c0.1,0.2,0,0.6,0,0.8c0,0.3,0,0.1-0.1,0.2c-0.1,0.3,0,0.7-0.1,1.1
		c-0.1,0.5,0.1,0.4-0.3,0.9c-0.1,0.1-0.2,0.2-0.3,0.3c-0.1,0.1-0.2,0.1-0.2,0.3c0.1,0.1,0.1,0,0.3-0.1l0.6-0.6l-0.1,0.4
		c-0.2,0.4-0.7,0.9-1.1,1.1l-1.2,0.3c-0.8,0.2-1.9,0-2.7,0.1l-0.3,0.1c-0.2,0-0.3-0.1-0.6-0.1c-0.4,0-0.2,0-0.4,0.1
		c-0.3-0.2-0.6-0.1-1-0.2c-0.1,0.2-0.1,0.3-0.3,0.3c-0.4-0.2-0.1-0.4-0.2-0.9c-0.1-0.4,0-1.2,0.1-1.6c0-0.2,0-0.3,0-0.5
		c0-0.2,0.1-0.9,0.3-0.9c0,0.7-0.1,1.1-0.1,1.8c0,0.7-0.1,1.4,0.2,1.7c0.1-0.2,0-0.1,0.1-0.3c0.1-0.2-0.1,0,0.2-0.2
		c0.3-0.1,0.2-0.1,0.2-0.4c-0.1-0.8-0.1-0.4,0-1.2c0.1-0.4,0-0.8,0.1-1.3c0-0.2,0-0.5,0-0.7c0-0.3,0.1,0,0.1-0.4
		c0-0.7,0.1-2.4,0.2-3l0.1-0.6c0-0.2,0.1-0.3,0.1-0.5c0-0.2,0.1-0.3,0.3-0.4c0,0.4-0.1,0.2-0.1,0.5l-0.2,2.7c0,0.6-0.1,2.7,0.1,3.2
		c0.1,0.1,0,0.2,0.1,0.4c0,0.2,0.1,0.2,0.2,0.3c0.1,0.1,0.4,0.5,0.6,0.5c0.1-0.4-0.3-0.3-0.5-0.9L31,79.9c-0.2-0.3,0-3.3,0-3.8
		c0-0.2,0.1-0.3,0.1-0.4c0-0.3,0,0-0.1-0.2c0-0.3,0,0.2,0-0.1l0.1-0.9c0.2,0.3,0,1,0,1.4c0.1,0.5,0,0.9,0,1.3c0,0.3,0.1,0.3,0.1,0.8
		c0.2,0,0.2,0.1,0.1-0.4c-0.1-0.5,0-1.1,0-1.6c0-0.3-0.1-0.3-0.1-0.5c0-0.2,0.1-0.1,0.1-0.4c0-0.2,0-0.4,0-0.6
		c0-0.2,0.1-0.3,0.1-0.5c0-0.3-0.1-0.3-0.1-0.5c0-0.2,0-0.1,0-0.2c0-0.6-0.1-1.3,0.1-1.8c0.1-0.4-0.2-1.2,0.3-1.2c0,0.4,0,0.6,0,1
		l0.1,0.9c0,0.2,0,0.3,0,0.5l0.1,0.4c0.1,0.2,0.1,0.2,0.2,0.4c0,0,0.1,0.1,0.1,0.2c0.1,0.1,0,0.1,0.1,0.1c0-0.5-0.3-0.8-0.3-1.3
		c0,0,0,0,0,0c0,0,0,0,0,0c0,0,0,0,0,0c0,0,0,0,0,0c0.3,0.1,0.1,0.4,0.2,0.6c0.1,0.2,0.2,0.5,0.3,0.1c0-0.2-0.1-0.3-0.1-0.4
		c-0.1-0.2,0-0.5-0.1-0.7c0-0.2,0,0-0.1-0.2c-0.1-0.4,0.1-0.5-0.1-0.9c-0.1-0.2-0.1-0.2-0.1-0.4c0-0.3-0.1-0.2,0.2-0.3
		c0.6-0.3,0.4,0.6,0.4,1l0.4,1.2c0.1-0.2,0-0.4-0.1-0.6c-0.1-0.3,0-0.3,0-0.6l0.6,1.3c0.2,0.4,0.4,0.9,0.8,1
		c-0.1-0.2-0.2-0.4-0.4-0.6c-0.1-0.2-0.1-0.4-0.3-0.6c-0.1-0.2-0.1-0.1-0.2-0.4l-0.4-1.2c0-0.1,0-0.2,0-0.2l-0.1-0.3
		c0-0.1,0-0.1,0.1,0c0.1,0.1,0.1,0.2,0.2,0.3c0.2,0.4,0.6,0.8,0.8,1.2c0,0,0,0,0,0c0.3,0.5,0.9,1.3,1.6,1c-0.2-0.1-0.5-0.2-0.7-0.4
		C35.1,72,35,72,34.9,71.6c-0.3-0.5-0.7-0.9-0.7-1.5c-0.1-0.1-0.2,0-0.3-0.2l0.8,0c0.6,0,2.1,0.3,2.3,1c-0.2,0.2-0.1,0-0.2,0.3
		c0.2,0.3,0.8,0.7,0.1,1.4c-0.3,0.3-0.2,0.4-0.6,0.5c-0.2,0.1-0.5,0.2-0.5,0.5c0.2,0,0.6-0.3,0.9-0.4c-0.1,0.2-0.1,0.2-0.2,0.3
		c-0.2,0.1-0.1,0-0.3,0.2c-0.3,0.3-0.3,0.1-0.7,0.2c0,0.3,0.3,0.2,0.6,0.1c0.4-0.2,0.4-0.1,0.6-0.3c0.1-0.1,0.1-0.2,0.2-0.2
		c0.2,0-0.1,0.4-0.1,0.5c-0.4,0.7-0.9,1.2-1.5,1.7l-0.4,0.5c0.2-0.1,0.4-0.2,0.5-0.3c0.3-0.2,0.6-0.4,0.8-0.7L36.4,75z M46.3,70.2
		c0.7-0.1,0.7-0.2,0.8,0.2c-0.4,0,0.1-0.1-0.3-0.1l-0.1,0.4c-0.1,0-0.1,0-0.2-0.2C46.3,70.4,46.3,70.3,46.3,70.2z M47.2,71.1
		c-0.2,0-0.3,0-0.4,0c-0.9-0.1-1.3-0.4-2.4-0.1c-0.2,0-0.2,0-0.4,0c-0.6,0.1-0.4,0.1-0.5-0.3c-0.3-1.1,0.2-0.7,0.5-0.7
		c0.3,0,0.2,0,0.4,0.1c0.3,0.1,0.5,0,0.8,0.1c-0.2,0.1-0.3,0-0.4,0.2c0.1,0.2,0,0,0.2,0.1l0.2,0.1c0.4,0.2,0-0.1,0.4-0.1
		c0.3,0,0.4,0.1,0.6,0c0.1,0.1,0.2,0.2,0.3,0.3c0.1-0.1,0.3-0.1,0.4-0.2c0.2-0.2,0-0.2,0.3-0.3V71.1z M46.1,70.3
		C46.2,70.3,46.2,70.3,46.1,70.3c-0.1,0.2-0.5,0.3-0.6,0L46.1,70.3z M55.7,70.8c0.2,0,0.1,0,0.1,0.1C55.6,70.9,55.7,71,55.7,70.8z
		 M30.4,72c0-0.2,0.2-0.5,0.2-0.6c0.2-0.6,0.1-0.5,0.3-0.5c0.1,0.2-0.1,0.4-0.1,0.5c-0.4,1-0.2,0.5-0.4,1.1c-0.1,0.4,0,0.3-0.2,0.5
		c-0.1-0.1-0.1-0.2,0-0.4C30.4,72,30.4,72.7,30.4,72z M39.9,74.9c-0.1-0.4-0.3-0.8-0.4-1.1l-0.3-1c0,0-0.1-1.8,0-1.9l0.6,0.3
		c0.4,0.1,0.4-0.2,0.7,0.3c0.1,0.2,0.1,0.2,0.3,0.3c0.2,0.1,0.4,0.2,0.6,0.3c-0.1,0.2-0.1,0.1-0.1,0.2c0,0.1,0,0.1,0,0.2
		c0,0.1-0.1,0.3-0.1,0.5c-0.1,0.4-0.3,1.5-0.3,2c0,0.3,0,0.1-0.1,0.3l0,0.2c0,0.4,0,0.1-0.2,0.4c0.1,0.3,0.1,0.1,0.2,0.4
		c0,0.3,0.2,1.1,0.4,1.3c0,0,0,0,0.1-0.1l0.2-0.6c0.2-1,0.4-1.1,0.4-2.4c0.7,0,1.2,0.3,1.7,0.5c0.3,0.2,0.2,0.2,0.4,0.5
		c0,0.1,0.1,0.1,0.1,0.1c0.1,0.2,0.1,0.2,0.1,0.5c0,0.3,0.1,0.2,0.1,0.4v4.1c0,0.2-0.7,2.2-0.9,2.6c-0.2,0.5-0.2,0.8-0.6,1.2
		c-0.1,0.1-0.4,0.3-0.4,0.5c-0.1,0.2,0,0.6,0.1,0.7c0.1-0.1,0.1-0.2,0.2-0.4c0.1-0.2,0.5-0.5,0.7-0.6c0.1-0.1,0.1-0.1,0.2-0.1
		l0.6-0.3c0.5-0.2,1-0.4,1.4-0.6c0.3-0.2,0.5-0.1,0.9-0.3l1.2-0.5c0.1,0,0,0,0.1-0.1c1.1-0.7,0.4,0,1.1-0.5c0.3-0.2,0.3,0,0.6,0.2
		c0.1,0.1,0.3,0.1,0.4,0.3c-0.2,0.3-0.3,0.2-0.7,0.3c-0.2,0.1-0.4,0.2-0.6,0.3c0.2,0,0.2,0,0.3,0.1c-0.3,0.3-0.7,0.2-1.1,0.4
		c0.3,0.2,1.1,0,1.4-0.2c0.2-0.1,0.1-0.1,0.3-0.1c0,0.2-0.3,0.3-0.4,0.4c-0.8,0.5-0.4,0.1-0.8,0.4c-0.1,0.1-0.1,0.1-0.2,0.2
		c-0.4,0.3-1.5,0.3-2.1,0.5L44.9,85c0.1,0.1,0.1,0.1,0.3,0.1c0.3,0,0.6-0.1,0.9-0.1c0.1,0,0.2,0,0.3-0.1l0.8-0.2
		c0,0.4-0.6,0.6-1,0.7c-0.8,0.3-0.6,0.5-1.6,0.5l-1.2-0.2c-0.1,0-0.1,0-0.2-0.1c-0.2-0.1-0.1-0.2-0.3-0.1c0.2,0.1,0.5,0.3,0.8,0.4
		c0.4,0.1,0.8,0.2,0.8,0.3c-0.2,0.1-0.7,0.1-0.9,0.1c-0.3-0.1-0.1-0.1-0.4-0.1c-0.2,0-0.3,0-0.4,0c0,0.3,0.2,0.3,0.4,0.4
		c0.2,0,0.5,0,0.7,0.2c-0.7,0.1-0.6,0.1-0.9-0.1c-0.3-0.1-0.3,0-0.5-0.1c-0.2-0.1-0.2-0.4-0.2-0.6c-0.2-0.5,0-0.6,0-1
		c0-0.4-0.3-2.1-0.5-2.5l-0.2-0.8c-0.1-0.2-0.1-0.2-0.1-0.4c-0.1-0.2,0-0.3,0-0.5c0.2-1,0.1-1.1-0.2-2c0-0.1,0-0.1,0-0.1L41,78.2
		c-0.2-0.4-0.2-0.9-0.4-1.4l-0.5-1.5c0-0.1-0.1-0.2-0.1-0.3C39.9,75,39.9,75.1,39.9,74.9z M32.2,71.2c0.1,0.2,0.2,0.4,0.1,0.5
		l-0.2-0.7C32.2,71.1,32.1,71.1,32.2,71.2C32.2,71.2,32.2,71.2,32.2,71.2z M45.8,71.6c-0.3-0.2-0.1-0.3-0.1-0.3
		c0.1,0,0.7,0.1,0.4,0.5C45.9,71.8,46.1,71.8,45.8,71.6z M54.2,71.5c-0.2-0.1,0-0.1,0-0.1c0,0,0,0,0,0L54.2,71.5
		C54.3,71.5,54.2,71.5,54.2,71.5z M37.9,71.4c0.1-0.2,0-0.1,0.1-0.3c0.1,0.1,0.6,0.6,0.4,0.9c-0.1,0.2-0.2,0-0.6-0.2
		c-0.3-0.1-0.3-0.1-0.3-0.5L37.9,71.4z M44.1,71.4c0.8,0,1-0.4,1.4,0.3c0.1,0.2,0.2,0.2,0.3,0.3l-0.2,0.1c-0.2-0.1-0.5-0.6-1.1-0.3
		c-0.3,0.2-0.3,0.5-0.5,0.7c-0.1,0.2-0.1,0-0.2,0.2c0.1,0.2,0,0.1,0.3,0.1c0,0.3-0.1,0.3-0.5,0.7c0.1,0.2,0.1,0.1,0.2,0.3l-0.1,0.3
		c-0.7,0-0.4,0-1.1-0.3c-0.1-0.1-0.2-0.1-0.3-0.2c-0.4-0.2-0.4,0-0.6-0.3c-0.1-0.2-0.2-0.4-0.1-0.7c0.6-0.1,0.6,0.1,1.2-0.1
		c0.1-0.1,0.3-0.1,0.4-0.1C43.4,72.4,44.1,71.5,44.1,71.4z M46.6,71.9c0.1-0.1-0.1-0.2,0.2-0.1C46.7,72,46.8,72,46.6,71.9z
		 M51.2,73.7c-0.1-0.2,0-0.4,0.1-0.5c0.3-1.1,0.1,0,0.4-1c0.1-0.2,0.1-0.2,0.3-0.3c0,0.1-0.1,0.3-0.2,0.5c-0.1,0.2-0.2,0.3-0.2,0.4
		c-0.1,0.2,0.1,0.2,0.1,0.6c0,0.2,0,0.4,0,0.6c0.1,1.1,0.5,0.8,0.8,1.3c0.3,0.5,0.5,0.5,0.8,0.6c0.2,0,0.5,0.3,0.9,0.4
		c0.3,0.1,0.1,0.1,0.5,0.1c0.2,0,0.3,0.1,0.5,0.2c0.3,0.1,0.1,0,0.4-0.1c0.3-0.1,0.6,0.3,0.9,0.3c-0.1,0.3-0.2,0-0.4,0l-0.7,0
		c-0.1,0-0.1,0-0.1,0.1c0.1,0.1,0.4,0.3,0.5,0.4c0.3,0.1,0.5,0.1,0.5,0.4c-0.4,0-1.1,0.1-1.5-0.1c-0.1-0.1,0,0-0.2-0.1
		c-0.2-0.1-0.3-0.1-0.3-0.3c0.3,0.1,0.4,0.3,0.8,0.2c-0.1-0.2-0.1-0.2-0.3-0.3l-0.8-0.2c-0.2-0.1-0.2-0.1-0.4-0.1
		c0.6,0.8,0,0.6-0.1,0.6c-0.2,0-0.1,0.1-0.3,0c-0.2-0.1-0.4-0.3-0.4-0.6c0.3-0.1,0.2,0.1,0.3-0.2c0-0.3,0-0.2-0.2-0.4
		c-0.4-0.3-0.1-0.1-0.3-0.2c-0.1,0.2,0.1,0.3,0.1,0.6c-0.4-0.1-0.6-0.6-0.7-0.7c-0.2,0.2,0.2,0.4-0.1,0.4c-0.3,0-0.2-0.4-0.6-0.6
		c0-0.1,0-0.2,0-0.3c0-0.2-0.1-0.3-0.1-0.5l0.3,0.1c0.3,0,0.1-0.3,0-0.5c0-0.2,0-0.3-0.1-0.5c-0.2-0.6,0.1-0.4,0.1-0.9
		c0-0.2,0,0-0.1-0.2c-0.2,0.1,0,0-0.1,0.2c0,0,0,0,0,0L51.2,73.7z M53.5,72.6c0.1-0.3,0.3-0.5,0.4-0.7c0.1,0.1,0.1,0.1,0,0.2
		c0,0-0.1,0.1-0.1,0.2C53.5,72.7,53.7,72.6,53.5,72.6z M31.1,72.3c-0.2-0.3,0-0.3,0-0.3c0,0.1,0.1-0.1,0.1,0.2
		C31.1,72.3,31.1,72.2,31.1,72.3z M46.6,72.6c0.1-0.1,0.1,0,0.3,0c-0.1,0.1,0,0.1-0.2,0.2L46.6,72.6z M53.1,73.2
		c-0.1-0.2,0-0.1,0.1-0.1C53.2,73.2,53.2,73.2,53.1,73.2z M46.9,73.4c-0.2,0.2-0.4,0.2-0.4-0.2C46.8,73.1,46.7,73.2,46.9,73.4z
		 M49.6,77.3c0-0.2,0-0.1,0-0.3c0-0.1,0,0,0-0.1c0-0.1,0-0.1,0-0.1c-0.1-0.4,0-0.3,0-0.6c0.1-0.4-0.2-0.7,0-1.1
		c0.1-0.2,0.1-0.3,0.1-0.6c0-0.5,0-0.3,0.1-0.6l0.2-0.6c0.1-0.2,0.1-0.2,0.3-0.3c0,0.2-0.1,0.4-0.1,0.5c-0.4,0.7-0.2,0.7-0.3,1.1
		c-0.2,0.5,0,0.8-0.1,1.5C49.7,76.9,49.9,77,49.6,77.3z M30.1,73.4c0.1-0.1-0.2,0,0.1-0.1C30.2,73.5,30.3,73.4,30.1,73.4z
		 M52.9,73.7c0-0.2,0-0.3,0.2-0.4L52.9,73.7z M38.9,73.9c-0.1-0.2-0.2-0.4-0.1-0.6c0.1,0.2,0.3,0.5,0.2,0.7C39,74,39,74,38.9,73.9z
		 M30.1,73.6c0.1,0.1,0.1-0.1,0.1,0.2C30,73.8,29.9,73.9,30.1,73.6z M45.6,72.5c0.1,0,0.3-0.2,0.4-0.3c0.1,0.2,0.1,0.5,0.1,0.9
		c0,0.4,0,0.6,0.1,0.9c0,0.7,0,1.3,0,2c0,0.8,0.1,0.5,0.1,0.9c0,0.3,0,0.6,0,0.9c0,0.1,0.1,3.3,0,3.4c-0.2-0.2,0-0.2-0.3-0.2
		c-0.2,0-0.3,0-0.4,0.1c0.2,0.2,0.1,0,0.3,0.2c-0.1,0.3-0.2-0.2-0.3,0.5c-0.1-0.1,0,0-0.1-0.1l0-0.1c-0.1-0.5-0.2-0.2-0.2-0.3
		c0,0,0,0,0,0c0.4-0.5-0.6-0.3-0.6-0.3c-0.1-0.4-0.2-3.2-0.1-3.8c0-0.3,0-0.3,0-0.6c0-0.9,0-0.5-0.1-1.3c-0.1-0.5,0-1,0-1.4
		c0-0.2-0.1-1.3,0.1-1.4c0.4-0.1,0.1,0.1,0.5-0.1C45.4,72.3,45.1,72.5,45.6,72.5z M47.7,74.5c0.1-0.2,0.3-0.3,0.5-0.4
		c0.1,0,0.5-0.2,0.6-0.2c0.1,0-0.1,0.9-0.1,1.2c0,0.4,0,0.1,0.1,0.3c0,0.1,0,0.2,0,0.3c0,0.3,0,0.3,0.1,0.5c0,0.4-0.1,0.7-0.1,1
		c-0.1-0.1,0,0-0.1-0.1l-0.1-0.3c-0.2-0.7,0.1-1.1-0.2-1.4c-0.1,0.2,0,0.7-0.1,0.9c-0.1-0.1-0.2-0.1-0.2-0.4c0-0.2,0.1-0.3,0.1-0.4
		l-0.2-0.6c-0.2,0.1-0.1-0.1-0.2,0.2c-0.1,0.3,0,0.4,0,0.6c0,0.2,0,0.1,0,0.3c0,0.3,0.1,0.2,0.1,0.3c0.1,0.9-0.2,0.1-0.2,1.8
		c0,0.4,0,0.5-0.1,0.7c-0.1-0.1-0.1-0.3-0.1-0.5c0-0.4,0-0.2-0.1-0.5c0-0.2,0-0.4,0-0.5c-0.1-0.3-0.2-0.1-0.3-0.5c0,0,0-0.1,0-0.1
		c-0.2-0.4,0-0.2,0-0.5c0-0.1-0.1-0.5-0.1-0.9c0-0.2,0.1-0.1,0.1-0.4c0-0.2,0-0.3,0.2-0.4c0.3-0.1,0.2,0.5,0.2,0.8
		c0,0.8,0.1,0.3,0,0.8c0,0.2,0,0.1,0.1,0.4c0,0.3-0.1,0.3,0.1,0.4C47.7,76.3,47.7,75.4,47.7,74.5z M52.5,74.8
		c-0.2-0.1-0.1,0-0.1-0.2c0-0.2,0.2-0.5,0.4-0.6c-0.2,0.2,0.1,0-0.2,0.4c-0.1,0.1,0,0-0.1,0.2C52.5,74.8,52.6,74.7,52.5,74.8z
		 M51.4,74.3c-0.2-0.1-0.1,0-0.2-0.1C51.2,74,51.4,74.1,51.4,74.3z M56.5,74.2c0-0.3,0-0.3,0.2-0.4l0.3,0.3
		C56.8,74.4,56.8,74.3,56.5,74.2z M39.1,74.1c0.3,0.3,0.1,0.3,0.3,0.7l1.6,4.7l-0.5,0c-0.3-0.8-0.4-1.3-0.6-2
		c-0.1-0.2-0.1-0.5-0.2-0.6l-0.1-0.3c-0.1-0.4,0-0.4-0.2-1.1c0-0.1,0-0.3-0.1-0.4c-0.1-0.3-0.1-0.1-0.2-0.6
		C39.1,74.2,39.1,74.2,39.1,74.1z M51.4,74.5c0,0.2,0,0.1-0.1,0.2c-0.1-0.1-0.2-0.1-0.1-0.3C51.3,74.4,51.4,74.3,51.4,74.5z
		 M56.5,74.2c0.1,0.3,0.1,0.1,0.3,0.2c0.2,0.1,0,0.2,0.3,0.5c0.2,0.2,0.4,0.6,0.5,0.9c-0.1,0.1-0.1,0.1-0.3,0.2
		c-0.5-0.3-0.4-0.5-0.5-0.8c-0.1-0.3-0.1-0.2-0.1-0.6c-0.1,0.1-0.2,0.2-0.3,0.3c-0.1,0.2-0.1,0.1,0,0.3c0.1,0.3,0,0.6-0.3,0.6
		c-0.1-0.1-0.1-0.3-0.1-0.4c0.1-0.4,0-0.4,0.1-0.7c0.1-0.2,0.1,0,0.1-0.3c0,0,0-0.2,0-0.3L56.5,74.2z M36.4,75c0-0.1,0-0.1,0.1-0.2
		c0.2,0.1,0.1-0.1,0.1,0.1L36.4,75z M53.1,75.6c0.1-0.1,0.1-0.1,0.3,0c0,0,0,0.1-0.2,0.1C53.1,75.6,53.1,75.6,53.1,75.6z M54.7,75.8
		c-0.2,0-0.2-0.1-0.2-0.3l0.2,0.1C54.7,75.7,54.7,75.7,54.7,75.8C54.8,75.8,54.7,75.7,54.7,75.8z M53.8,75.8c-0.3-0.1-0.1,0-0.1-0.2
		C53.8,75.7,53.8,75.6,53.8,75.8z M54.1,75.6h0.1c0,0.2,0,0.1-0.1,0.2L54.1,75.6z M56.8,75.7l0,0.2C56.5,75.7,56.6,75.7,56.8,75.7z
		 M54.6,76c-0.1,0.1-0.1,0.1-0.3,0C54.3,75.8,54.4,75.9,54.6,76z M38,75.9C38.1,75.9,38.1,75.9,38,75.9c0.1,0.2,0.1,0.1,0.1,0.2
		c0,0,0,0.2,0,0.2c0,0.1,0,0.3,0,0.5c0,0.7,0,0.6,0.1,0.9c0.1,0.8-0.1,0.6-0.1,1.1c0,0.2,0.1,0.8-0.1,1c-0.5,0.3-0.3-0.6-0.3-0.8
		c0-0.2,0-0.4,0-0.6c0-0.3,0.1-0.1,0.1-0.5C37.8,77.8,38,75.9,38,75.9z M51,80.2c-0.2-0.2-0.2-0.2-0.4-0.4c-0.2-0.3-0.2-0.2-0.2-0.7
		l-0.1-1.6c0-0.3-0.1-0.1-0.1-0.3c0-0.2,0.1,0,0-0.3c0-0.2-0.1,0.1,0-0.3l0-0.1c-0.1-0.6,0-0.4,0-0.8c0-0.3-0.1-0.5,0.2-0.7l0,0.9
		l0.3,0.2c-0.1,0.2-0.1,0.2-0.3,0.3c0,0.3-0.1,1.5,0.1,1.7c0.1-0.2,0.1-0.3,0.2-0.6l0.2-0.5c0,0,0,0,0,0.1c0.1,0.5-0.2,0.9-0.2,1.4
		c0,0.3-0.1,0.4,0.2,0.4c0-0.3,0-0.4,0.1-0.7c0.1-0.3,0.1-0.5,0.3-0.6c0.1,0.3,0,0.8,0,1.1c0.5-0.3,0-1.1,0.5-1.4
		c0.1,0.5-0.1,1,0.1,1.5c0.3-0.4,0.1-1,0.3-1.5c0.3,0.1,0.2,0.4,0.2,0.7c0,0.5-0.1,0.7,0.1,0.8c0.1-0.5-0.1-0.6,0.2-1.2
		c0.2,0.1,0,0,0.2,0.2c0.1,0.1,0,0,0.2,0.1c0.2,0.1,0.1,0.2,0.4,0.2c0-0.3-0.3-0.3-0.3-0.5c0.3,0,0.9,0.4,1,0.7
		c0.1,0.1,0.5,0.9,0.7,0.8c0.1-0.1,0.1,0.1,0-0.1c0,0-0.3-0.3-0.4-0.7c0.2,0,0.1,0,0.3,0.2c0.2,0.3,0.3,0.6,0.7,0.6
		c-0.2-0.2-0.6-0.8-0.5-1c0.3,0.1,0.2,0.2,0.3,0.4l0.6,0.7c0.2,0.1,0.1,0.2,0.3,0.4c0.2,0.2,0.5,0,0.5,0.4c-0.5-0.1-0.8-0.4-1.3-0.5
		c0.1,0.2,0.2,0.3,0.3,0.5c0.2,0.2,0.3,0.1,0.4,0.3c-0.1,0.1-0.7,0.2-0.9,0.2c-0.7,0-0.6,0.1-0.8,0.2c-0.2,0-0.3-0.1-0.7-0.1
		c-0.3,0.1-0.1,0.1-0.4,0c-0.2,0-0.1,0-0.4,0c0,0.3,0.1,0.2,0.3,0.2c0.2,0.1,0.2,0.2,0.4,0.2c0.1,0,0.4,0,0.5,0.1
		c0.2,0,0.2,0.1,0.4,0.1c0.3,0,0.3,0,0.5,0c0.1,0,0.3,0.1,0.4,0.1c0.4,0.1,0.6,0,0.6,0.5c0.3,0,0.3-0.1,0.5-0.3
		c0,0.2-0.1,0.2-0.2,0.4c-0.4,0.5-0.3,0.2-0.1,0.7c0,0.2,0,0.2,0,0.4c0,0.2,0.1,0.2,0.1,0.3c0,0.1,0,0.2-0.1,0.3L56.2,83
		c-0.1-0.3-0.1-0.3-0.3-0.4c0,0.2,0.3,0.6,0.2,1.1c0,0.1-0.1,0.2-0.2,0.3c-0.1-0.2,0-0.2-0.2-0.4c-0.1-0.1-0.1-0.2-0.2-0.3
		c0,0.4,0,0.3,0.1,0.5c0.1,0.3,0,1.3-0.2,1.4c-0.1-0.2-0.2-0.5-0.3-0.8c-0.1-0.2-0.2-0.5-0.5-0.6l0.2,0.4c0.1,0.1,0.1,0.3,0.1,0.4
		c0,0.2,0.2,0.7,0.1,0.9c-0.1,0.1,0,0.1-0.1,0c-0.2-0.1-0.3-0.7-0.4-0.9c-0.2-0.4-0.4-0.6-0.7-0.8l-1.1-0.8
		c-0.2-0.1-0.5-0.3-0.8-0.4l0-0.1c0,0,0.7,0.1,0.7,0.2l0.6,0.2c0.2,0.1,0.9,0.5,1,0.4c-0.1-0.1-0.1-0.1-0.2-0.2c0,0,0,0,0,0
		l-1.1-0.6c-0.2-0.1-0.3-0.2-0.6-0.2v-0.1c0.4,0,0.7,0,1,0.1c0.2,0.1,0.6,0.3,0.8,0.1c-0.1-0.2-0.3-0.3-0.5-0.4
		c-0.3-0.1-0.3-0.1-0.6-0.1c-0.3,0-0.4-0.1-0.7,0c-0.2,0-0.5,0.1-0.7,0.1c0.1-0.3,0-0.1,0.2-0.1l0.2-0.1c0,0,0,0,0,0
		c0.2-0.1,0.2,0,0.4-0.1c0.1,0,0.1-0.1,0.3-0.1c0.1,0,0.2,0,0.4,0l0.8-0.2c0.1,0,0.1,0,0.1-0.1c-0.3-0.1-0.4,0-0.6,0
		c-0.3,0.1-0.4,0-0.6,0c-0.3,0-0.3,0.1-0.4,0.1c-0.4,0.1-0.3,0.1-0.7,0.2c-0.2,0.1-0.3,0.2-0.5,0.3l-0.5,0.2
		c-0.3,0.2-0.4,0.7-0.8,0.6c0-0.2,0,0,0.1-0.2c0-0.1,0-0.2,0-0.3c0-0.2,0.2,0,0.3-0.3c-0.3-0.2-0.8-0.1-0.8-0.6c0-0.3,0-0.2,0.2-0.5
		c0.1-0.1,0.1-0.4,0.3-0.4l0,0.1c0,0.2,0.1,0.3,0.2,0.5c0.2,0.3,0.1,0.4,0.4,0.5c0.2-0.4-0.4-1.1-0.1-1.3c0.1,0.1,0.1,1.1,0.6,1.2
		c0.1-0.2,0-0.3-0.1-0.5c-0.1-0.2-0.1-0.3-0.1-0.6c0.3,0,0.3,0.1,0.5,0.1c0.2,0.1,0.2,0.2,0.4,0.3c0-0.5-0.2,0-0.2-0.4
		c0.2-0.1,0.5,0,0.7,0.1c0.2,0,0.2,0,0.4,0.1c0.3,0.1,0.1,0,0.3,0.2c-0.1-0.5-0.7-0.4-1-0.7c-0.2-0.2,0-0.1-0.2-0.3
		c-0.2,0-0.2,0.1-0.4,0.1C51.2,80.1,51.2,80.1,51,80.2z M38.4,74.8c0.2,0.2,0.2,0.6,0.3,0.9c0,0.2,0.1,0.3,0.1,0.5
		c0.2,0.4,0.1,1.3,0.4,2c0.2,0.4,0,0.4,0.2,0.4c0.1-0.3-0.3-0.9-0.1-1.2c0.2,0.1,0.1,0,0.1,0.3c0,0.2,0,0.2,0.1,0.3l0.4,1.2
		c0.1,0.3,0.1,0.1,0.2,0.4l0.1,0.3c-0.2,0.1-0.3,0-0.5-0.1c-0.2,0.1-0.1,0-0.3,0.1c-0.6,0.2-0.5-0.1-0.8,0.1c0-0.4,0.1,0,0-0.6
		c-0.1-0.5-0.1-2.3-0.2-2.6C38.4,76.6,38.4,75.1,38.4,74.8z M39.4,77.2c-0.2-0.1,0,0.1-0.2-0.4C39.3,76.8,39.4,76.7,39.4,77.2z
		 M58,77.1c0-0.2,0.1-0.2,0.3-0.2l0,0.3L58,77.1z M57.7,77.2c0,0.2-0.1,0.2-0.2,0.3c-0.2-0.1-0.3-0.1-0.3-0.4
		C57.5,77.1,57.4,77.1,57.7,77.2z M56.7,77.4c0-0.2-0.1-0.1,0.1-0.1C56.8,77.4,56.8,77.4,56.7,77.4z M51.7,77.5c0,0-0.4,0.1-0.1-0.4
		C51.7,77.3,51.7,77,51.7,77.5z M48.8,77.7c0-0.1,0.1-0.1,0.1-0.2c0.1,0.2,0.1,0.1,0,0.3C48.9,77.8,48.8,77.9,48.8,77.7z M59.4,81.4
		c-0.3,0.1-0.1,0.2-0.4,0.2c0-0.5-0.3-0.6-0.3-0.8c0-0.2,0.1-0.3,0.2-0.4c0.1-0.3,0.2-1.2,0.1-1.5c-0.1-0.3-0.1-0.6-0.1-0.8l0.1,0.2
		c0.2,0.8,0.2,0.8,0.5,1.4c0.2,0.4,0.3,0.5,0.3,0.7C59.8,81.3,59.7,81.2,59.4,81.4z M57.5,78.6c-0.3,0-0.1,0-0.2-0.2
		c-0.1-0.2-0.1,0-0.2-0.2l0.2,0.1c0,0,0,0,0,0C57.5,78.4,57.5,78.4,57.5,78.6z M56.4,78.5c-0.2,0-0.2,0-0.2-0.2
		C56.3,78.3,56.3,78.3,56.4,78.5z M56.8,78.9C56.8,78.8,56.9,78.8,56.8,78.9C56.9,79,56.8,78.9,56.8,78.9z M46.5,77.4
		c0.3,0,0.4,0.3,0.5,0.6c0.1,0.5-0.1,0.7,0.1,1.2c0.1,0.4,0,0.5,0.2,1c0.1,0.1,0.1,0.2,0.1,0.4l0.3,0.7c0.1,0.3,0.2,0.3,0,0.4
		c0,0-0.1,0.1-0.2,0.1c-0.2,0.1-0.7-0.5-0.7-0.5c-0.1-0.1-0.1-0.2-0.2-0.3c-0.1-0.1-0.2-0.1-0.2-0.3V77.4z M57.1,81
		c0-0.2,0-0.1,0.2-0.3c0,0.1,0,0.1-0.1,0.2C57.1,81,57.2,80.9,57.1,81z M58,80.8c0,0,0.1,0.1-0.1,0.1c-0.2,0,0,0-0.1-0.1L58,80.8z
		 M36.6,82.3c0.2,0.1,0,0,0.2,0.2c0.1,0.1,0.1,0.1,0.2,0.1c0.4,0.2,0.4-0.1,0.6-0.4l0.6-0.8c0.2-0.3,0.1-0.3,0.4-0.6
		c0.1-0.1,0.2-0.2,0.4-0.3l0.9-0.2c0.4,0,0.4,1.4,0.4,1.7c0.1,0.4-0.1,0.9,0.1,1.2c0.2-0.1,0.1,0,0.1-0.3l0.1-0.7c0,0,0-0.1,0-0.1
		c0-0.1,0,0,0-0.1c0.2,0.2,0.1,1.5,0.2,1.9c0,0.3,0.1,0.2,0,0.4c0,0.3-0.1,0.6-0.2,0.8c0,0,0,0.1,0,0.2c-0.1,0.3-0.4,0.7-0.2,0.9
		c0.3-0.2,0.1-0.4,0.5-0.6c0,0.4,0.2,0.3,0.2,0.6c0,0.4-0.1,0.4-0.1,0.5l0.1,1.1c0.3-0.1,0.3-0.2,0.2-0.5c0-0.3-0.1-0.5,0-0.7
		l0.2,0.2c0.1-0.2,0-0.1,0.2-0.2c0,0.1,0.1,0.1,0.1,0.2c0,0.5-0.1,0.7,0.3,1.2l0.4,1.1c-0.1,0.3-0.6,0.3-0.9,0.4l-0.6,0.3
		c-0.2,0.1-0.1,0-0.3,0.1c-0.2,0.1-0.4,0.3-0.6,0.3c-0.1-0.2-0.1-0.2-0.1-0.5c0-1.1,0.1-1.7-0.3-2.8c-0.1-0.2,0-0.5-0.1-0.8
		c0-0.2,0-0.1-0.1-0.2l0,0.5c0,0.6,0.1,0.7,0.1,1c0,0.6,0.2,1.7-0.1,2.3c-0.1-0.3-0.1-0.8-0.1-1.1c0-0.4,0.1-0.5-0.1-0.9
		c-0.2-0.3-0.3-0.9-0.5-1.4c-0.3-0.9,0.1-1.3,0.3-1.8l0.2-0.4l-0.4,0.3c-0.1,0.1-0.1,0.2-0.2,0.4c-0.2,0.3-0.2,0.6-0.4,0.8
		c-0.1-0.1-0.3-0.3-0.3-0.4c-0.2-0.4-0.8-1.2-0.7-1.5c0.3,0,0.3,0.2,0.5,0.4c0.2,0.1,0.5,0.2,0.7,0.2c0.4-0.1,0.8-0.8,0.8-1.2
		c-0.2,0.1-0.2,0.1-0.3,0.3c-0.1,0.2-0.2,0.4-0.4,0.6c-0.3,0.2-0.3,0.2-0.5,0.1c-0.1-0.1,0,0-0.1-0.1c0.2-0.3,0.5-0.4,0.5-0.7
		c-0.3,0.1-0.5,0.4-0.8,0.2c0.1-0.1,0.4-0.2,0.5-0.4c0.4-0.5,0.5-0.9,0.7-1.5c0.1-0.3,0-0.3,0-0.3c-0.2,0.1-0.2,0.3-0.3,0.6
		c-0.1,0.3-0.2,0.6-0.4,0.8c0,0-0.1,0.1-0.1,0.2c-0.2,0.3-0.5,0.4-0.9,0.3l-0.1,0c-0.1,0,0,0-0.1,0c-0.1,0-0.3-0.3-0.3-0.5
		L36.6,82.3z M56.1,81.1c-0.2-0.1-0.8-0.1-1-0.2c0.1-0.2,0.2-0.2,0.4-0.1c0.3,0,0.2,0,0.4,0.2c0.3-0.1,0.6-0.2,0.5,0.3
		C56.1,81.2,56.2,81.2,56.1,81.1z M44.3,81.8c0-0.2,0.2-0.4,0.3-0.5c0.2,0.3-0.1,0.3,0.8,0.3c0,0.1-0.1,0.1-0.2,0.2
		c-0.4,0.3-0.6,0-0.6,0.4c0,0.4,0.1,0.5,0.6,0.6c0.1,0,0.1,0,0.2,0.1c0.1,0.1,0.1,0.1,0.3,0.1c0.6,0,0-0.4-0.1-0.5
		c0.3,0,0,0.1,0.4,0.2c0.1,0,0.3,0.1,0.4,0c0.1-0.1,0.3-0.7,0.3-0.8c0,0-0.1-0.1-0.1-0.1c-0.3-0.1,0,0-0.2,0c-0.1,0-0.1,0.1-0.4-0.1
		c0.1-0.2,0.2-0.2,0.4-0.2c0.2,0.2,0.3,0.2,0.4,0.4l0,0.1c0,0,0,0.1,0,0.1c0.1,0.2,0,0.2,0,0.4c-0.1,0.3-0.5,0.6-0.8,0.7
		c-0.7,0.2-0.5,0.1-1.1-0.1C44.3,82.7,44.3,82.3,44.3,81.8z M45.8,82.1c0-0.2,0.1-0.3,0.3-0.3c0,0.2,0,0.1-0.1,0.2
		C45.9,82.1,46,82.1,45.8,82.1z M59.6,81.9c0.2,0.1,0.1,0,0.1,0.2c-0.4,0-0.4,0.1-0.4-0.3C59.6,81.8,59.5,81.8,59.6,81.9z
		 M44.9,82.3c0.1-0.2,0.1-0.2,0.3-0.2c0,0.1,0,0.1-0.1,0.2C45,82.3,45,82.3,44.9,82.3z M45.7,82.1c0,0.1,0,0.1-0.1,0.1
		c-0.2,0,0,0-0.1,0C45.5,82.2,45.4,82,45.7,82.1z M56.9,82.3c0,0,0.2,0-0.1,0.2L56.9,82.3C56.8,82.3,56.9,82.3,56.9,82.3z
		 M41.7,85.3c-0.2-0.1,0,0-0.1-0.3c-0.1-0.3-0.1-0.1-0.1-0.3c0-0.2,0-0.6-0.1-0.7c-0.1-0.2-0.1,0-0.1-0.3c0-0.1,0-0.1,0-0.2
		l-0.1-0.3c0,0,0-0.1,0-0.2c0-0.1,0-0.1,0-0.3c0-0.4-0.2-0.3,0-0.6l0.2,0.5c0,0.1,0,0.1,0,0.2c0,0.1,0.1,0.2,0.1,0.4
		c0.3,1,0.1,0.6,0.1,1.1c0,0.3,0,0,0.1,0.2C41.7,84.7,41.7,85.1,41.7,85.3z M64.6,83.8c-0.3-0.1-0.4-0.3-0.6-0.4
		c-0.4-0.2-0.3-0.2-0.8-0.2l0-0.5c0.2,0,1.5,0.5,1.6,0.6c0.2,0.1,0.2,0.1,0.4,0.2l0.3,0.2c0.1,0.1,0.2,0.1,0.3,0.2
		c0.1,0.1,0.2,0.2,0.3,0.3c0.5,0.5,0.9,1,1.2,1.6c0.3,0.4,0.4,0.8,0.6,1.2c0.2,0.6,0.3,1,0.3,1.7c0,0.6,0,0.6-0.1,0.9
		c0,0.5-0.1,0.5-0.2,0.9c-0.1,0.3-0.1,0.6-0.3,0.9c0,0-0.1,0.1-0.1,0.2c0,0.1,0,0.1-0.1,0.2c0,0.1-0.1,0.1-0.1,0.2L67,93
		c-0.2,0.3-0.7,1-0.9,1.3c-0.2,0.2-0.4,0.3-0.6,0.5c-0.8,0.6-0.7,0.5-1.4,0.9c-0.2,0.1-0.2,0.1-0.4,0.2c-0.1,0-0.3,0.1-0.4,0.2
		l-0.8,0.3c-0.6,0.2-1.3,0.1-1.9,0.2c-0.7,0.1-1.3,0-1.9-0.3l-1.6-0.6c-0.3-0.2-1-0.8-1.2-1c-0.1-0.1,0,0-0.1-0.1c0,0,0,0,0,0
		l-0.1-0.2c-0.2-0.2-0.1-0.1-0.2-0.4c-0.1-0.5-0.3-0.6-0.2-0.8l0.4,0.7c0.1,0.3,0.3,0.3,0.5,0.6c0.3,0.5,1.3,1.1,1.9,1.3
		c0.2,0.1,0.3,0.1,0.4,0.1c1.2,0.5,1.3,0.3,1.7,0.4c0.4,0.1,1.3,0,1.7-0.2c0.3-0.1,0.1,0,0.4,0c0.4,0,1.7-0.6,2.1-0.8
		c0,0,0.1-0.1,0.1-0.1l0.4-0.3c0,0,0,0,0,0l0.7-0.6c0.1-0.1,0.2-0.1,0.3-0.3l1-1.6c0.1-0.2,0.1-0.2,0.2-0.4c0.2-0.4,0.4-0.7,0.4-1.1
		c0.1-0.8,0.3-0.3,0.3-1.9c0-1.3-0.1-1.4-0.5-2.4l-0.4-0.8c0,0,0,0,0,0c-0.1-0.1-0.1-0.2-0.2-0.3c-0.1-0.1-0.2-0.2-0.2-0.2
		C65.8,84.6,65.4,84.1,64.6,83.8z M33.4,83.4c-0.1-0.1-0.2-0.2,0-0.4C33.5,83.2,33.4,83.3,33.4,83.4z M37.1,83.3l-0.2-0.3
		C37.1,83.1,37.1,83.1,37.1,83.3z M55.3,92.9c-0.2-0.1,0,0-0.2-0.1c-0.8-0.5-0.6-0.1-0.7-0.5l-0.2-1.8c0-0.2,0,0,0-0.3
		c0.1-0.5,0.1-1.2,0.3-1.7l0.6-1.4l0.6-1.1c0.5-0.6,0.4-0.7,1-1.3c0.4-0.5,0.2-0.2,0.5-0.5c0.3-0.3,0.6-0.6,1-0.8c0,0,0,0,0,0
		l0.7-0.4l0.5,0.3c-0.1,0.2-0.7,0.5-0.9,0.6L58.2,84c-0.5,0.3-0.3,0.4-0.8,0.7l-0.7,0.7c-0.5,0.6-1,1.6-1.1,1.8
		c-0.2,0.2-0.3,0.7-0.4,1.1l-0.3,1.1c-0.1,0.4-0.1,1.1,0,1.5l0.1,0.8c0.1,0.5,0.2,0.6,0.3,1C55.3,92.7,55.3,92.7,55.3,92.9z
		 M31.1,87.3c0-0.2,0-0.7,0-0.9c0-0.3,0.1-0.1,0.1-0.4c0-0.5,0-0.9-0.1-1.4c0-0.1,0-0.1,0-0.2c0-0.3-0.3-0.6-0.4-1
		c0.1-0.2,0.1-0.1,0.3-0.2c0.6-0.2,1,0,1.3,0.5c0.2,0.3,0.4,0.5,0.4,0.9c0.3,0,0.1,0,0.4,0l0-0.4c0.1-0.7,0.1-0.4,0.1-0.6
		c0,0,0,0,0,0l0.1,0.3l-0.4,1.4c0,0.2,0,0.5,0,0.7c0,0.5-0.1,0.8-0.1,1.3c-0.1,0.3-0.1,1-0.2,1.2c-0.2-0.1-0.1-0.1-0.1-0.4
		c0-0.3,0-0.2-0.1-0.4c-0.1-0.2,0-0.7-0.1-1c-0.1-0.3-0.2-0.5-0.3-0.7c-0.1-0.2-0.2-0.5-0.4-0.6l0.4,1c0.1,0.2,0.3,0.7,0.3,1
		c0,0.4,0.1,1.3,0.1,1.4c0,0,0,0,0,0c0,0,0,0,0,0c0,0,0,0,0,0l0,1.3c0,0.2-0.1,0.1-0.1,0.3l-0.1,0.3c0,0,0,0,0,0
		c0-0.3,0-0.4-0.1-0.7c-0.3,0.1-0.1,0.5-0.2,0.6c-0.3-0.1-0.1-0.3-0.2-0.6c0-0.3,0.1-0.1-0.1-0.2c-0.1,0.3,0,1.1,0.2,1.4
		c0.1,0.2,0.2,0.1,0.3,0.2c0,0.3-0.1,0.1-0.1,0.3c0,0.2,0.1,0.3,0.1,0.4c0,0.5-0.1,0.2-0.3,0.5c-0.2,0.3,0,0.4-0.3,0.5
		c-0.1,0,0,0-0.1,0c-0.3,0-0.4-0.2-0.7-0.3c-0.2,0-0.1,0.1-0.3-0.1c-0.3-0.3,0.5-0.2,0.6-0.2c0-0.3-0.2-0.2-0.5-0.3
		c-0.2-0.1-0.7-0.4-0.6-0.6c0.3,0,0,0,0.2,0.1c0.5,0.3,1.1,0.5,1.7,0.4c0-0.4-0.1-0.4-0.6-0.5c-0.2-0.1-0.8-0.2-0.9-0.3
		c0.1-0.1,0.2-0.1,0.4-0.1c0-0.2,0.1,0-0.1-0.2c-0.1-0.1-0.4-0.1-0.5-0.2c0-0.5,0.3-0.2,0.4-0.6c-0.2,0-0.1,0-0.3,0
		c0-0.2,0.1-0.4,0.1-0.6c0.1-0.2,0-0.4,0-0.6c0-0.2,0.1-0.7,0.1-0.9c-0.1-0.3,0-0.1-0.1-0.2c0,0.2,0,0.1,0,0.2c0,0.1,0,0-0.1,0.1
		c-0.2-0.3,0.1-0.2,0-0.6c0-0.3,0.1-0.6,0.1-0.9c0.1-0.3,0.1-0.6,0.2-0.9c0-0.1,0.1-0.2,0.2-0.4c0.1-0.3,0-0.7,0.2-0.9
		c0.2,0.2,0.1,0.9,0.1,1.2c0,0.2,0,0.3,0,0.6c0,0.5-0.1,0.2-0.1,0.5c-0.1,0.5,0,0.9-0.1,1.4L30.6,89c0,0.3-0.2,0.3-0.1,0.5
		c0.2-0.1,0.2-0.1,0.2-0.3c0.1-0.3,0.1-0.6,0.1-0.9c0-0.1,0.1-0.1,0.1-0.3c0-0.2,0-0.3,0-0.4C31,87.5,31.1,87.5,31.1,87.3z
		 M63.2,83.7c0,0-0.1,0-0.1,0c0-0.2,0.2-0.1,0.3,0C63.2,83.8,63.4,83.7,63.2,83.7z M59.1,83.7c0.1-0.1,0.1-0.2,0.4-0.2l0,0.3
		C59.3,83.9,59.2,83.8,59.1,83.7z M63.7,84.3c-0.4-0.1-0.3-0.6,0.2-0.6c-0.1,0.3-0.1-0.1-0.1,0.3c0,0.1,0,0,0,0.2
		C63.8,84.4,63.8,84.3,63.7,84.3z M60.2,84.3c0.2,0.2,0.1,0,0.1,0.2c-0.2-0.1-0.1-0.1-0.4-0.1c-0.1-0.2-0.1-0.1-0.1-0.4
		c0,0,0-0.2,0-0.2l0-0.1c0,0,0,0,0,0C60,83.9,59.9,83.9,60.2,84.3z M63.1,84.3c0.3,0.1,0,0.1,0.3,0.2c0.3,0.1,0.8-0.1,0.6-0.7
		c0.4,0.1,0.4,0.2,0.3,0.5c-0.3,0.8-1.2,0.3-1.4,0.3C62.9,84.5,62.9,84.5,63.1,84.3z M62.6,84c0-0.1,0-0.2,0-0.2l0-0.1c0,0,0,0,0,0
		c0.3,0.1,0.3,0.4,0.1,0.7c-0.2,0.3-0.4,0.1-0.6,0c0,0,0,0,0,0C62.4,84,62.3,84,62.6,84z M58.9,84.6c0.2-0.1,0.1,0.1,0.2-0.2
		c-0.1-0.2-0.1-0.1-0.3-0.2c0.2-0.2,0.5-0.2,0.7-0.1c0,0.2,0,0.1,0.1,0.3c0,0.1,0.2,0.1,0,0.2c-0.2,0.1-0.2-0.2-0.4,0
		c-0.1,0.1,0,0.1-0.1,0.2c-0.1,0.1-0.2,0.1-0.3,0.3c0,0-0.1,0.4-0.4-0.1c-0.1-0.1-0.1-0.1-0.1-0.3c0-0.2,0.2-0.5,0.4-0.5
		c-0.1,0.2-0.2,0.2,0,0.4C58.8,84.7,58.7,84.7,58.9,84.6z M34.2,84.2c0.4,0,0.8,0,1.2,0c0.2,0,0.4,0,0.6,0c0.4,0,0.8-0.3,0.7,0.1
		l0,2.2c-0.1,0.2-0.1,0.1-0.1,0.5c0,0.4,0,0.7,0,1.1c-0.1,1.7-0.3,1.5,0.6,1.5c0.1,0.3-0.1,0.4,0.3,0.5c0.2,0.1,0.3,0,0.5,0.1
		L36.7,92c-0.3,0.4-0.3,0.6-0.7,0.9c-0.7,0.4-0.7,0.5-1.5,0.7l-0.6,0.2c-0.3,0.1-0.2,0-0.5,0.1c-0.4,0.1-0.8,0-1.1,0.1
		c-0.5,0.1-0.4,0.3-1-0.1c0,0,0,0,0,0c0,0,0,0-0.1,0c-0.6-0.1-0.7,0.1-0.8,0.3c0,0.2,0,0,0.1,0.2c0,0,0,0.1,0,0.1
		c0.4,0.8,0.3,0.4,0.9,0.8c0.1,0.1,0.1,0.1,0.2,0.1c1,0.4,0.5,0.2,1.3,0.3c1,0.1,0.6,0.2,1.2,0.4c0.2,0.1,0.3,0.1,0.4,0.3
		c-0.2,0.1-1.4,0-1.8,0c-0.8,0-0.4-0.9-1-0.8c-0.2,0.4,0.2,0.3,0.2,0.8c-0.5-0.1-0.4-0.5-0.8-0.5c-0.1,0.3,0.2,0.4-0.2,0.4
		c-0.3-0.1,0-0.1-0.3-0.2c-0.2,0.1,0,0.1-0.3,0.2c-0.4,0-0.8,0.1-0.6-0.3c0.1-0.2,0.1-0.2,0.2-0.4c0.7-0.9,0.2-1.2,0.5-2.1
		c0.4,0,0.3,0,0.4,0.1c0.3,0.1,0.1,0,0.3,0c0.3,0,0.3,0.3,0.6,0.1c0.1-0.1,0.6-0.8,0.7-1c0.1-0.2,0.2-0.5,0.1-0.8
		c0-0.2-0.1-0.1-0.1-0.3l0.9-3.1c0.1-0.4,0.1-1.4,0.2-1.5c0.2-0.5,0-0.2,0.1-0.5c0.2-0.6,0-0.5,0.1-1c0.1-0.3,0.1-0.5,0.2-0.7
		L34.2,84.2z M44.5,87.3c0.1-0.1,0.2-0.2,0.4-0.3c0.4-0.3,0.7-0.6,1.1-0.9c0.1-0.1,0.3-0.1,0.5-0.2c0.2-0.1,0.4-0.2,0.6-0.4l1-0.7
		c0.5-0.4,1.2-0.5,1.6-1.1c0.2-0.3,0.3-0.2,0.6-0.5c0.2-0.1,0.3-0.3,0.6-0.3c0.6,0,0.9-0.1,1.4,0.2l0.5,0.3c0.2,0.1,0.3,0.2,0.5,0.3
		c0.3,0.3,0.4,0.3,0.6,0.6c0.2,0.3,0.3,0.4,0.4,0.8c0.2,0.5,0.3,0.8,0.2,1.4C54,86.4,54.1,86.2,54,86c-0.1-0.1-0.2-0.4-0.3-0.5
		c-0.1-0.1-0.8-0.9-0.7-0.6c0,0.1,0.2,0.3,0.3,0.4c0.2,0.2,0.3,0.6,0.4,0.8l0.3,0.8c-0.3,0-0.2-0.2-0.5-0.6
		c-0.1-0.2-0.2-0.5-0.5-0.5c0,0.4,0.2,0.5,0.3,0.8c0.1,0.2,0,0.2,0.1,0.4c0.2,0.2,0.2,0,0.2,0.4c-0.6,0.2-0.4-0.3-0.8-0.5
		c-0.1,0.2-0.1,0.2,0,0.4c0.2,0.6,0.5,0.3,0.9,0.4c0,0,0.1,0,0.1,0l0.1,0c0,0,0,0,0,0c0,0,0,0,0,0c-0.2,0.1-0.2,0.2-0.5,0.2
		c-0.2,0-0.1,0-0.3,0c-0.4,0.1-0.4,0.1-0.8-0.1c0.1-0.6,0.3-0.7,0.3-1.4c0-0.6-0.6-1.9-1.1-2.2c-0.1,0.3,0.2,0.5,0.5,1.1
		c0,0.1,0.1,0.1,0.1,0.2c0.1,0.3,0.2,0.8,0.1,1.1c0,0.3-0.2,0.8-0.4,1c-0.2,0.2,0,0.2-0.1,0.4c-0.2-0.1-0.1-0.4-0.1-0.6
		c0-0.4,0.1-1.8-0.1-2.2c-0.1,0.1-0.1,1.1-0.1,1.3c0,0.4-0.1,0.4-0.1,0.6c0,0.2,0,0.4,0,0.6c-0.1-0.1-0.2-0.2-0.2-0.3
		c0-0.5-0.1-1.1-0.1-1.6C51,86,51,86.2,51,86.4c0,0.9-0.2,0.7-0.2,1.4c0,0.6-0.1,0.6-0.2,1l-0.1,0.4c-0.1,0.3,0.1,0.2-0.2,0.4
		c0-0.1,0-0.2,0-0.3c0-0.3,0,0,0.1-0.2c0.1-0.2,0.1-0.7,0.1-0.8c0-0.2,0-0.1,0-0.3l0-1.9c-0.3,0.1-0.1,0.1-0.2,0.5
		c-0.1,0.5-0.1,1.4-0.3,1.6c0-0.2,0-0.4,0-0.6c0-0.2,0.1-0.3,0-0.5c-0.3,0.1-0.1,0.2-0.3,0.3c-0.1-0.3,0.1-0.4,0.1-0.7
		c0-0.2,0-0.2,0-0.4c0-0.2,0.2-0.4,0-0.7c-0.2,0.1-0.2,0.5-0.4,0.8L49.3,87c-0.1,0.2-0.1,0.7-0.3,0.7c-0.1-0.1-0.1-0.3-0.2-0.5
		c-0.1-0.3,0-0.3-0.2-0.4c-0.1,0.2,0,0,0,0.2c0,0,0,0.2,0,0.3c0,0.2,0.1,0.2,0,0.4c-0.4,0-0.1,0-0.3-0.1c-0.3,0,0,0-0.2,0l-0.1,0
		c0,0,0,0,0,0l-0.5-0.2c-0.3-0.2-0.6-0.2-0.9-0.4c-0.2-0.1,0-0.1-0.3-0.1c0,0.3,0,0.1,0.2,0.3c0.6,0.5,0.7,0.3,0.8,0.6
		c-0.4,0-0.5,0-0.8-0.2c-0.3-0.1-0.3-0.3-0.6-0.3c0,0.2,0.1,0.2,0.2,0.3c0.1,0.1,0.1,0.1,0.3,0.2l0.6,0.2c0.2,0.1,1.2,0.2,1.3,0.4
		c-0.2,0.1-1.8-0.2-2.1-0.3c-0.5-0.2-0.4-0.3-0.8-0.4C44.8,87.7,44.6,87.5,44.5,87.3z M37.5,85.7C37.5,85.7,37.5,85.7,37.5,85.7
		C37.5,85.7,37.5,85.7,37.5,85.7l-0.2-0.3c0,0,0-0.1,0-0.1l-0.5-0.9c-0.1-0.2,0-0.2,0-0.2c0.2,0.1,0-0.1,0.3,0.4c0,0.1,0,0,0.1,0.1
		C37.3,85.2,37.6,85.5,37.5,85.7C37.5,85.7,37.5,85.7,37.5,85.7z M61.5,84.5c0.1-0.3,0.3-0.3,0.6-0.3l0,0.3
		C61.8,84.6,61.7,84.6,61.5,84.5z M41,84.4c0.2,0,0.1,0,0.2,0.2C40.9,84.5,41,84.6,41,84.4z M64.7,84.9c0.1-0.3,0-0.1,0.4-0.4
		c0.1,0.1,0.1,0,0.2,0.2c-0.2,0-0.1,0-0.3,0.1c0.1,0.1,0.1,0.2,0.2,0.3L65,85.2C64.8,85,64.8,85.1,64.7,84.9z M41.1,85.1
		c0-0.1-0.1-0.3-0.1-0.4l0.1-0.1c0.2,0.3,0.1,0.3,0.1,0.6c0,0.2,0.1,0.2,0,0.3c0-0.1,0,0-0.1-0.1c0-0.1,0-0.1,0-0.2
		C41.2,85.2,41.2,85.3,41.1,85.1z M57.6,84.9c0-0.3,0.2-0.3,0.4-0.2C57.9,84.9,57.9,85,57.6,84.9z M59.6,85c0-0.2,0-0.3,0.2-0.2
		c0,0,0.1,0,0,0.2C59.8,85,59.7,85,59.6,85z M59,85.3c0-0.2,0-0.1,0.1-0.2c0.1-0.1,0-0.1,0.2-0.2c0,0.1,0,0.2-0.1,0.3
		C59.1,85.4,59.2,85.3,59,85.3z M63.9,85.2c0.2-0.2,0.2-0.2,0.4,0c0.9,0.5,0.9,0,1.2-0.2c0.1,0.2,0,0.4-0.2,0.6
		c-0.2,0.2-0.3,0.1-0.6,0.1c-0.3,0-0.2,0.1-0.5-0.2c-0.1-0.1-0.1-0.1-0.2-0.2L63.9,85.2z M57.1,85.9c0.1-0.4,0.6-0.7,0.9-0.8
		c-0.1,0.3-0.2,0.1-0.5,0.6c0.2,0.1,0.5,0,0.5,0.4c-0.3-0.1,0-0.2-0.4-0.2c0.1,0.3,0.2,0.1,0,0.3c-0.2,0.1-0.2,0-0.3,0.3
		c0.1,0.1,0.2,0.1,0.4,0.1c0,0.5-0.6,0-0.7-0.2L57.1,85.9z M58.3,85.4c0,0.2,0.1,0.1-0.2,0.2l0-0.3L58.3,85.4z M58.4,85.8
		c0.2-0.1,0.1,0,0.1,0c-0.1,0.2,0.1,0.1-0.2,0.1C58.4,85.8,58.4,85.8,58.4,85.8z M65.7,86c0-0.1,0.2-0.3,0.3-0.3l0.5,0.1l0.1,0.2
		c-0.1,0-0.2-0.1-0.4,0c0,0.2,0.1,0,0.1,0.4l-0.3,0.1C65.8,86.4,65.7,86.2,65.7,86z M37.8,86.3c0,0.2,0,0-0.1,0.1L37.6,86
		c-0.1-0.2-0.1-0.2,0.1-0.3l0.1,0.2c0,0,0,0.1,0,0.1C37.8,86.2,37.8,86.1,37.8,86.3z M41.3,85.9c0.1,0.1,0.1-0.1,0.1,0.1
		c0,0.1-0.1,0.1-0.1,0.1C41.2,85.9,41.3,85.9,41.3,85.9z M65.4,86c0,0.1,0,0.1-0.1,0.1c0,0-0.1-0.1-0.1-0.2c0-0.2,0-0.1,0.1-0.1
		C65.4,85.9,65.4,85.9,65.4,86z M56.3,86.6c0-0.2,0.1-0.3,0.3-0.4c0.1,0.1,0.1,0.1,0.2,0.2c0,0.1,0.1,0.2,0.1,0.3
		C56.5,86.7,56.6,86.6,56.3,86.6z M66,86.8c0.1,0,0.4-0.2,0.4-0.2c0.1-0.2,0-0.1,0.1-0.2l0.1-0.2c0.3,0.3-0.1,1.1-0.6,0.9
		c-0.1,0-0.7-0.1-0.7-0.4C65.3,86.2,65.6,86.8,66,86.8z M38.2,88.2c0.1,1.1,0.4,0.8,0,1.4c-0.2-0.3,0-1.5-0.1-1.7
		c0-0.1-0.1-0.2-0.1-0.4c0-0.2,0-0.2-0.1-0.4c-0.2-0.6-0.2-0.6,0-0.6c0.1,0.3-0.1,0.1,0.1,0.4C38.4,87.6,38.2,87.7,38.2,88.2z
		 M55.8,88c0-0.1,0.1-0.3,0.2-0.4c0.3-0.6,0.6-0.5,1-0.8c0.1,0,0.3,0.1,0.4,0.2c0,0.2,0.1,0-0.1,0.2c-0.3,0.2-0.4,0.4-0.6,0.4
		c0,0.3,0.1,0.2,0.3,0.4c-0.1,0.4-0.1,0.8-0.5,0.7C56.1,88.7,55.8,88.3,55.8,88z M37.2,86.7c0.1,0.2,0,0.2,0.1,0.7
		c0,0.2,0.1,1.9,0,2.1l-0.2-0.1c0-0.3,0.1-0.3,0.1-0.7C37.2,88.5,37.2,86.8,37.2,86.7z M42.8,90.2c0-0.2-0.1-0.3-0.3-0.5
		c-0.2-0.1-0.3-0.1-0.3-0.4c0.4-0.2,0.4,0.4,0.4-0.2c0-0.9,0.1-0.4,0.1-0.9c0-0.2-0.1-0.5-0.2-0.8c-0.1-0.3-0.2-0.4-0.1-0.8
		c0.3,0,0.6,0.5,0.7,0.7c0.1,0.2,0,0.2-0.1,0.5c-0.1,0.3,0.1,0.2-0.1,0.4c-0.1,0.1-0.1,0-0.1,0.2c0,0.1,0,0.2,0,0.3
		c0,1.1-0.2,0.6,0.4,1.4c-0.4,0.4-0.1,0.4-0.3,0.5c-0.2,0.1-0.3,0-0.6-0.1c-0.4-0.1-0.3,0.1-0.6-0.1c0.1-0.1,0.3-0.1,0.5-0.2
		C42.6,90.4,42.7,90.3,42.8,90.2z M67,86.9c0.1,0.1,0.1,0.1,0.1,0.3c-0.1,0-0.1,0-0.3-0.1C66.8,86.9,66.8,86.8,67,86.9z M66.1,87.4
		c-0.1,0.3-0.4,0.4-0.4,0L66.1,87.4z M66.6,88.3c-0.2-0.1-0.6-0.9,0.2-1c0.1,0.2-0.1,0,0.1,0.2c0.3,0.3,0.3,0.5,0.3,0.9
		c0,0.5-0.6,0.8-1.2,0.1c-0.1-0.2-0.1-0.1-0.1-0.4c0-0.3,0-0.1-0.1-0.3c0.2,0.1,0.1,0.2,0.3,0.4l0.4,0.3c0.2,0,0.2,0,0.4-0.1
		c0.1-0.1,0.4-0.7-0.2-0.8C66.7,88.1,67,88.1,66.6,88.3z M47.4,87.9c0,0,0.1,0.2-0.2,0c-0.1-0.1,0,0,0-0.1L47.4,87.9z M47.7,87.9
		c0.3-0.2-0.1,0,0.5,0.1c0.3,0,0.2,0.1,0.5,0.1v0.1c-0.1,0-0.3,0-0.3,0C48.2,88.2,47.9,88.1,47.7,87.9C47.7,87.9,47.7,88,47.7,87.9z
		 M49.7,88.3c-0.1-0.1-0.1-0.1-0.1-0.4c0-0.2,0-0.2,0.1-0.4c0.1,0.1,0.1,0.2,0.1,0.4C49.8,88.3,49.7,88.3,49.7,88.3z M52.7,88.5
		c-0.1,0.2-0.4,0.4-0.4-0.1L52.7,88.5z M55.9,88.7c-0.1,0.1-0.1,0.2-0.2,0.2c-0.6,0.2-0.5-0.4-0.3-0.5L55.9,88.7z M67.3,89
		c0.1-0.2,0-0.1,0.2-0.3c0.1,0.2,0.1,0.2,0,0.4L67.3,89z M66.1,89c0.3,0,0.3,0.1,0.1,0.2C66.1,89.1,66.1,89.1,66.1,89z M51.7,89h0.2
		c0.1,0.2,0.2,0.3-0.2,0.3V89z M55.8,90.3c-0.1,0-0.1,0-0.2,0.1c-0.2-0.2-0.4-0.5-0.3-0.9c0.1-0.2,0.2-0.2,0.4-0.4
		c0,0,0.1-0.1,0.3-0.1c-0.2,0.2-0.4,0.2-0.5,0.5c0.2,0,0.3-0.2,0.5-0.3c0,0,0.1-0.1,0.1-0.1l0.1-0.1c0.2-0.2,0.4,0,0.1,0.3
		c-0.2,0.1-0.3,0.2-0.3,0.2c-0.2,0.1,0-0.2-0.1,0.1c0,0.1,0,0.1,0,0.1c0,0.1,0,0,0,0.1l-0.1,0c-0.1,0-0.2-0.2-0.3,0.2
		C55.8,90.2,55.8,90.2,55.8,90.3z M61.6,84.9c0.1,0,0.1,0,0.2,0c0.2,0,0.1,0,0.2,0c0.5,0,0.6,0.1,0.9,0.2c0.2,0.1,0.3,0.1,0.4,0.1
		c0.4,0.2,1,0.6,1.3,1l0.5,0.7c0.1,0.2,0.1,0.2,0.2,0.4c0.1,0.3,0.3,1,0.4,1.3c0,0.2,0,1.4-0.1,1.6c-0.2,0.5-0.4,1.2-0.6,1.6
		c-0.1,0.1-0.2,0.2-0.2,0.3c-0.1,0.2-0.3,0.5-0.5,0.6c-0.2,0.1-0.2,0.1-0.4,0.3c-0.1,0.1-0.1,0.2-0.2,0.3l-1.1,0.6
		c-0.2,0.1-0.1,0-0.2,0.1l-0.1,0c-0.8,0.2-1.8,0.2-2.6-0.2c-0.3-0.1-0.2,0-0.4-0.1c-0.1,0-0.2-0.2-0.3-0.3l-0.5-0.3
		c-0.3-0.2-0.7-0.7-0.9-1.1c-0.4-0.7-0.4-1.2-0.5-1.8C57,90.1,57,90.2,57,89.9c0-0.3,0-0.3,0.1-0.5c0.3-0.8,0.1-0.6,0.6-1.7
		c0.2-0.4,0.3-0.4,0.5-0.7c0.2-0.3,1.1-1.3,1.3-1.5l1.5-0.5C61.2,85,61.2,85,61.6,84.9z M55.1,96.3c-0.1,0.2-0.4-0.2-0.7-0.2
		c-0.1,0.3,0,0.2,0,0.5l-0.4,0L54,96.3c-0.4,0.1-0.3,0.5-0.9,0.1c0.3-0.3,0.2-0.3,0.4-0.8l-0.8-1.3c-0.2-0.3-0.3-0.4-0.5-0.5
		c-0.3-0.3-0.4-0.5-0.9-0.7l-0.8-0.3c-0.2-0.1-0.2-0.1-0.4-0.1l-2.1-0.6c-0.5-0.2-0.4-0.1-0.7-0.4L47,91.6c-0.1-0.1-0.1,0-0.2-0.1
		l-1-0.5c-0.5-0.2-0.3,0.1-0.6-0.2c-0.3-0.2-0.4-0.1-0.8-0.3c-0.4-0.1-1-0.6-1.1-1c-0.1-0.5-0.1-0.1-0.1-0.8c0-0.3,0.7-1,0.9-1
		c0.2,0,0.4,0.3,0.6,0.4c0.4,0.4,0.5,0.3,0.8,0.6c0.3,0.2,0.4,0.2,0.7,0.3c0.7,0.3,0.4,0.2,1.2,0.2c1,0,0.5-0.1,0.8-0.1
		c0.2,0,0,0.1,0.4,0.1c0.4,0,1.5,0.7,1.9,1.1c0.2,0.2,0.2,0.2,0.5,0.4c0.3,0.2,0,0.1,0.4,0.5l0.8,0.7c0.3,0.3,0.8,0.6,1.2,0.8
		c0.2,0.1,0.5,0.1,0.7,0.2c0.6,0.2,0.7-0.2,1.2,0.6c0,0,0,0,0,0c0,0,0,0,0,0c0.1,0.2-0.1-0.2,0,0.1c0.1,0.2,0.1,0.3,0.1,0.6
		c0,1.9,0.2,0.8,0.3,1.5c-0.2,0-0.4,0-0.3,0.2c0.1,0.2,0.2,0,0.1,0.3c-0.3-0.1-0.1-0.2-0.5-0.1C54.9,96.3,55.2,96.2,55.1,96.3z
		 M66.6,89.9c-0.1-0.2-0.1-0.6,0.2-0.7c0.1-0.1,0.1-0.1,0.3-0.1l0.1,0.2c0.1,0.1,0.1,0,0.1,0.2c-0.3,0-0.1-0.1-0.4-0.2l-0.1,0.2
		C66.8,89.7,67.1,89.9,66.6,89.9z M66.2,89.6c0,0.1,0,0,0,0.1c-0.2-0.1-0.2,0-0.1-0.3C66.2,89.6,66.1,89.4,66.2,89.6z M38,89.9
		c0-0.2,0,0,0.1-0.2c0.1,0.1,0.1,0,0.1,0.1L38,89.9z M40.9,90.3c0.2-0.2,0.5-0.4,0.8-0.5c0,0.2,0,0.1-0.1,0.2
		C41.5,90,41,90.3,40.9,90.3z M39.6,91.2c0-0.3,0-0.3,0.1-0.5c0,0,0,0,0,0c0.1-0.2,0-0.1,0.1-0.2l0.8-0.5c0.1-0.1,0.1-0.1,0.2,0
		c-0.1,0.2-0.3,0.2-0.4,0.3l0.1,0.1c0,0,0,0,0,0c0,0.1,0,0,0.1,0.1c-0.5-0.1,0.1-0.2-0.3-0.1c0.1,0.3,0.1,0,0.1,0.4
		c-0.2-0.1-0.2-0.1-0.3-0.2c0,0.2,0.1,0.5,0.2,0.6c0,0,0,0,0,0l-0.1,0c0,0,0,0,0,0c0,0-0.1,0-0.1,0c0,0,0,0,0,0
		c0.1,0.3,0.1,0.1,0.1,0.4C39.9,91.6,39.9,91.4,39.6,91.2z M66.6,90.3c0.4-0.1,0.4-0.4,0.7-0.5c0,0.3,0,0.3-0.2,0.5
		c-0.2,0.2-0.2,0.2-0.4,0.3c-0.3-0.1-0.6-0.3-0.6-0.7C66.4,89.9,66.2,90,66.6,90.3z M55.8,90.3c0.5,0,0.4-0.2,0.6-0.5
		c0.1,0.1,0.2,0.2,0,0.4C56.1,90.7,55.8,90.4,55.8,90.3z M65.9,90.4c0.3,0,0.2,0,0.4,0.1c0,0.1-0.1,0.2-0.3,0.2
		C65.9,90.7,65.9,90.6,65.9,90.4z M67.1,90.8c0-0.2-0.1-0.1,0.2-0.2C67.2,90.8,67.3,90.7,67.1,90.8z M40.8,90.6c0,0.1,0,0.2-0.1,0.2
		c-0.2,0.1-0.2,0-0.2,0L40.8,90.6z M41.7,90.8c-0.1,0.1,0,0.2-0.3,0.1C41.5,90.7,41.6,90.7,41.7,90.8z M55.1,91
		c0.1-0.3,0.3-0.3,0.6-0.2C55.6,90.9,55.3,91.1,55.1,91z M66.2,91.2c0.2,0,0.2,0.1,0.2,0.2c0,0.1-0.3,0.3-0.1,0.4
		c0.3,0.1,0.6-0.7,0.1-0.7l-0.1,0c0.1-0.3,0.3-0.4,0.7,0.2c-0.1,0.2-0.1,0.1-0.2,0.3c0,0,0,0.1-0.1,0.1c-0.5,1.1-1.2,0.1-1.1-0.4
		l0-0.1c0,0,0,0,0,0c0.1-0.2,0-0.2,0.2-0.2c0,0.2-0.1,0.2-0.1,0.4c0,0.2,0,0.2,0.1,0.3C66.2,91.6,66,91.5,66.2,91.2z M56.2,92.5
		c-0.1,0-0.1-0.1-0.2-0.1c-0.3-0.2-0.3-0.1-0.4-0.4c0-0.1,0-0.2,0-0.3c0-0.2,0.1-0.2,0.1-0.4c0.2-0.6,0.7-0.5,1-0.2l0,0.3
		c-0.4,0-0.3,0.1-0.5,0.2c0.2,0.6,0,0.2-0.3,0.4c0,0.1,0,0.2,0.2,0.2c0.6,0,0.4-0.4,0.5-0.6c0.1,0.1,0.3,0.3,0.4,0.4
		C56.7,92.5,56.7,92.5,56.2,92.5z M41.2,91.1c0,0.2,0.1,0.1-0.2,0.2C41.1,91.1,41,91.2,41.2,91.1z M40.4,91.9c0-0.2,0.1-0.3,0.2-0.4
		c0.2-0.3,0.3-0.2,0.4-0.2c-0.1,0.1-0.2,0.2-0.3,0.4C40.6,91.8,40.7,91.9,40.4,91.9z M55.2,91.4C55.2,91.2,55.2,91.4,55.2,91.4
		C55.3,91.4,55.2,91.5,55.2,91.4z M44.8,91.5c0.1,0.1,0.1,0,0,0.2C44.7,91.6,44.8,91.7,44.8,91.5C44.7,91.5,44.8,91.5,44.8,91.5
		C44.8,91.5,44.8,91.5,44.8,91.5z M30.7,94.2c0.3-0.1,0.4,0,0.6,0.1c0.6,0.3,1,0.1,1.1,0c0.6-0.1,0.6,0.1,1.2-0.1l1.6-0.4
		c0.6-0.1,1.4-0.8,1.7-1.2c0.1-0.2,0.2-0.2,0.4-0.4l0.6-0.9c0.2-0.4,0-0.3,0.3-0.5c0.2,0.1,0.1,0.5,0.2,0.8c0.1,0.4,0.1,0,0.1,0.3
		c0,0.1-0.1,0.1-0.1,0.3c-0.1,1,0,1-0.9,1.8c-0.2,0.1-0.3,0.3-0.4,0.5c-0.4,0.5-0.4,0.8-0.3,1.4c-0.4,0.2-0.6,0.9-1.8-0.1
		c-1.1-0.9-1.3-0.5-2-0.7c-1.3-0.3-0.9-0.3-1.4-0.5c-0.1,0-0.1,0-0.1,0C31,94.6,30.8,94.5,30.7,94.2z M42.2,96.3
		c-0.2,0-0.2,0-0.4-0.1l-0.1-0.1c-0.1-0.1-0.2-0.1-0.3-0.2c0.1-0.5,0.4-0.6,0.3-1.6l-0.2-1.1c-0.1-0.5-0.5-1.2-0.3-1.5
		c0.1,0.1,0.1,0,0.2,0.4l0.3,0.8c0.1,0.2,0,0.3,0.1,0.4c0.6,0.1,1-0.7,1.2,0.1c0.2,0.7,0.2,0.6,0.6,0.8l0.5,0.4
		c0.1,0.1,0.1,0.2,0.3,0.2c0.2,0.1,0.2,0,0.3,0.1c0.1,0.1,0.1,0.2,0.2,0.3c0.1,0.1,0.2,0.1,0.3,0.2c0.2,0.1,0.2,0.2,0.5,0.4
		c0.3,0.2,0.4,0.1,0.8,0c0.7-0.1,0.8,0.3,0.4,0.5c-0.2,0.1-0.1,0.1-0.3,0.1c-1-0.1-0.3,0-0.7,0h-2.2c-0.2,0-0.7-0.2-0.9-0.2
		C42.4,96.3,42.6,96.3,42.2,96.3C42.2,96.3,42.2,96.3,42.2,96.3z M43.2,91.6c0-0.1,0.1-0.4,0.2-0.5c0.1-0.2,0.1-0.4,0.1-0.7
		c0.2,0,0.3,0.1,0.3,0.2v1.4c0,0.3,0,0.2-0.1,0.3c-0.1,0.2,0,0.8-0.1,1.1c-0.2-0.1-0.1,0-0.2-0.3c0-0.1-0.1-0.2-0.1-0.3
		c-0.2-0.4,0-0.3,0-0.7C43.3,92.1,43.2,92.2,43.2,91.6z M65.2,92.2c0-0.1,0.1-0.2,0.2-0.3c0.1,0.1,0.3,0.3,0.2,0.3c-0.1,0,0,0-0.2,0
		L65.2,92.2z M65.8,93.1c-0.2-0.2,0,0-0.1-0.2c-0.1-0.4-0.1-0.1-0.2-0.4c0.2,0.1,0,0,0.2,0.1c0,0,0.1,0.1,0.1,0.1
		C66,92.9,66,92.9,65.8,93.1z M55.7,92.7c0,0.2,0,0.1-0.1,0.1c-0.2-0.1-0.1,0-0.1-0.2C55.7,92.5,55.7,92.5,55.7,92.7z M65.2,93.6
		c-0.1,0-0.3-0.1-0.3-0.2c-0.1-0.1-0.1-0.2-0.1-0.3c0,0,0.2-0.6,0.3-0.7l0,0.1c0.1,0.3,0-0.2,0,0.1c0,0.3-0.5,0.4,0.2,0.8
		c0.2-0.1,0.3-0.2,0.5-0.2C65.7,93.4,65.8,93.6,65.2,93.6z M30,92.9C30,92.8,30,92.8,30,92.9C30.2,92.8,30.1,92.7,30,92.9
		C30.2,93,30,92.9,30,92.9z M56.5,93c0.5-0.3,0.3-0.2,0.9-0.3l0,0.3c-0.2,0-0.3-0.2-0.5-0.1c-0.3,0.2-0.2,0.5-0.2,0.8
		c0.3,0,0.1-0.5,0.5-0.5c0.5,0,0.6,0.3,0.6,0.8c-0.1,0.1-0.4,0.2-0.5,0.3C57,94.1,56.4,94.2,56.5,93z M44.8,94.4
		c-0.1-0.2,0-0.3-0.1-0.4c-0.1-0.3-0.1,0.1,0-0.7l0-0.4c0,0,0,0,0,0c0,0,0,0,0,0l0,0.2c0,0.4,0.1,0.1,0.2,0.4c0.1,0.3-0.2,0.1,0,0.5
		C45,94,45.3,94.6,44.8,94.4z M65.2,93.2c-0.2-0.4,0.1-0.4,0.1-0.4c0.2,0.1,0.2,0.2,0.1,0.4L65.2,93.2z M47.3,92.9
		c0-0.4,0.6-0.1,0.5,0.3l0.1,1.1l0.4-0.2c0,0.5,0.2,0.6,0.1,1.5c0,0.3,0,0.2,0,0.5c-0.1,0-0.1,0.1-0.2,0.1c-0.2-0.2,0-0.3-0.1-0.6
		l-0.3,0.3c-0.2,0,0.1,0-0.2-0.1c0,0.3,0,0.1-0.1,0.2c0-0.1,0-0.4,0-0.5c0,0-0.4-0.9-0.2-1.6c0.1-0.2,0.1,0.1,0-0.3
		c-0.1-0.3,0,0,0.1-0.3C47.4,93.2,47.3,93.2,47.3,92.9z M56.1,93.3c-0.2-0.1-0.1,0-0.2-0.2C56,93,56,93,56.2,93.1
		C56.1,93.2,56.1,93.2,56.1,93.3z M56.4,93.6c0,0.2-0.2-0.1-0.3-0.1c0,0,0.1-0.1,0.2-0.1C56.3,93.5,56.4,93.5,56.4,93.6z M64,93.6
		c0.1-0.2,0.1-0.2,0.3-0.3c0.1,0.1,0.4,0.4,0.1,0.4L64,93.6z M45.5,94.1c0,0-0.3,0-0.3-0.3c0-0.2,0-0.3,0.1-0.4
		c0.1,0.1,0.1,0,0.1,0.1c0.1,0.1,0.1,0.1,0.1,0.2C45.6,93.9,45.6,93.9,45.5,94.1z M44.3,93.9c-0.1-0.3,0-0.6,0-0.9
		c0.1,0.1,0.1-0.1,0.1,0.5C44.5,93.7,44.5,93.8,44.3,93.9z M58.3,93.6c0,0.2,0,0.1-0.1,0.3h-0.2c-0.1-0.1-0.1-0.1,0-0.3L58.3,93.6z
		 M63.6,93.8c0.2,0,0.2,0.1,0.3,0.2c-0.1,0.1,0,0.1-0.2,0.1L63.6,93.8z M37.1,95.7c0.1-0.4-0.2-0.3,0.5-1l0.5-0.5
		c0.1-0.1,0.1-0.1,0.2-0.2c0.3-0.2,0.8-0.7,0.9-0.9c0.3-0.4,0.4-0.1,1-0.9c0.1,0.1,0.1,0.1,0.2,0.2c0.2,0.1,0-0.1,0.2,0.2
		c0,0.1,0.1,0.2,0.1,0.2c0.2,0.2,0.3,0.7,0.3,1c0,0,0,0.1,0,0.1c0,0.3,0.2,0.5,0.1,0.8c0,0,0,0,0,0l-0.2,0.5c-0.3,0.9,0,0.7,0,1.1
		c-0.6,0.1-0.7,0-1,0l-0.9,0c-0.6,0.1-1.6-0.1-2.3,0L37.1,95.7z M63.8,94.6c0.5-0.1,0.7-0.3,0.5-0.7c0.3,0.1,0.2,0.1,0.2,0.5
		c-0.3,0.1-0.1,0-0.3,0.2c-0.1,0.2-0.4,0.3-0.5,0.2c-0.1,0-0.2-0.1-0.3-0.1c0-0.1,0-0.2,0-0.3c0-0.1,0-0.1,0.1-0.2
		C63.7,94.3,63.6,94.3,63.8,94.6z M65,93.9c0.2,0,0.1-0.1,0.2,0.1c-0.1,0.2,0,0.1-0.2,0.1L65,93.9z M62.7,94.2
		C62.7,94.2,62.7,94.2,62.7,94.2l0.3-0.1c0,0,0.1-0.1,0.1-0.1c0.1,0,0.1,0,0.1,0c0,0,0,0,0,0.1l-0.1,0.2c-0.1,0-0.2,0-0.3,0
		C62.6,94.2,62.8,94.3,62.7,94.2z M58.1,95.1c0-0.4-0.1-0.6,0.2-0.9c0.3-0.2,0.7-0.3,0.8,0.1c-0.2,0.1-0.5,0-0.7,0
		c-0.4,0.8-0.2,0.6-0.1,0.8L58.1,95.1z M60,94.3c-0.1,0.1-0.1,0.2-0.3,0.2c-0.1-0.1-0.2-0.2-0.2-0.4c0.2,0,0.1,0,0.3,0L60,94.3z
		 M45.8,94.2c0-0.1,0.1-0.1,0.1-0.2c0.1,0.2,0.1,0.2,0,0.4C45.8,94.4,45.8,94.4,45.8,94.2z M45.4,94.5c-0.2-0.1-0.1,0-0.1-0.1
		C45.4,94.4,45.4,94.3,45.4,94.5z M58.4,95.2c0-0.2,0-0.5,0.1-0.6l0.1-0.1c0.2,0.2,0,0,0.1,0.2c0.1,0.3,0.1,0,0.2,0.2
		c-0.3,0.1-0.1-0.1-0.3,0.1c0.1,0.1,0.2,0.2,0.5,0.2c0.1-0.1,0.2-0.2,0.2-0.3c0-0.2-0.1-0.1,0.1-0.3c0.4,0.2,0.1,0.6,0,0.8
		C59.1,95.5,58.6,95.3,58.4,95.2z M60.2,95.4c-0.4-0.2-0.1-0.6,0-0.8l0.1-0.3c0.3,0,0.3,0.1,0.4,0.2c-0.5,0.2-0.4,0.4-0.4,0.6
		C60.2,95.4,60.2,95.4,60.2,95.4z M61.2,94.6c-0.2-0.1-0.1,0-0.3-0.1c0.1-0.1,0.6-0.2,0.6,0.1C61.5,94.6,61.6,94.7,61.2,94.6z
		 M45.7,94.8l-0.1-0.3c0.2,0,0.2,0,0.2,0.2c0.2-0.1,0.1,0.1,0.2-0.1c0,0.3,0.1,0.5,0,0.8l-0.3,0c-0.1-0.3,0.1-0.1-0.2-0.4
		C45.6,94.8,45.6,94.9,45.7,94.8z M61.8,94.9c0-0.2,0.2-0.3,0.3-0.3C62,94.9,62,94.9,62,95.3C61.8,95.2,61.8,95.1,61.8,94.9z
		 M57.4,94.7 M62.3,94.5C62.4,94.6,62.3,94.4,62.3,94.5c0.2,0.5,0.4,0.6-0.1,0.5L62.3,94.5z M60.3,95.4c0.2,0,0.2,0,0.3,0.1
		c0.7-0.3,0.3-0.5,0.4-0.7c0.1,0.1,0.1,0,0.2,0.2c0.2,0.5-0.4,0.7-0.7,0.5C60.4,95.5,60.4,95.5,60.3,95.4z M60.5,94.7
		c0.1,0.1,0.3,0.5,0.1,0.6C60.4,95.3,60.5,94.9,60.5,94.7z M62.8,95.4c0-0.3,0.1-0.2,0.1-0.6H63c0,0.3,0.1,0.3,0.1,0.5L62.8,95.4z
		 M48.6,96.4c0-0.2,0-0.9,0-1c0-0.3-0.2-0.6,0-0.8c0.2,0.3,0.2,0.8,0.1,1.1C48.7,96,49.2,96.4,48.6,96.4z M62.2,95.3l0.2-0.1
		C62.4,95.4,62.4,95.5,62.2,95.3z M60,95.7c-0.1,0-0.2,0-0.3,0c-0.2,0-0.1,0.1-0.2-0.1C59.7,95.2,59.9,95.5,60,95.7z M50.8,96
		c0.2-0.1,0-0.1,0.2-0.2c0,0.1,0,0.1,0,0.3c0,0.3-0.1,0.3-0.1,0.3C50.8,96.2,50.9,96.2,50.8,96z M49.1,96c0-0.4-0.1-0.7,0.3-0.8
		c0,0.3,0.1,0.8-0.1,1C49.2,96.2,49.2,96.1,49.1,96z M49.9,96.2c0-0.2,0.1-0.4,0.2-0.6c0.1-0.1,0,0,0.1-0.1c0.1,0.1,0.3,0.7,0,1
		C49.9,96.3,50.2,96.4,49.9,96.2z M49.8,96.1c0,0,0.1,0.1,0,0.3c-0.1,0-0.2,0-0.2-0.2C49.7,96,49.7,96.1,49.8,96.1z M50.6,96.2
		l0,0.2c-0.1,0-0.1,0.1-0.1-0.1C50.5,96.1,50.5,96.2,50.6,96.2z M51.3,96.4c0-0.3,0-0.1,0.1-0.2c0.1,0.1,0.1,0.2,0,0.3
		C51.4,96.6,51.3,96.7,51.3,96.4z M26.2,97.2c0.1-0.4,0-0.5,0.4-0.4c0.7,0.1,2.5-0.1,2.9,0c-0.2,0.1-1.3,0-1.6,0
		c-0.6,0-1.2-0.1-1.4,0.2c0.1,0.1,0.3,0.1,0.6,0.1l3.6,0c1.9,0.1,4.3,0.1,6.3,0c0.5,0,0.6-0.1,0.6,0.1c-0.1,0.2-0.1,0.2-0.3,0.1
		c-0.9-0.1-3.9,0-4.5,0c-0.5-0.1-0.3,0.1-0.8,0c-0.3-0.1-2.9,0-3.3,0C28.3,97.3,26.4,97.4,26.2,97.2z M33.3,96.9
		c-0.2,0-0.1,0-0.1-0.1C33.3,96.9,33.3,96.8,33.3,96.9z M37.7,97c-0.1,0.1-0.4,0.1-0.6,0.1c0.1-0.2-0.1,0,0.1-0.1c0,0,0.1,0,0.2,0
		C37.6,96.9,37.6,96.8,37.7,97z M40.6,97.1c-0.2,0-0.1-0.1-0.3-0.1L38,97c0-0.2,0.1-0.2,0.3-0.2l3.3,0c0.6,0,1.3,0,1.7,0.1
		c1.3,0.1,4.5,0,6,0c1,0,0.6-0.1,0.8,1.1c0.1,0.6-0.1,0.5,0.1,0.6c0.3-0.2,0.1-0.4,0.1-0.8c-0.1-1.5,0.3-0.8,1.4-0.9
		c0.4-0.1,0.2,0,0.4,0c0.8,0,5.3-0.1,6.2,0c0.4,0,0.1,0,0.3,0l2.4,0.1c0.4,0,0.6,0,0.8,0c1,0,0.7,0,1,0c0.2,0.3,0.1,0.2,0.1,0.7
		c0,0.8,0.1,0.3,0.1,1.3c-0.3,0-0.3,0.1-0.5,0.1c-0.2,0-0.1-0.1-0.3-0.1l-5.5,0c-0.5,0-0.9-0.1-1.4,0c-0.3,0.1-1.2-0.1-1.6-0.1
		l-11.5,0c-0.2,0-2.1,0.1-2.7,0c-0.2-0.1-0.4,0-0.7,0c-0.6,0-1-0.1-1.6-0.1c-0.8,0-4,0-4.6,0l-1.1,0c-0.8,0-0.5-0.1-0.8-0.1l-4.1,0
		c-0.2,0,0,0-0.2-0.1c0-0.2,0-0.2,0.3-0.2c1,0,2.7,0.1,3.5,0c0.4,0,0.6,0,0.8,0.1l6.4,0c0.3,0,0.2,0,0.4,0.1c0.2,0,0.2-0.1,0.4-0.1
		c0.2,0,0.3,0,0.5,0c0.5,0,2.7,0.1,2.9-0.1c-0.1-0.2-0.1-0.1-0.4-0.1l-1.4,0c-0.3,0-0.6,0-0.9,0c-0.2,0-0.3,0-0.5,0L38,98.3
		c0-0.3,0.1-0.2,0.5-0.2c0.2,0,0.5,0,0.7,0c0.3,0,1.2,0,1.4-0.1C40.4,98,39.4,98,39.2,98c-1.1,0-1.2,0.1-1.2-0.3l5.6,0
		c0.1,0,0.2,0,0.3,0l-1.2-0.1c-0.1,0-0.3-0.1-0.5-0.1c-0.4,0-2.8,0-3.7-0.1c-0.3,0-0.4,0.1-0.4-0.2c0.3,0,0.7,0,0.9,0
		c0.1,0-0.1,0,0.2,0.1c0.1,0,0.2,0,0.3,0c0.6,0,3.1,0.1,3.3-0.1c-0.1-0.2,0-0.1-0.3-0.1L40.6,97.1z M37.6,97.7
		c0.2,0.1,0.1,0.3-0.2,0.3c-0.5-0.1-1.6-0.1-2.1-0.1l-9,0l0-0.3c0.4-0.2,0.7,0.1,1.2,0l1.3,0c1,0,2,0,3,0l2.3,0
		c0.4,0,0.4,0.1,0.6,0.1C35.1,97.7,37.5,97.6,37.6,97.7z M32.9,98.3c-0.6-0.1-6.2,0.1-6.6-0.1c0-0.3,0.2-0.2,0.5-0.2l9.2,0.1
		c0.5,0,1.4-0.1,1.8,0v0.2c-0.2,0.1-3.7,0-4,0c-0.2,0-0.5,0-0.6,0C32.9,98.3,33.2,98.3,32.9,98.3z M64.7,99.7c0.2,0.1,0.2,0,0.2,0.2
		C64.7,99.9,64.8,99.9,64.7,99.7z"/>
</g>
</svg>
