<?xml version="1.0" encoding="utf-8"?>
<!-- Generator: Adobe Illustrator 24.0.0, SVG Export Plug-In . SVG Version: 6.00 Build 0)  -->
<svg version="1.1" id="Слой_1" xmlns="http://www.w3.org/2000/svg" xmlns:xlink="http://www.w3.org/1999/xlink" x="0px" y="0px"
	 width="107px" height="107px" viewBox="0 0 107 107" style="enable-background:new 0 0 107 107;" xml:space="preserve">
<style type="text/css">
	.st0{fill:#24415E;}
</style>
<g>
	<path class="st0" d="M30.8,81.5c0.1,0.1,0.3,0.2,0.4,0.4c0.9-1.3,1.5-2,2-2.8c0-0.1,0-0.2,0-0.5C26.6,73,22.5,66.1,21.3,57.8
		c-0.1-1-0.1-2-0.1-3c0-1.4-0.3-2.1-1-2.4c-0.5-0.3-1.1-0.4-1.9-0.2c-0.3,0-0.7,0.1-1.1,0.1c0,0.1,0,0.1,0,0.2
		c-0.1,0-0.2,0.1-0.3,0.1c0.2,1.7,0.4,3.5,0.7,5.4c0,0.9,0.1,1.8,0,2.7c0,0.7-1,2-1.7,2.1c-0.3,0-0.6,0-0.9,0.1c-1.9,0-3.8,0-5.7,0
		c0,0-0.1,0-0.1,0c-0.1,0-0.2,0-0.3,0c-2.6,0-4.7,0.9-5.4,3.5c-0.1,0.5-0.2,1-0.3,1.5c-0.1,0.3-0.1,0.6-0.1,1c0,0.3,0,0.6,0,0.9
		c-0.1,4.6,1.9,9.3,5.7,12c1.5,1.3,2.9,1.9,4.4,1.9c1.6,0.2,3-0.4,4.2-1.8c0.6-0.5,1.2-1.1,1.8-1.9c1-1.2,2.2-2.2,3.1-3.5
		c0.5-0.7,0.9-1,1.3-1.2c0.5,0,1,0.3,1.6,1.1c1.6,2.1,3.4,3.9,5,5.7C30.3,81.8,30.5,81.6,30.8,81.5z M11.5,78.7
		c-1.7-2.1-3.6-4.5-4.4-7c-1.3-4.3-0.1-5.3,5.6-4.9c0.7,0,2,0.1,3.2-0.2c0.8-0.2,1.4-0.3,2-0.3c1.3,0.3,1.9,1.5,2.7,2.7
		c1.3,2.1,0,3-1.3,4.2c-1.5,1.5-2.8,3.1-4,4.8c-0.7,1-1.6,1.6-2.4,1.6C12.5,79.6,12,79.3,11.5,78.7z"/>
	<path class="st0" d="M59.8,26.9c0.1-0.2,0.2-0.4,0.2-0.5c0.1,0.1,0.2,0.1,0.3,0.2c0.8-2.3,1.5-4.5,2-6c-0.1-0.1-0.3-0.2-0.4-0.3
		c0.6-3.3,0.5-6.5,0.1-9.8c-0.3-2.3,0-3.9,0.9-4.8c2.1-0.7,4.2-0.7,6.1-0.4c1,0.2,1.9,0.5,2.8,1c0.5,0.2,0.9,0.4,1.2,0.6
		c1,0.6,2,1.5,2.8,2.4c0,0,0,0.1,0.1,0.1c0.8,1.6-0.1,3.4-2.7,5.9c-4,3.7-6.8,8.1-8.2,13.5c0.4,0.1,0.7,0.2,1,0.2c0,0,0,0,0,0
		c0,0,0,0,0,0c0.9,0.2,1.7,0.4,2.5,0.6c0.3-0.9,0.7-1.8,1-2.7c0.3-0.5,0.5-1,0.7-1.6c0.9-1.7,1.9-3.3,3.1-4.7c0,0,0,0,0,0
		c1.5-1.5,3.1-2.9,4.7-4.4c3.3-3,3.6-6.4,0.5-9.6c-1.4-1.5-3.2-2.8-5-3.9c-1.7-1.1-4.1-1.6-6.5-1.6c-1.9-0.1-3.7,0-5.4,0.6
		c-3,1-5,3.9-4.1,6.8c1.8,5.6,0.7,10.9-1.1,16.3C57.6,25.6,58.5,26.1,59.8,26.9z"/>
	<path class="st0" d="M27.4,19.4c0.4,0.2,0.8,0.5,1.2,0.7c0.8,0.7,1.5,1.4,2.3,2c1.2,1.1,1.3,1.9-0.2,3c-2.1,1.6-3.9,3.4-5.7,5
		c1.6,3,2.8,3.2,4.8,1.2c0,0.1,0.1,0.1,0.1,0.2c1.6-1.3,3.2-2.7,5.3-4.4c-0.1-0.1-0.3-0.1-0.4-0.2c1.9-1.4,3.8-2.5,5.9-3.4
		c0.8,0.3,1.8,0.2,3-0.2c1.9-0.8,4-1.3,6.1-1.9c0.8,0,1.6-0.1,2.5,0c0.2,0,0.3,0,0.5,0c0.1,0.2,0.2,0.3,0.4,0.5
		c0.2-0.1,0.4-0.3,0.6-0.4c0-0.1,0-0.2,0-0.3c1.3-0.5,1.4-1.8,1.1-3.8c-2.9,0.2-5.7,0.4-8.4,0.3c-0.7,0-2-1-2.1-1.7
		c0-0.3,0-0.6-0.1-0.9c0-1.8,0-3.6,0-5.3c0-0.5,0-1-0.1-1.5c-0.1-2.3-1.1-4-3.5-4.7c-1.3-0.4-2.6-0.5-4-0.5c-3.5,0-6.7,1-9.3,3.2
		C22.5,10.3,20.4,15.1,27.4,19.4z M33.6,19.5c-1.5-1.5-3.1-2.8-4.8-4c-0.3-0.2-0.6-0.5-0.9-0.8c-0.4-0.6-0.6-1.5-0.7-2.1
		c0.1-0.4,0.4-0.9,0.9-1.3c2.1-1.6,4.3-2.9,6.6-4.3c0.8-0.2,1.5-0.3,2.4-0.3c2.1,0,3.4,0.8,3.2,3.3c0,0.3,0,0.5,0,0.8
		c-0.2,1.6-0.3,3.3,0,4.9c0,0.6,0,1.3,0,1.9c0,0.4-0.1,0.9-0.2,1.3c-0.5,0.7-1.4,1.1-2.3,1.7C35.7,22,34.8,20.7,33.6,19.5z"/>
	<path class="st0" d="M67.9,55.5c4.2,0,8.3-4.2,8.4-8.4c0-0.9-0.2-1.9-0.5-2.7c-0.8-3.8-3.9-6.4-7.9-6.5c-4.6-0.1-8.5,3.7-8.6,8.3
		c0,0.5,0,1,0.1,1.6C59.3,51.7,64,55.6,67.9,55.5z M72.1,45.8c0,0.2,0,0.4,0,0.6c-0.1,2.5-2,4.4-4.5,4.3c-2.1-0.1-3.9-1.7-4.3-3.6
		c0-2.6,1.9-4.7,4.3-4.7C69.9,42.4,71.6,43.8,72.1,45.8z"/>
	<path class="st0" d="M38.7,51.4c-4.8-0.2-8.3,3.6-8.3,8.5c0,2.2,0.8,4,2,5.5c1.5,2.2,4.1,3.4,6.7,3.6c4.4,0.4,8.2-3.5,8.3-8
		c0.1-2.3-0.6-4.4-1.8-5.9C44.1,52.7,41.6,51.5,38.7,51.4z M43.3,59.6c0.1,2.1-2.5,4.6-4.6,4.7c-0.9,0-1.8-0.3-2.5-0.8
		c-0.9-1-1.5-2.1-1.5-3.1c0-2.3,2.5-4.6,4.8-4.5c1,0,1.8,0.3,2.5,0.9C42.7,57.5,43.2,58.6,43.3,59.6z"/>
	<path class="st0" d="M80.6,88.3c-2.2-1.4-4-3.4-5.7-5c-0.1-0.7,0.6-1.4,1.5-2.1c1.1-1,2.1-2,3.2-3.1c0.7-0.7,1.4-1.3,2.1-2
		c0,0-0.1-0.1-0.1-0.1c0.1-0.1,0.1-0.1,0.2-0.2c-0.9-0.7-1.6-1.2-2.2-1.6c-0.3-0.3-0.5-0.5-0.7-0.6c-0.1,0.1-0.2,0.1-0.2,0.2
		c-0.1,0-0.1,0-0.2,0c-0.1,0.2-0.3,0.3-0.4,0.5c-3.7,2.8-7.1,5.8-11,7.7c-4.2,2-9.1,2.8-14,4.2c0,0,0,0,0,0.1
		c-1.5,0.5-1.3,2-0.7,3.9c3.1-0.4,6.2-0.8,10.3-1.2c0,0.9,0,1.7,0,2.5c0,1.3,0,2.6,0,3.9c0,0.5,0,1.1,0,1.6c0,0.6,0,1.1,0.1,1.7
		c0.3,3.2,2.5,5.2,5.9,5.4c1.8,0.1,3.6-0.1,5.2-0.6c3.3-0.9,6.2-3,8.6-5.9C84.8,94.2,83.8,90.3,80.6,88.3z M71,99.8
		c-1.9,0.5-3.2,0.3-3.8-0.5c-0.5-0.8-0.6-2.2-0.5-4.3c0.1-0.5,0.1-1,0.2-1.4c-0.1-1.4-0.1-2.7-0.4-3.9c-0.1-0.5-0.1-0.9-0.1-1.3
		c0.3-1,1.2-1.7,2.8-2.3c1.7-0.7,2.5-0.4,3.5,0.5c1.8,1.6,3.5,3.3,5.4,4.7c1.8,1.3,2.1,2.8,0.6,4.1c-0.8,0.7-1.7,1.4-2.6,2
		C74.4,98.4,72.7,99.3,71,99.8z"/>
	<path class="st0" d="M9,48.4c3.5-0.2,7.1-0.7,10.7-0.1c1.6,0.5,3.1,1,4.7,1.6c0.3,0.1,0.5,0.3,0.8,0.4c0.5-1.3,1-2.4,1.4-3.5
		c0,0-0.1-0.1-0.1-0.1c0-0.1,0.1-0.1,0.1-0.2c-0.3-0.1-0.6-0.2-1-0.3c-1.6-0.9-3.3-1.4-5-1.7c0,0-0.1,0-0.1,0c0,0,0,0,0,0
		c-3.8-0.7-7.7-0.2-11.5,0c-1.9,0.1-3.2-0.1-3.7-1.6c-0.1-0.4-0.2-0.8-0.2-1.1c-0.4-3.5,0.7-6.6,2.9-9.3c1.2-1.4,2-2.2,2.7-2.5
		c1-0.3,1.8,0.2,2.8,1.2c1.4,1.5,2.7,3,4.1,4.4c0.1-0.1,0.1-0.1,0.2-0.2c2.8,2.5,6,4.6,10,5.5c0.1,0.2,0.2,0.3,0.4,0.5
		c0.1-0.1,0.2-0.2,0.4-0.3c0.1,0,0.1,0,0.2,0c0-0.1,0.1-0.2,0.1-0.3c0,0,0.1-0.1,0.1-0.1c0-0.1,0-0.1,0-0.2c0.3-0.8,0.7-1.6,1.1-2.6
		C23.8,36,19.4,32,15.2,27.4c-0.3-0.4-0.9-0.6-1.5-0.8c-2.4-1.3-4.8-0.9-7.2,1.4c-1.5,1.4-2.8,3.2-3.9,5c-1.1,1.7-1.6,4.1-1.6,6.5
		c-0.1,1.5,0,3,0.4,4.4C2.6,47.7,5.1,48.7,9,48.4z"/>
	<path class="st0" d="M49.5,82.9c0.2-0.4,0.4-0.8,0.6-1.2c-0.1,0-0.2-0.1-0.3-0.1c0-0.2,0.1-0.3,0.1-0.5c-1-0.3-2-0.7-3.1-1
		c0,0.1-0.1,0.2-0.1,0.3c0,0,0,0,0,0c-3.5,5.7-2.6,11.7-2.3,17.6c0.1,2.2-0.2,3.5-2.5,3.8c-0.4,0-0.7,0.1-1.1,0.1
		c-0.1,0-0.2,0-0.4,0c0,0,0,0,0,0c-3,0-5.5-1.2-7.9-2.9c-3.6-2.6-3.6-4-0.1-6.8c4.6-3.7,7.1-8.5,9.2-14.1c-1.3-0.6-2.4-1-3.4-1.4
		c-0.1,0.1-0.1,0.3-0.2,0.4C38,77.1,37.8,77,37.7,77c-1.6,5.2-4.8,9.2-8.5,12.9c-0.2,0.2-0.5,0.4-0.7,0.6c-2.4,1.9-3.2,4.7-2.1,7.4
		c0.3,0.7,0.7,1.3,1.2,1.9c2.9,4.1,9.6,6.7,14.8,6c0.5-0.1,1-0.1,1.5-0.3c4.1-1.2,5.5-4.2,4.9-8.5c-0.5-3.4-0.1-6.9,0.1-10.4
		C48.9,85.3,49.2,84.2,49.5,82.9z"/>
	<path class="st0" d="M105.1,62c-1-3-3.9-5-6.8-4.1C98.1,58,98,58,97.9,58c-0.4,0-0.8,0.1-1.2,0.1c-3.4,0.5-6.9,0.1-10.4-0.1
		c-0.1,0-0.2,0-0.3,0c-1.4-0.3-2.8-0.7-4.1-1.2c-0.1,0.1-0.1,0.2-0.2,0.3C81.5,57,81.3,57,81,56.9c-0.3,0.9-0.6,1.7-0.9,2.7
		c-0.1,0.1-0.1,0.2-0.2,0.3c0,0,0.1,0,0.1,0c0,0,0,0.1,0,0.1c4.2,1.9,8.4,2.7,12.7,2.5c1.2,0,2.5-0.1,3.7-0.3
		c2.2-0.3,3.7-0.1,4.6,0.7c0.3,0.5,0.5,1.2,0.6,2.1c0.4,3.5-0.9,6.5-2.8,9.2c-0.8,1.1-1.5,1.8-2.1,2.3c-1.4,0.3-3-0.7-5.1-3
		c-3.4-3.7-7.5-6.3-12.4-7.9c-0.4-0.2-0.8-0.3-1.2-0.5c-0.6,1.3-1,2.4-1.4,3.4c6.2,2.8,9.3,4.1,13.7,9.8c1.5,2,3.7,2.9,5.9,2.5
		c0.1,0,0.3,0,0.4-0.1c0,0,0,0,0.1,0c0.6-0.1,1.3-0.4,1.9-0.8c0,0,0,0,0,0c0.6-0.4,1.2-0.8,1.7-1.3C104.7,74.7,106.9,67.7,105.1,62z
		"/>
	<path class="st0" d="M59.8,76.4c1.6,0,3.1-0.5,4.4-1.3c2.9-1.4,4.3-4.4,4.6-7.3c0.4-4.4-3.5-8.2-8-8.3c-0.5,0-1.1,0-1.6,0.1
		c-4-0.2-7.9,4.5-7.8,8.4C51.4,72.2,55.6,76.3,59.8,76.4z M59.7,63.5c2.6-0.1,4.7,1.9,4.7,4.3c0,0.9-0.3,1.8-0.7,2.5
		c-1,1.1-2.4,1.9-3.5,1.9c-2.3,0-4.6-2.5-4.5-4.8c0-0.8,0.3-1.6,0.7-2.2C57.3,64.3,58.6,63.5,59.7,63.5z"/>
	<path class="st0" d="M55.5,38.8c0.2-4.8-3.6-8.3-8.5-8.3c-1.4,0-2.6,0.3-3.7,0.8c-3.3,1.1-5.5,4-5.6,7.6c-0.1,4.6,3.7,8.5,8.3,8.6
		c1.4,0,2.7-0.3,3.9-0.9C53.6,45.5,55.4,42.4,55.5,38.8z M47.3,43.4c-2.1,0.1-4.6-2.5-4.7-4.6c0-1.6,1-3.1,2.4-3.9
		c0.4-0.1,0.8-0.1,1.3-0.1c2.5,0.1,4.4,2,4.3,4.5c-0.1,1.9-1.4,3.6-3.2,4.2C47.4,43.4,47.3,43.4,47.3,43.4z"/>
	<path class="st0" d="M81.2,30.9c-1.8-2-3.5-3.8-5.3-5.7c-1.4,1.5-2.1,2.4-2.5,2.8c2.9,4.1,6.3,7.6,8.3,11.9
		c1.9,3.9,2.7,8.4,3.9,12.9c-0.2,0.1-0.4,0.3-0.6,0.4c0.1,0.2,0.3,0.4,0.4,0.6c0.1,0,0.3,0,0.4,0c0,0,0,0.1,0,0.1c0.6,0,1.7,0,3,0
		c0,0,0-0.1,0-0.1c0,0,0,0,0.1,0c-0.1-1.4-0.2-2.7-0.4-4c-0.1-1.8-0.3-3.6-0.4-5.4c2.4,0,4.5-0.1,6.6,0c0.6,0,1.2,0,1.7,0.1
		c0.3,0,0.5,0,0.8,0c3.5,0,5.9-2,6.3-5.6c0.5-4.2-0.5-8.2-3.1-11.3c-2.8-3.4-6-5.4-9.1-3.9c-1.3,0.5-2.4,1.4-3.3,2.7
		c-1.5,2.4-3.8,4.3-5.5,6.2c-0.3-0.4-0.6-0.7-1-1c0-0.1,0.1-0.1,0.1-0.2C81.6,31.1,81.4,31,81.2,30.9z M87.1,33.7
		c1.6-1.6,2.8-3.7,4.5-5.3c0.7-0.6,2.2-1.2,3-1c0.2,0.2,0.5,0.4,0.7,0.7c1.8,2.4,3.6,5,4.3,7.8c1,3.6-0.5,4.8-4.2,4.4
		c-0.7-0.1-1.5-0.2-2.1-0.2c-1.3,0.1-2.5,0.1-3.7,0.3c-0.2,0-0.4,0-0.6,0c-0.8,0-1.5-0.3-2.5-0.5c-0.7-0.6-1.1-1.4-1.7-2.3
		c-1.2-2.1,0.6-2.5,1.5-3.4C86.7,34,86.9,33.9,87.1,33.7z"/>
</g>
</svg>
