<?xml version="1.0" encoding="utf-8"?>
<!-- Generator: Adobe Illustrator 24.0.0, SVG Export Plug-In . SVG Version: 6.00 Build 0)  -->
<svg version="1.1" id="Слой_1" xmlns="http://www.w3.org/2000/svg" xmlns:xlink="http://www.w3.org/1999/xlink" x="0px" y="0px"
	 width="87px" height="118px" viewBox="0 0 87 118" style="enable-background:new 0 0 87 118;" xml:space="preserve">
<style type="text/css">
	.st0{fill:#EAFBFF;}
</style>
<g>
	<path class="st0" d="M73,48.2c-1.3-1.6-2.6-2.9-3.3-4.5c-1.3-2.8,0.1-4.9,2.3-6.6c1.5-1.2,2.2-2.1,0.2-4c-5.3-5-3.1-7.7,2.3-12.1
		c3.5-2.9,6.9-2.5,9.4,0.5c2.3,2.6,2,6.3-0.6,9.5c-0.6,0.7-1.1,1.3-1.4,1.7c1.3,2.2,2.8,4,3.4,6.2c0.4,1.3-0.2,3.4-1.1,4.5
		c-1.7,2.1-1.9,3.4,0.2,5.5c2,2,1.3,5.9-0.7,8.1c-1.3,1.3-1.8,2.1-0.2,3.7c2.4,2.3,2.7,5.3,0.9,8.1c-1.4,2.1-3.3,3.9-5.3,5.6
		c-1.5,1.3-6-0.3-7.7-2.3c-2.9-3.5-2.9-5.9,0.3-9.3c1.2-1.3,1.6-1.9-0.1-3.5c-3.5-3.2-3.1-6,0.4-9.5C72.5,49.3,72.7,48.7,73,48.2z
		 M71.8,28c2.2,1.8,4.4,4.1,4.7,3.9c2.1-1.7,3.9-3.9,5.7-5.9c-1.2-1-2.9-3.2-3.4-3C76.5,24.1,74.6,25.9,71.8,28z M77.1,46.4
		c1.6-1.9,2.9-3.5,4.3-5.1c1.2-1.3,1.1-2.8-0.3-3.6c-1.1-0.6-2.7-1-3.9-0.7c-1.1,0.3-2.2,1.5-2.9,2.5c-0.6,0.9-1.4,2.4-1,3.1
		C73.9,43.9,75.3,44.8,77.1,46.4z M76.6,58.8c1.9-1.8,3.4-3.1,4.7-4.6c1.1-1.2,1.1-2.4-0.4-3.8c-1.5-1.4-2.7-1.5-4.1-0.4
		c-0.9,0.7-1.8,1.5-2.5,2.4c-0.6,0.9-1.4,2.3-1.1,3C73.8,56.7,75.1,57.5,76.6,58.8z M76.6,71.7c1.5-1.6,2.6-3.1,4-4.1
		c2-1.5,1.8-2.9,0.3-4.4c-1.5-1.5-3-2-4.4,0.1c-0.5,0.8-1.5,1.3-2,2.1c-0.6,0.9-1.5,2.3-1.2,2.9C73.8,69.5,75.2,70.3,76.6,71.7z"/>
	<path class="st0" d="M75.4,17.1c-1,0-1.9,0-2.5,0c-0.6-2.5-0.9-4.9-1.7-7.2c-1-3-3.4-4.5-6.4-4.3c-1,0.1-2.6,1.8-2.7,2.8
		c-0.2,3.9-2.8,5.9-5.9,6.1c-6.6,0.3-13.3,0.1-19.9-0.5c-1.5-0.1-2.9-2.5-4-4.1c-1-1.5-0.3-4.2-3-4.3c-2.7-0.1-5,1.1-6.2,3.5
		c-0.8,1.6-1.2,3.5-1.3,5.2c-0.1,8.9-0.1,17.9-0.1,26.9c0,0.2-0.1,0.4-0.3,0.8c-0.8,0-1.6,0.1-2.6,0.2c-0.1-0.5-0.2-0.9-0.2-1.3
		c0-9.1,0.1-18.1,0-27.2C18.5,5.9,23,2,30.2,1.8c11.2-0.2,22.4-0.2,33.6,0C71.9,1.9,76.6,7.1,75.4,17.1z M59.3,5.8
		c-8.3,0-16.4,0-24.5,0c0.9,4.8,1.5,5.3,5.7,5.3c4.1,0,8.2,0,12.3,0C57.7,11,57.7,11,59.3,5.8z"/>
	<path class="st0" d="M21,66.5c8.4,7.3,12.3,16.2,12.5,27c-2.5,0.8-3.6,0.4-3.7-2.3C29.3,82,25.5,74.6,18.3,69
		c-1.2-0.9-1.7-1.8-0.9-3.3c1.5-3,2.9-6.2,4.3-9.3c1.1-2.4,0.3-5.5-1.8-7c-1.9-1.3-2.8-0.3-3.5,1.3c-2.2,5.2-4.1,10.5-6.6,15.5
		C7.5,70.9,6.4,75.8,7,80.9c0.3,2.8,0.8,5.7,2,8.2c1,2,1.2,3.2-0.4,4.9c-2,2.3-3.6,5.1-5.3,7.7c-3-1.6-3.3-1.9-1.3-4.1
		c3.7-4,3.6-7.9,2.1-12.9C2,77.8,3.8,70.7,6.7,64c2.2-5.1,4.6-10,6.5-15.2c1.6-4.3,5.8-5,8.7-2.3c3.6,3.4,4.7,8.6,2.3,13
		C23,61.8,22,64.2,21,66.5z"/>
	<path class="st0" d="M39.9,54.3c-3,0-5.4,0-8.1,0c0-4.9,0-9.7,0-14.8c2.6,0,5.1,0,7.8,0c0-2.7,0-5.2,0-7.9c4.8,0,9.3,0,14.2,0
		c0,2.4,0,4.9,0,7.8c2.7,0,5.2,0.1,7.6,0c1.7-0.1,2.4,0.5,2.4,2.3c-0.1,3.3-0.1,6.6,0,9.9c0,1.9-0.8,2.6-2.5,2.6c-2.3,0-4.7,0-7.3,0
		c0,2.8,0,5.3,0,7.9c-4.8,0-9.3,0-14.1,0C39.9,59.7,39.9,57.2,39.9,54.3z M60,43.1c-3.2,0-6.1,0-9.4,0c0-2.8,0.9-5.8-0.3-7.5
		c-1-1.4-4.3-1.1-7-1.6c0,3.5,0,6.2,0,9.2c-3.1,0-5.8,0-8.4,0c0,2.6,0,4.8,0,7.3c2.9,0,5.5,0,8.5,0c0,3,0,5.7,0,8.6
		c1.6,0,2.8-0.1,4,0c2.5,0.2,3.6-0.7,3.3-3.3c-0.2-1.7,0-3.4,0-5.4c3.3,0,6.2,0,9.2,0C60,47.9,60,45.8,60,43.1z"/>
	<path class="st0" d="M54.4,94.3c-6.2,0-11.6,0-17.2,0c0-1.2,0-2.2,0-3.6c2.4,0,4.7,0,7.1,0c6.6,0,13.2-0.2,19.7,0.1
		c4.7,0.2,8.1-3.7,8.3-8.2c0.1-1.7,0-3.5,0-5.4c1.1-0.1,1.9-0.1,3-0.2c0,2.9,0.5,5.7-0.1,8.3c-1.5,6.4-4.5,8.6-10.8,8.7
		c-4.7,0.1-7.3,2.1-9.8,5.1c-4.6,5.4-10.7,8.2-17,10.8c-2.2,0.9-3.5,4-5.4,5.9c-0.7,0.7-1.8,0.9-2.7,1.3c-0.3-0.7-1.1-1.8-0.9-2.2
		c2.6-3.7,4.5-7.8,9.8-9.2C44.7,104.3,49.7,100.2,54.4,94.3z"/>
	<path class="st0" d="M41.7,85.1c0-1.4,0-2.4,0-3.7c3.1,0,6-0.1,9,0.1c0.7,0,1.3,1.1,2,1.7c-0.6,0.6-1.2,1.7-1.9,1.8
		C47.8,85.3,44.8,85.1,41.7,85.1z"/>
</g>
</svg>
