<?xml version="1.0" encoding="utf-8"?>
<!-- Generator: Adobe Illustrator 24.0.0, SVG Export Plug-In . SVG Version: 6.00 Build 0)  -->
<svg version="1.1" id="Слой_1" xmlns="http://www.w3.org/2000/svg" xmlns:xlink="http://www.w3.org/1999/xlink" x="0px" y="0px"
	 width="88px" height="105px" viewBox="0 0 88 105" style="enable-background:new 0 0 88 105;" xml:space="preserve">
<style type="text/css">
	.st0{fill:#24415E;}
</style>
<g>
	<path class="st0" d="M5.5,16.5c-1.7-0.1-3-0.2-4.6-0.3c0-2.6,0-5.2,0-7.8c0-2.6,0-5.2,0-8c12.2,0,24.3,0,36.6,0
		c0,5.1,0,10.3,0,15.5c-0.2,0.1-0.3,0.3-0.5,0.3c-3.9,0.2-3.9,0.2-3.9,4.2c0,22.6,0,45.1,0,67.7c0,7.8-2.6,12.3-10.1,15
		c-5,1.8-11.8-0.5-15.2-5.8c-1.9-2.9-2.2-6.2-2.2-9.4c0-22.6,0-45.1,0-67.7C5.5,19.1,5.5,17.9,5.5,16.5z M9.1,27.3
		c3.8,0,7.5,0,11.3,0c0,18.1,0,35.9,0,54c-3.8,0-7.5,0-11.4,0c0,3.4-0.3,6.6,0.1,9.7c0.9,8.2,10.2,12,16.5,7.4
		c3.3-2.4,4.7-5.9,4.7-10c0-21.5,0-43,0-64.5c0-7.5,0-7.5-7.4-7.5c-4.5,0-9.1,0-13.7,0C9.1,20.2,9.1,23.6,9.1,27.3z M9.2,30.8
		c0,15.9,0,31.4,0,46.9c2.9,0,5.6,0,8.1,0c0-15.8,0-31.3,0-46.9C14.5,30.8,12,30.8,9.2,30.8z M23.2,4c-2.9,0-5.6,0-8.5,0
		c0,2.6-0.1,5,0.1,7.3c0.1,0.7,1.1,1.8,1.8,1.9c2.1,0.2,4.3,0.1,6.6,0.1C23.2,10,23.2,7.1,23.2,4z M26.9,13.3c2.2,0,4.4,0.1,6.5-0.1
		c0.5,0,1.3-0.9,1.3-1.4c0.1-2.6,0.1-5.2,0.1-7.8c-2.9,0-5.4,0-7.9,0C26.9,7,26.9,9.9,26.9,13.3z M4.6,3.3c0,3.7,0,6.7,0,10.3
		c2.5-0.4,6-0.1,6.6-1.3c1.1-2.1,1.2-5.5,0.1-7.6C10.7,3.5,7.2,3.8,4.6,3.3z"/>
	<path class="st0" d="M47.4,53.2c-0.2-2.4-0.3-4.9-0.7-7.3c-0.1-0.6-1.4-1.5-1.8-1.4c-1.8,0.5-4,0.8-4.3,2.9
		c2.2,2.4,4.2,4.6,5.5,6.1c-2.3,2.8-4.1,5.1-6.1,7.2c-0.6,0.6-2.1,0.3-3.1,0.4c-0.2-0.4-0.3-0.7-0.5-1.1c1.9-2.2,3.7-4.3,5.8-6.7
		c-0.8-0.7-1.7-1.4-2.6-2.1c-4-3.1-2.9-5.4-0.3-7.5c1.8-1.5,4.5-2.2,6.9-2.5c2.8-0.3,4.2,1.9,4,4.7c-0.1,1.4,0.1,2.8,0.2,4.1
		c2.8-0.2,4.9-0.3,7.5-0.5c0-2.3,0.2-4.6-0.1-7c-0.2-2,0.8-2.9,2.2-3.8c3.5-2.1,10.9,1.1,11.9,4.6c0.6,2.2,0.4,3.9-1.7,5.4
		c-1.4,1-3.3,3.2-3,4c0.8,1.8,2.7,3.2,4.4,4.5c0.2,0.2,1.4-0.7,1.9-1.3c3-3.5,4.1-3.9,7-2.4c2.8,1.5,5,7.3,3.5,10.1
		c-0.5,1-1.9,1.7-3.1,2c-1.6,0.3-3.4,0.1-5.2,0.1c0.2,1.8,0.4,3.3,0.5,4.8c0.1,3.2,0.8,3.7,4,3c1.3-0.3,2.6-0.9,3.8-0.6
		c2.3,0.6,3,2.4,3.2,4.8c0.2,4.2-1.1,7.2-4.6,9.6c-1.6,1-2.8,1-4.1-0.2c-1.2-1.1-2.2-2.5-3.6-3.4c-0.7-0.5-2.3-0.6-2.9-0.1
		c-1.4,1.2-2.5,2.8-3.8,4.3c1.3,2.5,6.2,3,4.6,7.1c-1.4,3.4-5.6,5.7-9.3,5.2c-1.4-0.2-1.4-0.1-4.1-8.3c-1,0.1-2.1,0.2-3.2,0.3
		c-1.1,0.1-2.2,0-3.7,0c0,2-0.2,3.8,0,5.6c0.5,4.5-2.4,5.3-5.7,5.1c-2.5-0.2-5.1-1.6-7.3-3.1c-2.2-1.5-2-4.7,0-6.6
		c0.1-0.1,0.2-0.1,0.2-0.2c3.5-3.4,3.5-3.4,0-6.9c-1.1-1.1-2-2.2-3.1-3.5c1.5-1.6,2.5-2.3,4.2-0.2c1.3,1.7,3.4,2.8,5.1,4.2
		c1.1,0.8,1.9,1.6,0.7,3c-1.8,2.1-3.5,4.3-5.4,6.6c1.4,3,2.6,3.6,7.5,3.2c0.2-3.7,0.4-7.3,0.6-11.5c3.9,1.7,7,1.6,10.1,0.4
		c2.4-0.9,3.2-0.1,3.3,2.5c0,1.9,0,3.8,0,6.7c2.7-1.1,4.9-2,7.6-3.1c-1.8-1.5-3.1-2.4-4.1-3.5c-1-1.1-1.8-2.5-2.4-3.4
		c3-3.4,5.6-6.4,8.5-9.7c2.6,2.1,5.5,4.4,8.6,6.8c0.7-0.8,1.9-1.7,2.2-2.8c0.5-1.4,0.8-3.2,0.4-4.6c-0.7-2.4-2.5-0.2-3.9-0.4
		c-2.3-0.4-4.7-0.5-7.2-0.7c0.2-2.2,0.6-4.2,0.4-6.1c-0.2-1.9-0.9-3.8-1.6-6.4c3-0.5,6.1-1.1,9.6-1.7c0.6-2.4-0.5-4.3-2.7-5.7
		c-2.4,2.2-4.7,4.3-6.6,6.1c-3.1-2.6-5.9-4.7-8.4-7.1c-0.5-0.5-0.5-2.4,0.1-3.1c1.7-2.5,3.7-4.8,5.6-7.2c-1.8-2.6-4.3-3.7-7.5-2.9
		c-0.3,3.9-0.6,7.9-0.9,11.4C55.7,53.2,51.7,53.2,47.4,53.2z"/>
	<path class="st0" d="M60,57.9c-2.4,2.1-2.7,3.8-1.6,5.7c1.3,2.1,3.1,3.4,5.6,2.4c1.9-0.8,3.2-0.5,4.2,1.5c-2.6,2.5-5.9,2.3-8.8,1.4
		c-3.2-0.9-4.4-4.1-4.8-7.1c-0.2-1.6,0.9-3.4,1.8-4.9C56.4,56.7,58.3,57.5,60,57.9z"/>
	<path class="st0" d="M54.9,80.4c-0.1,0.5-0.1,1.7-0.6,2.7c-0.4,0.8-1.4,1.3-2.1,1.9c-0.4-1-1.2-2.2-1-3c1.1-3.5,0.2-5.7-3.2-6.6
		c-0.9-0.2-1.9,0.5-2.9,0.4c-1-0.1-2-0.6-3-0.9c0.7-0.8,1.2-2,2-2.2C50.2,71,54.9,74.2,54.9,80.4z"/>
	<path class="st0" d="M49.3,58.9c1.9,2,2.2,5.9,0.7,7.7c-2.2,2.6-4.7,3.3-6.9,1.8c-0.5-0.3-0.7-1.1-1.1-1.6c0.7-0.4,1.4-1.2,2.1-1.2
		c3.4,0,3.6-0.2,3.4-3.8C47.5,61,48.6,60.1,49.3,58.9z"/>
	<path class="st0" d="M68.8,75c-1.8,0.5-2.9,1-4.1,1c-2.1,0.1-3.2,0.7-3,3.1c0.1,1.1-0.7,2.2-1.2,3.8c-2.5-3.6-2.5-6.7-0.5-8.5
		C62.1,72.5,65.2,71.3,68.8,75z"/>
</g>
</svg>
