<?xml version="1.0" encoding="utf-8"?>
<!-- Generator: Adobe Illustrator 24.0.0, SVG Export Plug-In . SVG Version: 6.00 Build 0)  -->
<svg version="1.1" id="Слой_1" xmlns="http://www.w3.org/2000/svg" xmlns:xlink="http://www.w3.org/1999/xlink" x="0px" y="0px"
	 width="149px" height="29px" viewBox="0 0 149 29" style="enable-background:new 0 0 149 29;" xml:space="preserve">
<style type="text/css">
	.st0{fill:url(#SVGID_1_);}
	.st1{fill:url(#SVGID_2_);}
	.st2{fill:url(#SVGID_3_);}
	.st3{fill:url(#SVGID_4_);}
	.st4{fill:url(#SVGID_5_);}
	.st5{fill:url(#SVGID_6_);}
</style>
<g>
	<g>
		<linearGradient id="SVGID_1_" gradientUnits="userSpaceOnUse" x1="88.5805" y1="27.6131" x2="88.5805" y2="0.6374">
			<stop  offset="0" style="stop-color:#F39221"/>
			<stop  offset="0.2778" style="stop-color:#F28822"/>
			<stop  offset="0.5423" style="stop-color:#F08221"/>
			<stop  offset="0.7804" style="stop-color:#F07A20"/>
			<stop  offset="1" style="stop-color:#EC6E21"/>
		</linearGradient>
		<path class="st0" d="M74.9,27.6c0-9,0-17.9,0-26.9c1.6,0,4.9,0,4.9,0s5.2,12.6,7.6,18.7c0.3,0.8,0.7,1.6,1.1,2.6
			c0.7-1.7,1.3-3.2,1.9-4.8c1.1-2.7,2.2-5.3,3.3-8c1.1-2.6,3.4-8.5,3.4-8.5s3.6,0,5,0c0,9,0,18,0,27c-1.3,0-2.6,0-3.9,0
			c0-6.5,0-12.9,0-19.4c-0.1,0-0.1,0-0.2,0c-0.5,1.2-1,2.4-1.5,3.6c-1.7,4.2-5.2,12.6-5.2,12.6l-1.3,3l-3.2,0c0,0-0.1-0.2-0.4-0.9
			c-0.9-2.3-1.9-4.5-2.8-6.8c-1.3-3.2-2.7-6.5-4-9.7c-0.2-0.6-0.5-1.1-0.8-1.9c0,6.6,0,13,0,19.5C77.5,27.6,76.3,27.6,74.9,27.6z"/>
		<linearGradient id="SVGID_2_" gradientUnits="userSpaceOnUse" x1="136.7142" y1="27.673" x2="136.7142" y2="0.6423">
			<stop  offset="0" style="stop-color:#F39221"/>
			<stop  offset="0.2778" style="stop-color:#F28822"/>
			<stop  offset="0.5423" style="stop-color:#F08221"/>
			<stop  offset="0.7804" style="stop-color:#F07A20"/>
			<stop  offset="1" style="stop-color:#EC6E21"/>
		</linearGradient>
		<path class="st1" d="M125.4,27.6c0-9,0-18,0-27c0.2,0,0.4,0,0.6,0c3.2,0,6.5,0,9.7,0c2.1,0,4.1,0.4,6,1.4c2.8,1.5,4.6,3.9,5.5,6.9
			c1.1,4.2,1.1,8.3-0.8,12.3c-1.5,3.2-4,5.2-7.5,5.9c-1.3,0.3-2.7,0.4-4.1,0.5c-2.9,0.1-5.9,0-8.8,0
			C125.9,27.7,125.7,27.6,125.4,27.6z M129.7,23.9c0.7,0,1.4,0,2,0c1.7,0,3.4,0,5-0.2c3-0.4,5.1-2.1,6.1-5c1-3,1-6.1,0-9.1
			c-0.9-2.7-2.8-4.5-5.8-5c-1.6-0.2-3.3-0.2-4.9-0.3c-0.8,0-1.6,0-2.4,0C129.7,10.9,129.7,17.4,129.7,23.9z"/>
		<linearGradient id="SVGID_3_" gradientUnits="userSpaceOnUse" x1="114.2537" y1="27.6015" x2="114.2537" y2="0.6423">
			<stop  offset="0" style="stop-color:#F39221"/>
			<stop  offset="0.2778" style="stop-color:#F28822"/>
			<stop  offset="0.5423" style="stop-color:#F08221"/>
			<stop  offset="0.7804" style="stop-color:#F07A20"/>
			<stop  offset="1" style="stop-color:#EC6E21"/>
		</linearGradient>
		<path class="st2" d="M105.7,27.6c0-3.8,0-7.5,0-11.2c0-5,0-15.8,0-15.8s11.3,0,16.5,0c0.2,0,0.4,0,0.6,0c0,1.2,0,2.4,0,3.7
			c-4.3,0-8.5,0-12.8,0c0,2.6,0,5.1,0,7.8c4,0,8.1,0,12.1,0c0,1.2,0,2.3,0,3.5c-4,0-8,0-12.1,0c0,2.8,0,5.5,0,8.3
			c4.3,0,8.5,0,12.8,0c0,1.2,0,2.4,0,3.7C117.2,27.6,111.5,27.6,105.7,27.6z"/>
	</g>
	<g>
		<linearGradient id="SVGID_4_" gradientUnits="userSpaceOnUse" x1="36.9918" y1="27.6464" x2="36.9918" y2="0.6374">
			<stop  offset="0" style="stop-color:#223871"/>
			<stop  offset="0.2778" style="stop-color:#1A3C79"/>
			<stop  offset="0.5423" style="stop-color:#163F7D"/>
			<stop  offset="0.7804" style="stop-color:#0B4688"/>
			<stop  offset="1" style="stop-color:#0C4588"/>
		</linearGradient>
		<path class="st3" d="M25.8,27.6c0-9,0-18,0-26.9c1.4,0,2.8,0,4.3,0c0,6.7,0,13.4,0,20.1c0.1,0,0.1,0,0.2,0c0.9-1.3,1.8-2.6,2.7-4
			C36.6,11.7,44,0.6,44,0.6l1.3,0c0,0,1.7,0,2.8,0c0,9,0,17.9,0,26.9c-1.4,0-2.8,0-4.2,0c0-6.7,0-13.3,0-20c-0.1,0-0.1,0-0.2-0.1
			c-0.2,0.3-0.4,0.5-0.6,0.8c-4.2,6.3-13.1,19.3-13.1,19.3h-0.7C29.4,27.6,27.1,27.6,25.8,27.6z"/>
		<linearGradient id="SVGID_5_" gradientUnits="userSpaceOnUse" x1="12.4949" y1="27.6448" x2="12.4949" y2="0.6374">
			<stop  offset="0" style="stop-color:#223871"/>
			<stop  offset="0.2778" style="stop-color:#1A3C79"/>
			<stop  offset="0.5423" style="stop-color:#163F7D"/>
			<stop  offset="0.7804" style="stop-color:#0B4688"/>
			<stop  offset="1" style="stop-color:#0C4588"/>
		</linearGradient>
		<path class="st4" d="M1.2,27.6c0-9,0-18,0-27c0.3,0,0.5,0,0.7,0c3.3,0,6.5-0.1,9.8,0c2.5,0.1,5,0.7,7.1,2.2
			c2.4,1.7,3.8,4.1,4.5,6.9c0.8,3.5,0.7,7-0.5,10.3c-1.5,4-4.3,6.4-8.5,7.2c-1.1,0.2-2.2,0.3-3.3,0.3c-3,0-5.9,0-8.9,0
			C1.8,27.6,1.5,27.6,1.2,27.6z M5.5,23.8c2.3,0,4.5,0.1,6.7,0c3.2-0.3,5.3-2.1,6.4-5.1c0.9-2.5,0.9-5.1,0.4-7.6
			c-0.4-2-1.3-3.9-3.1-5.1c-1.3-0.9-2.6-1.4-4.2-1.4c-2,0-4.1,0-6.1,0C5.5,10.9,5.5,17.4,5.5,23.8z"/>
		<linearGradient id="SVGID_6_" gradientUnits="userSpaceOnUse" x1="61.552" y1="27.6073" x2="61.552" y2="0.6374">
			<stop  offset="0" style="stop-color:#223871"/>
			<stop  offset="0.2778" style="stop-color:#1A3C79"/>
			<stop  offset="0.5423" style="stop-color:#163F7D"/>
			<stop  offset="0.7804" style="stop-color:#0B4688"/>
			<stop  offset="1" style="stop-color:#0C4588"/>
		</linearGradient>
		<path class="st5" d="M73.6,27.6c-1.5,0-3,0-4.6,0c-0.8-2.2-1.5-4.5-2.3-6.7c-0.1-0.4-0.3-0.5-0.7-0.5c-3,0-6,0-9,0
			c-0.4,0-0.6,0.1-0.7,0.5c-0.7,2.2-1.5,4.5-2.3,6.7c-1.5,0-3,0-4.5,0c0.8-2.3,1.6-4.5,2.4-6.7c2.4-6.6,7.3-20.3,7.3-20.3l4.6,0
			c0,0,6.4,17.8,9.6,26.4C73.5,27.2,73.5,27.4,73.6,27.6z M57.6,16.9c2.7,0,5.2,0,7.9,0c-1.3-3.8-2.6-7.6-3.9-11.6
			C60.2,9.3,58.9,13.1,57.6,16.9z"/>
	</g>
</g>
</svg>
