<?xml version="1.0" encoding="utf-8"?>
<!-- Generator: Adobe Illustrator 24.0.0, SVG Export Plug-In . SVG Version: 6.00 Build 0)  -->
<svg version="1.1" id="Слой_1" xmlns="http://www.w3.org/2000/svg" xmlns:xlink="http://www.w3.org/1999/xlink" x="0px" y="0px"
	 width="20px" height="13px" viewBox="0 0 20 13" style="enable-background:new 0 0 20 13;" xml:space="preserve">
<style type="text/css">
	.st0{fill:#14426E;}
</style>
<g>
	<polygon class="st0" points="17.9,0.8 17.7,0.8 2.2,0.8 2.1,0.8 10,7.8 	"/>
	<path class="st0" d="M18.8,1.5l-5.6,4.9l5.5,4.8c0.1-0.2,0.1-0.3,0.1-0.5V1.9C18.8,1.8,18.8,1.6,18.8,1.5z"/>
	<path class="st0" d="M1.2,1.5C1.2,1.6,1.1,1.7,1.1,1.9v8.8c0,0.2,0,0.3,0.1,0.5l5.6-4.8L1.2,1.5z"/>
	<polygon class="st0" points="10,9.3 7.6,7.2 2.2,11.8 2.2,11.8 17.7,11.8 12.3,7.2 	"/>
</g>
</svg>
