<?xml version="1.0" encoding="utf-8"?>
<!-- Generator: Adobe Illustrator 24.0.0, SVG Export Plug-In . SVG Version: 6.00 Build 0)  -->
<svg version="1.1" id="Слой_1" xmlns="http://www.w3.org/2000/svg" xmlns:xlink="http://www.w3.org/1999/xlink" x="0px" y="0px"
	 width="15px" height="19px" viewBox="0 0 15 19" style="enable-background:new 0 0 15 19;" xml:space="preserve">
<style type="text/css">
	.st0{fill:#14426E;}
</style>
<path class="st0" d="M13.9,15l-0.1-0.2c-0.2-0.6-3-1.9-3.3-2l-0.2,0c-0.4,0-0.9,0.3-2,1c-1-0.7-2.3-2.2-2.8-3.1
	C4.9,9.8,4.2,8.2,4,7.1C5.2,6.3,5.7,6,5.8,5.5c0.1-0.2,0-3.4-0.5-3.8L5.2,1.6C4.8,1.3,4.4,0.9,3.8,0.9c-0.1,0-0.3,0-0.4,0.1
	c-0.4,0.2-1.5,0.7-2,1.5C0.9,3,0.1,7.9,3.2,12.7c3,4.7,7.5,5.5,8.2,5.5l0,0l0.1,0c1-0.2,1.9-0.9,2.2-1.3
	C14.3,16.3,14.1,15.4,13.9,15z"/>
</svg>
