<?xml version="1.0" encoding="utf-8"?>
<!-- Generator: Adobe Illustrator 24.0.0, SVG Export Plug-In . SVG Version: 6.00 Build 0)  -->
<svg version="1.1" id="Слой_1" xmlns="http://www.w3.org/2000/svg" xmlns:xlink="http://www.w3.org/1999/xlink" x="0px" y="0px"
	 width="102px" height="101px" viewBox="0 0 102 101" style="enable-background:new 0 0 102 101;" xml:space="preserve">
<style type="text/css">
	.st0{fill:#C53334;}
</style>
<g>
	<path class="st0" d="M81.7,99.7c-0.5-5-0.5-5,3.9-5c3.3,0,6.5,0,10.5,0c-7-11.1-13.8-21.9-20.8-33.1C68.3,73,61.5,83.8,54.5,95
		c3.9,0,7.6,0,11.3,0c1.1,0,2.6-0.1,3.1,0.6c0.6,0.7,0.8,2.3,0.4,3.2c-0.2,0.6-1.8,0.8-2.8,0.8c-3.6,0.1-7.2,0.4-10.8-0.1
		c-1.9-0.2-4.2-1.4-5.3-2.9c-1-1.5-0.5-3.5,1.1-5.5c3-3.7,5.1-8.1,7.7-12.2c2.8-4.5,5.7-8.9,8.5-13.3c1.4-2.2,2.6-4.6,4.1-6.8
		c2-2.9,5.9-2.6,7.7,0.4c4.1,6.7,8.3,13.2,12.5,19.9c2.8,4.5,5.8,8.9,8.5,13.5c1.9,3.1-0.2,6.9-3.8,7C91.8,99.8,86.9,99.7,81.7,99.7
		z"/>
	<path class="st0" d="M68.6,8.1c-2.3,0.7-3.3,1.1-2.3,3.4c1.3,2.9-0.5,9.6-3.2,11c-1.4,0.7-3.7,0.1-5.5-0.2
		c-1.9-0.2-3.8-0.5-5.6-1.2c-1.2-0.5-2.1-1.8-3.2-2.8c1.3-0.8,2.5-2.1,3.8-2.1c2.1-0.1,4.2,0.6,6.3,1.2c2.1,0.6,2.8-0.4,2.9-2.2
		c0.1-1.8,0-3.7,0-5.5c0-4.4,2.5-6.8,6.9-6c4.5,0.8,8.5,2.7,10.9,7c2,3.5,0.9,6.9-2.9,8.6c-0.9,0.4-1.8,0.8-2.5,1.3
		c-3.1,2.1-3.2,2.8-0.6,5.4c1.1,1.1,2.6,2.1,3.1,3.5c0.5,1.2,0,2.9,0,4.4c-1-0.4-2.3-0.5-3.1-1.2c-2.2-1.9-4.5-3.8-6.3-6
		c-0.8-1-1.1-3.1-0.6-4.2c1.4-3.3,3.5-6.1,7.3-7.1c1.9-0.5,2.2-2.2,1.1-3.2C73.2,10.5,70.8,9.4,68.6,8.1z"/>
	<path class="st0" d="M15.3,39.5c-2.2,0-4.4-0.3-6.4,0.1C4.1,40.3,0,37,1.1,31.8c0.8-4,2.9-7.4,6.2-10c3.8-3.1,7.3-1.2,9.4,2.4
		c0.2,0.4,0.3,0.8,0.5,1.2c2.9,5.2,3.3,5.2,7.4,0.9c1-1.1,2.1-2.3,3.4-2.8c1-0.4,2.3,0.3,3.5,0.6c-0.3,1.1-0.4,2.4-1,3.2
		c-1.9,2.3-3.9,4.5-6.1,6.5c-0.9,0.7-2.7,1.1-3.7,0.7c-3.5-1.3-6.5-3.4-7.9-7.2c-0.3-0.8-1-1.5-1.6-2.5C7.6,27.4,6,30.5,6.3,34.9
		c2.8,0,5.5-0.1,8.1,0c0.8,0,1.7,0.3,2.4,0.7c4.2,2.3,4.3,2.8,3.2,7.5c-0.5,2-0.7,4-1.4,5.9c-0.4,1.1-1.6,1.9-2.4,2.9
		c-0.8-1.1-2.1-2.1-2.3-3.3c-0.2-1.3,0.6-2.7,0.8-4.1C15,43.3,15.1,42,15.3,39.5z"/>
	<path class="st0" d="M50,82c-2.5,3.9-5,3.6-7.6,2.7c-0.4-0.1-0.7-0.5-1.1-0.6c-3.9-1.2-4.9-0.4-5,3.7c-0.1,2.3,0.2,4.9-0.8,6.9
		C34,98,30.1,99,26.4,97.1c-2.8-1.4-5.5-3.4-7.7-5.7c-2.8-3-1.2-7.6,2.6-9.3c2-0.9,3.7-2.2,5.2-3.2c-1-4.6-8.8-5.6-4.4-12.2
		c3.3,3.1,6.4,5.9,9.1,8.8c0.6,0.6,0.6,2.4,0.2,3.3c-1.5,3.2-3.4,6.1-7.2,7.3c-2.5,0.8-2.7,2.4-0.4,4c2,1.3,4.2,2.5,6.5,3.1
		c1.8,0.5,2.5-1.1,1.7-2.6c-2.5-4.5,0.3-7.8,2.4-11.2c1.5-2.2,3.5-0.7,5.3-0.4c1.4,0.2,2.9,0.7,4.3,1.1C45.9,80.6,47.8,81.3,50,82z"
		/>
	<path class="st0" d="M33,25.9c0.3-5-1.7-8-4.8-10.3c-4.2-3-4.7-6.6-0.1-10.3c5-4.1,10.4-4.7,16.3-3.5c3.2,0.7,4.9,5.5,2.8,8.8
		c-2.6,4.2-0.2,7.3,1.5,10.6c0.4,0.7,1.3,1.1,1.7,1.9c0.6,1,0.9,2.2,1.4,3.3c-1.5,0-3.3,0.6-4.4,0c-3.8-2.1-6.6-9.7-5.6-14.1
		c0.2-0.8,0.4-1.7,0.5-2.5c0.8-4-0.3-5.3-4.2-4.1c-2.2,0.6-4.3,1.8-6.4,2.9c-2.4,1.2-2.6,2.2-0.1,3.8c5,3.1,7.8,10.8,5.9,16.4
		c-0.5,1.4-2.4,3.5-3.3,3.3c-2.3-0.4-1.9-2.7-1.6-4.6C32.7,26.6,33,25.8,33,25.9z"/>
	<path class="st0" d="M8.2,68.4c3.4-2.5,6-4.9,9-6.6c3.2-1.7,6.8-2.2,10.3-0.6c1,0.5,2.2,2.2,2.1,3.2c-0.2,1.6-1.5,1.9-3.5,1.5
		c-4.6-0.9-8.7-0.2-12,4c-4.6,5.9-9.5,3.7-12.4-3.2c-1.1-2.6-1.1-5.9-0.7-8.7c0.7-4.6,4.1-6.2,8.3-4.4c4.1,1.8,8.5,0.9,11.6-2.3
		c0.4-0.5,0.9-1.1,1.5-1.2c1.1-0.2,2.4-0.4,3.2,0.1c0.5,0.4,0.6,2.3,0.1,2.9c-3,4.1-10.9,7.7-16,5.5c-1.3-0.5-3,0-4.5,0
		c0.2,1.6,0.1,3.2,0.5,4.7C6.3,65.2,7.4,66.8,8.2,68.4z"/>
	<path class="st0" d="M89.9,32.8c-3,2.3-5.5,4.1-7.8,6.1c-3,2.6-6.5,1.8-9.9,1.8c-1,0-2.2-0.5-2.9-1.2c-0.6-0.6-1.3-2.1-0.9-2.6
		c0.5-0.7,1.9-1.4,2.8-1.3c4.2,0.4,8.2,0.7,11.5-2.6c0.7-0.7,1.4-1.5,2.1-2.3c3.4-3.8,7.4-2.6,10.4,1.4c2.4,3.3,2.4,7.3,2.1,11.2
		c-0.3,4-5.1,6.2-9.1,4.3c-3.2-1.5-8.2-0.5-10.7,2.1c-0.4,0.5-0.9,1-1.5,1.2c-1,0.4-2.1,0.6-3.1,0.9c-0.1-1.3-0.7-3.1-0.1-3.9
		c3.2-4,7.6-5.7,12.7-5.4c1.7,0.1,3.4,0.4,5.1,0.7c2.3,0.4,3.4-0.7,2.7-3C92.3,37.7,91,35.3,89.9,32.8z"/>
	<path class="st0" d="M42.2,70.3c-4.4,0.2-8.4-3.5-8.8-8.5c-0.4-4.2,4.6-9.1,8.8-9.1c4.4,0,9.3,4.6,9,9C51,66.1,46.8,70.9,42.2,70.3
		z M42.3,65.3c1.8-0.5,3.9-0.6,3.9-3.4c0-2.7-1.2-4-3.9-4.1c-2.5-0.1-3.8,1.3-4,3.6C38.1,64.2,40.1,64.9,42.3,65.3z"/>
	<path class="st0" d="M55.8,48.7c-4.2,0.7-8.9-4.6-9-8.6c-0.1-4.8,5.1-9.2,9-9.1c3.4,0.1,8.5,3.1,8.6,8.8
		C64.4,45.3,59.8,48.9,55.8,48.7z M55.8,36.2c-1.9,0.3-3.8,0.6-3.8,3.7c0,2.8,1.3,3.6,3.6,3.6c2.4,0.1,4.2-1.1,4.2-3.4
		C59.8,38.1,58.7,36.3,55.8,36.2z"/>
	<path class="st0" d="M34.2,50.6c-4.5,0.5-9-4.5-8.9-8.7c0.1-5.1,4.3-8.9,9.1-8.9c4.4,0,8.4,3.6,8.5,8.8
		C43,47.2,38.6,50.8,34.2,50.6z M30.5,42c-0.4,2.9,1.6,3.5,3.8,3.5c2.4,0,4.1-1.3,3.9-3.7c-0.1-2.1-1.3-3.6-3.7-3.6
		C32.1,38.2,30.3,39,30.5,42z"/>
	<path class="st0" d="M71.1,53.8c-1.6,2.5-3.1,3.3-5.3,0.9c-1.4-1.5-5-0.9-5.7,0.6c-1,2.2-1.1,4.3,1.4,5.7c1.4,0.8,3.4,1.5,1.8,3.9
		c-1.5,2-2.9,1.3-4.6,0.1c-3.5-2.4-4.7-5.7-3.9-9.8c0.6-2.8,4.4-6.1,7.4-6.5C66.2,48.2,68.9,50.3,71.1,53.8z"/>
	<path class="st0" d="M77.4,91c-1.3,0-2.5,0-3.9,0c0-5.6,0-11,0-16.7c1.2,0,2.5,0,3.9,0C77.4,79.8,77.4,85.3,77.4,91z"/>
	<path class="st0" d="M77.4,99.6c-1.3,0-2.4,0-3.8,0c0-1.7,0-3.3,0-5c1.4,0.1,2.5,0.2,3.8,0.2C77.4,96.4,77.4,97.9,77.4,99.6z"/>
</g>
</svg>
